<ttFont>
          <CharString index="0">
            70 43 34 62 hvcurveto
            0 57 -8 46 0 47 0 45 3 45 4 42 4 44 4 44 0 46 rrcurveto
            81 -59 28 -58 -93 -34 -50 -55 vhcurveto
            0 -48 4 -44 4 -44 4 -42 3 -43 0 -44 0 -55 -5 -47 0 -48 rrcurveto
            -68 62 -33 52 vhcurveto
            return
          </CharString>
          <CharString index="1">
            -58 37 -65 94 vhcurveto
            76 0 14 53 14 52 rrcurveto
            0 -1 549 1415 rlineto
            10 19 18 57 0 37 0 73 -59 38 -54 0 -88 0 -28 -93 -22 -83 rrcurveto
            1 vlineto
            -515 -1345 -8 -13 -8 -11 rrcurveto
            -15 -19 -15 -26 0 -31 rrcurveto
            return
          </CharString>
          <CharString index="2">
            251 174 229 237 hvcurveto
            0 167 -99 161 -173 70 -10 4 -8 1 -11 0 -5 0 -9 -1 -6 -1 -46 39 -56 2 -51 0 rrcurveto
            return
          </CharString>
          <CharString index="3">
            -258 -175 -248 -227 -271 258 -162 224 hvcurveto
            return
          </CharString>
          <CharString index="4">
            -121 -118 78 126 149 91 117 134 hvcurveto
            3 0 5 0 6 -1 9 -1 11 -1 18 0 6 0 5 0 4 1 87 -29 69 -95 0 -93 rrcurveto
            -111 -77 -140 -132 vhcurveto
            return
          </CharString>
          <CharString index="5">
            -282 257 -153 227 251 173 230 236 vhcurveto
            0 168 -100 161 -172 70 -10 3 -9 1 -10 0 -6 0 -8 -1 -5 -1 -47 41 -56 1 -51 0 rrcurveto
            -258 -176 -248 -226 hvcurveto
            return
          </CharString>
          <CharString index="6">
            148 91 118 132 vhcurveto
            5 0 4 0 7 -1 10 -1 10 -2 17 0 6 0 6 0 5 2 86 -29 69 -95 0 -94 rrcurveto
            -110 -78 -140 -131 -122 -117 78 126 vhcurveto
            return
          </CharString>
          <CharString index="7">
            -63 33 -60 91 96 29 70 119 vhcurveto
            6 vlineto
            40 -3 116 -114 -114 -18 -158 -70 vhcurveto
            return
          </CharString>
          <CharString index="8">
            -63 33 -60 91 96 29 70 119 vhcurveto
            6 vlineto
            40 -3 116 -114 vhcurveto
            -114 -18 -158 -70 hvcurveto
            return
          </CharString>
          <CharString index="9">
            79 187 82 191 60 137 105 -223 75 -161 61 -134 -295 2 -111 1 -56 0 rrcurveto
            return
          </CharString>
          <CharString index="10">
            8 -56 45 -23 72 0 30 0 22 4 16 7 rrcurveto
            return
          </CharString>
          <CharString index="11">
            88 -17 130 -10 46 0 389 0 291 54 0 447 0 86 -41 95 -57 70 -18 22 -57 47 -67 27 rrcurveto
            return
          </CharString>
          <CharString index="12">
            78 75 57 106 0 122 0 428 -376 3 -142 0 -70 0 -66 -6 -67 -3 rrcurveto
            return
          </CharString>
          <CharString index="13">
            -66 -3 -66 -2 -66 0 -97 -1 -17 -26 0 -113 rrcurveto
            12 -135 rlineto
            1 -527 6 -280 -6 -279 rrcurveto
            -7 -32 -10 -44 5 -36 rrcurveto
            return
          </CharString>
          <CharString index="14">
            13 vlineto
            2 155 1 140 -2 137 0 3 -1 2 0 2 rrcurveto
            2 vlineto
            153 6 83 0 39 0 rrcurveto
            209 89 -62 -169 hvcurveto
            return
          </CharString>
          <CharString index="15">
            -202 -113 -39 -317 vhcurveto
            -40 0 -54 6 -49 6 rrcurveto
            return
          </CharString>
          <CharString index="16">
            0 81 -1 79 0 319 230 2 91 7 92 0 rrcurveto
            105 164 -62 -189 -230 -215 -29 -182 hvcurveto
            -158 0 -62 11 -64 11 rrcurveto
            return
          </CharString>
          <CharString index="17">
            -415 281 -370 490 vhcurveto
            143 0 169 51 57 33 rrcurveto
            -1 vlineto
            84 40 36 46 0 55 0 80 -50 25 -62 0 -40 0 -26 -19 -40 -34 -41 -28 -120 -32 -119 0 rrcurveto
            -260 -278 157 443 399 276 172 250 hvcurveto
            75 0 71 1 95 -39 35 -25 54 -26 36 0 53 0 69 28 0 95 0 83 -71 17 -65 23 -106 37 -110 22 -113 0 rrcurveto
            -372 -401 -243 -575 hvcurveto
            return
          </CharString>
          <CharString index="18">
            -76 32 -37 81 vhcurveto
            106 0 100 -23 100 0 rrcurveto
            648 196 510 341 382 -203 360 -590 hvcurveto
            -95 0 -92 -15 -93 0 -43 0 -36 15 -38 0 -76 0 -28 -45 0 -57 0 -24 13 -37 15 -28 10 -362 1 -358 0 -353 0 -79 -8 -53 0 -61 rrcurveto
            return
          </CharString>
          <CharString index="19">
            -6 1122 rlineto
            61 4 104 5 51 0 rrcurveto
            386 214 -129 -444 -169 -106 -407 -496 hvcurveto
            -39 0 -113 3 -56 15 rrcurveto
            return
          </CharString>
          <CharString index="20">
            -82 51 -31 68 vhcurveto
            673 hlineto
            93 88 4 116 79 -62 22 -79 hvcurveto
            -34 0 -28 -4 -28 -4 -30 -5 -33 -5 -40 0 -145 0 -132 6 -131 0 rrcurveto
            0 599 628 1 rlineto
            74 53 33 71 45 -41 65 -72 hvcurveto
            -37 0 -33 -3 -24 -3 -18 -2 -20 -2 -15 0 -444 0 -25 0 -26 1 rrcurveto
            317 93 vlineto
            38 0 41 1 259 0 26 -3 26 0 15 0 rrcurveto
            66 55 15 102 72 -20 36 -101 hvcurveto
            -12 0 -36 -7 -24 -2 rrcurveto
            -527 hlineto
            -64 -66 -1 -132 hvcurveto
            23 -1196 -9 -32 rlineto
            -6 -21 -8 -27 0 -23 rrcurveto
            return
          </CharString>
          <CharString index="21">
            -88 38 -39 72 107 28 47 70 vhcurveto
            0 57 -24 49 0 53 rrcurveto
            0 503 650 1 rlineto
            73 54 34 70 46 -41 64 -72 hvcurveto
            -14 0 -27 0 -22 -1 -11 0 -12 -1 -13 0 -104 -3 -166 -4 -295 0 rrcurveto
            -6 380 551 -1 rlineto
            101 51 21 93 67 -42 30 -111 hvcurveto
            -552 hlineto
            -15 0 -13 0 -13 2 -22 3 -26 3 -52 0 rrcurveto
            -57 -33 -49 -89 hvcurveto
            23 -1151 rlineto
            -1 -59 -7 -55 3 -53 rrcurveto
            return
          </CharString>
          <CharString index="22">
            -415 308 -361 568 vhcurveto
            74 0 99 20 77 0 92 0 80 5 2 153 0 374 5 147 3 84 0 28 2 24 0 26 rrcurveto
            62 -46 40 -78 -95 -31 -63 -39 vhcurveto
            return
          </CharString>
          <CharString index="23">
            0 -56 10 -47 0 -48 5 -135 3 -88 0 -262 -59 -11 -65 0 -48 0 rrcurveto
            -328 -350 134 467 400 280 160 219 hvcurveto
            108 0 207 -14 105 -55 rrcurveto
            return
          </CharString>
          <CharString index="24">
            12 -6 21 -3 10 0 50 0 45 51 0 75 0 65 -38 31 -49 19 -124 49 -181 6 -116 0 rrcurveto
            -445 -332 -271 -546 hvcurveto
            return
          </CharString>
          <CharString index="25">
            -70 31 -39 106 92 25 46 65 vhcurveto
            0 19 -2 17 -3 20 rrcurveto
            -1 vlineto
            -14 183 -4 344 0 305 0 170 2 128 2 114 4 24 5 21 0 23 rrcurveto
            75 -37 50 -60 -121 -32 -57 -70 vhcurveto
            0 -44 12 -37 0 -37 0 -363 9 -340 0 -340 0 -74 -15 -65 0 -67 rrcurveto
            return
          </CharString>
          <CharString index="26">
            -102 76 -20 35 78 48 32 69 vhcurveto
            -1 27 -1 27 -4 37 -1 108 -1 142 0 149 rrcurveto
            112 vlineto
            153 -40 142 -169 100 -153 111 -168 117 -173 153 0 rrcurveto
            83 99 9 110 99 -95 0 -55 hvcurveto
            -68 0 -74 109 -78 121 -101 157 -169 194 -176 48 199 168 197 161 189 168 55 32 56 36 0 82 0 78 -54 31 -61 0 -55 0 -104 -88 -30 -43 rrcurveto
            -533 -504 rlineto
            1 175 1 166 0 191 rrcurveto
            64 -55 39 -61 -82 -39 -37 -91 vhcurveto
            3 -452 2 -450 0 -451 rrcurveto
            return
          </CharString>
          <CharString index="27">
            -92 48 -19 66 vhcurveto
            531 hlineto
            83 1 88 14 0 104 0 77 -48 41 -87 0 -42 0 -37 -8 -37 -3 -69 -3 -106 0 -155 0 -2 264 1 560 1 249 rrcurveto
            150 vlineto
            96 -27 30 -92 vhcurveto
            -82 0 -31 -48 -1 -101 rrcurveto
            15 -1194 rlineto
            0 -43 -17 -36 0 -39 rrcurveto
            return
          </CharString>
          <CharString index="28">
            -59 51 -49 68 vhcurveto
            59 0 22 33 31 52 89 270 125 583 99 273 82 -220 120 -408 67 -241 5 -18 3 -19 3 -18 11 -64 17 -62 98 0 58 0 65 20 0 74 rrcurveto
            0 21 5 36 10 27 106 287 60 300 100 282 96 -270 144 -499 75 -278 13 -63 29 -98 106 0 84 0 25 58 -5 69 -2 27 -11 28 -16 43 rrcurveto
            -364 1165 -35 65 -35 90 -20 49 -35 9 -47 0 -108 0 -15 -97 -28 -83 -53 -164 -48 -243 -144 -444 rrcurveto
            -14 42 -251 797 rlineto
            -38 124 -21 68 -94 0 -34 0 -41 -15 -21 -22 -17 -16 -29 -83 -18 -75 rrcurveto
            1 vlineto
            -160 -538 -187 -631 -30 -85 -4 -10 -1 -9 0 -12 rrcurveto
            return
          </CharString>
          <CharString index="29">
            -57 53 -36 68 102 18 61 70 vhcurveto
            0 37 -5 41 -1 35 0 175 -6 184 -3 613 rrcurveto
            60 -94 rlineto
            265 -355 268 -325 254 -346 18 -53 45 -43 74 0 81 0 31 32 0 103 0 54 -8 48 0 48 rrcurveto
            1147 vlineto
            78 -7 93 -104 -79 -45 -21 -108 vhcurveto
            0 -108 20 -93 0 -857 -178 263 -464 546 -163 246 rrcurveto
            return
          </CharString>
          <CharString index="30">
            -11 35 -42 85 -64 0 -30 0 -35 -8 -27 -22 -62 -14 -27 -38 0 -65 0 -28 3 -22 5 -31 14 -208 0 -294 0 -212 0 -166 -3 -147 -2 -145 rrcurveto
            -1 3 -12 -46 0 -55 rrcurveto
            return
          </CharString>
          <CharString index="31">
            -450 273 -352 425 426 272 352 450 474 -243 327 -447 -425 -281 -327 -474 vhcurveto
            return
          </CharString>
          <CharString index="32">
            357 172 238 301 319 147 -276 -319 -300 -151 -298 -315 -301 -172 298 300 vhcurveto
            return
          </CharString>
          <CharString index="33">
            -71 60 -41 65 47 73 27 71 vhcurveto
            0 48 -13 41 0 43 0 32 -1 7 0 93 23 -1 9 0 26 1 rrcurveto
            380 432 101 537 377 -288 213 -377 hvcurveto
            -57 0 -50 -9 -51 0 -63 0 -59 9 -58 0 -70 0 -37 -56 0 -54 0 -29 7 -38 8 -19 rrcurveto
            4 -1150 rlineto
            -1 -47 -9 -42 0 -43 rrcurveto
            return
          </CharString>
          <CharString index="34">
            -1 145 -1 130 -6 522 70 1 61 3 61 0 rrcurveto
            146 307 -38 -334 -208 -53 -227 -445 hvcurveto
            -21 0 -64 3 -54 3 rrcurveto
            return
          </CharString>
          <CharString index="35">
            -82 58 -58 79 51 69 32 76 vhcurveto
            0 62 -20 59 -2 62 rrcurveto
            146 vlineto
            47 0 63 -1 39 -1 36 -1 79 0 33 0 36 -166 118 -268 284 0 rrcurveto
            206 135 101 114 61 -42 45 -72 hvcurveto
            -41 0 -25 -24 -19 -27 -30 -46 -43 -13 -51 0 -137 0 -82 120 -23 143 174 70 210 190 0 340 0 361 -261 155 -402 0 -67 -1 -60 -9 -59 0 rrcurveto
            -71 0 -56 10 -55 0 -70 0 -36 -59 0 -57 0 -29 7 -38 7 -19 -1 -337 0 -274 0 -555 -3 -24 -3 -29 0 -29 rrcurveto
            return
          </CharString>
          <CharString index="36">
            -7 164 -2 125 0 180 0 101 0 55 4 102 81 1 68 3 68 0 rrcurveto
            145 303 -9 -291 -222 -82 -215 -361 hvcurveto
            -18 0 -129 3 -70 3 rrcurveto
            return
          </CharString>
          <CharString index="37">
            0 -1 -1 0 0 0 1 hflex
            return
          </CharString>
          <CharString index="38">
            0 -1 0 0 0 1 0 hflex
            return
          </CharString>
          <CharString index="39">
            -8 -285 318 -104 214 0 251 0 279 109 0 315 0 295 -280 138 -211 109 -116 60 -147 72 0 141 rrcurveto
            return
          </CharString>
          <CharString index="40">
            119 124 46 111 vhcurveto
            81 0 96 -17 39 -64 5 -48 30 -58 85 0 56 0 60 40 -6 75 -21 204 -200 68 -213 0 -240 0 -234 -112 0 -254 0 -341 284 -71 226 -118 rrcurveto
            return
          </CharString>
          <CharString index="41">
            107 -56 138 -94 0 -126 0 -191 -159 -42 -143 0 -142 0 -139 64 -10 90 -3 37 11 34 0 35 0 60 -49 36 -60 0 rrcurveto
            -96 0 -31 -58 -7 -108 rrcurveto
            return
          </CharString>
          <CharString index="42">
            -72 -5 -92 122 105 16 67 58 vhcurveto
            0 36 -7 29 0 32 rrcurveto
            3 1128 258 0 rlineto
            22 0 20 -6 21 0 56 1 45 54 0 65 rrcurveto
            87 -67 24 -54 vhcurveto
            -798 hlineto
            -99 -41 -25 -79 -58 31 -65 65 hvcurveto
            118 0 98 2 93 0 rrcurveto
            return
          </CharString>
          <CharString index="43">
            2 -623 285 -142 291 0 388 0 183 284 0 488 0 113 -4 95 0 96 -2 82 -2 90 0 106 0 49 5 46 0 44 rrcurveto
            52 -29 59 -92 -70 -46 -31 -95 vhcurveto
            0 -4 0 -26 1 -20 3 -99 7 -233 0 -322 rrcurveto
            -360 -89 -200 -242 -316 -43 281 290 vhcurveto
            0 480 11 97 0 84 rrcurveto
            97 -36 61 -97 -84 -22 -70 -113 vhcurveto
            0 -233 -3 -212 1 -211 rrcurveto
            return
          </CharString>
          <CharString index="44">
            8 -47 18 -83 90 0 65 0 61 31 0 61 0 4 0 14 -2 12 78 207 83 274 55 157 51 -135 48 -151 48 -133 30 -82 30 -72 29 -93 rrcurveto
            1 vlineto
            12 -46 16 -49 71 0 rrcurveto
            return
          </CharString>
          <CharString index="45">
            91 44 49 59 hvcurveto
            0 7 2 3 -2 6 167 485 114 339 164 413 21 52 10 26 0 49 0 67 -41 42 -75 0 -86 0 -30 -72 -16 -81 rrcurveto
            1 vlineto
            return
          </CharString>
          <CharString index="46">
            -132 -344 -99 -348 -122 -349 -107 304 -52 153 -62 159 47 119 46 107 57 116 21 41 19 42 0 37 rrcurveto
            return
          </CharString>
          <CharString index="47">
            71 -43 48 -68 vhcurveto
            -90 0 -21 -68 -12 -51 -21 -75 -32 -102 -26 -57 -9 24 -9 42 -9 23 -79 213 -23 44 -60 0 rrcurveto
            return
          </CharString>
          <CharString index="48">
            -87 -33 -34 -86 hvcurveto
            0 -34 20 -47 24 -43 31 -62 72 -230 30 -61 -78 -204 -51 -165 -76 -218 -72 222 -101 292 -208 581 -32 87 -36 8 -37 0 -81 0 -41 -38 0 -71 rrcurveto
            0 -41 17 -49 17 -44 rrcurveto
            100 -259 203 -550 151 -418 rrcurveto
            return
          </CharString>
          <CharString index="49">
            -74 34 -48 111 vhcurveto
            762 hlineto
            155 43 36 73 83 -47 31 -77 hvcurveto
            -30 0 -55 -4 -30 -8 rrcurveto
            -557 -6 rlineto
            236 370 220 365 237 369 19 28 60 76 0 36 0 54 -25 62 -83 0 -41 0 -27 -5 -16 -13 -117 -2 -109 0 -518 0 rrcurveto
            -88 -46 -27 -75 -75 44 -38 100 hvcurveto
            return
          </CharString>
          <CharString index="50">
            596 12 rlineto
            -212 -341 -65 -125 -397 -619 rrcurveto
            -37 -37 -40 -61 0 -37 rrcurveto
            return
          </CharString>
          <CharString index="51">
            66 51 43 76 hvcurveto
            0 47 -55 46 -22 9 -26 21 -42 39 -140 134 -45 41 -36 15 -28 0 -55 0 -49 -57 0 -46 0 -42 9 -27 44 -36 73 -62 63 -63 63 -63 rrcurveto
            1 vlineto
            48 -52 20 -24 61 0 rrcurveto
            return
          </CharString>
          <CharString index="52">
            -360 241 -269 346 vhcurveto
            return
          </CharString>
          <CharString index="53">
            172 0 155 86 83 103 4 -79 21 -96 105 0 87 0 83 41 81 28 rrcurveto
            return
          </CharString>
          <CharString index="54">
            47 16 14 42 0 36 0 52 -33 62 -64 0 -28 0 -17 -8 -18 -7 -20 -10 -27 -11 -12 -3 rrcurveto
            return
          </CharString>
          <CharString index="55">
            -6 34 1 74 0 129 0 57 2 73 2 64 3 94 2 110 0 146 2 47 7 46 0 45 rrcurveto
            38 -49 63 -74 -87 -36 -53 -66 vhcurveto
            0 -16 0 -24 1 -18 -77 87 -143 87 -172 0 rrcurveto
            -335 -261 -277 -363 hvcurveto
            return
          </CharString>
          <CharString index="56">
            239 154 191 218 vhcurveto
            233 0 133 -224 30 -163 rrcurveto
            -88 vlineto
            -33 -175 -145 -194 -226 0 rrcurveto
            -230 -134 197 217 hvcurveto
            return
          </CharString>
          <CharString index="57">
            244 185 178 202 239 146 -157 -254 -294 -176 -125 -232 -187 -177 156 252 vhcurveto
            return
          </CharString>
          <CharString index="58">
            -345 255 -288 361 vhcurveto
            150 0 177 39 123 123 33 37 33 48 4 57 3 46 -23 57 -81 5 -40 3 -42 -30 -22 -28 -72 -93 -132 -49 -101 0 rrcurveto
            -273 -115 234 170 222 127 204 254 hvcurveto
            216 0 42 -77 32 -65 24 -47 19 -38 71 0 69 0 33 51 0 64 0 60 -20 58 0 61 0 35 6 29 0 29 0 56 -38 38 -64 0 rrcurveto
            -49 0 -56 -16 -14 -81 -56 36 -86 23 -96 0 rrcurveto
            -458 -194 -304 -324 hvcurveto
            return
          </CharString>
          <CharString index="59">
            -351 227 -278 346 vhcurveto
            172 0 171 73 106 108 20 -101 39 -66 63 0 32 0 44 26 45 24 30 16 29 15 32 15 32 13 37 34 0 56 0 79 -58 32 -45 -5 rrcurveto
            -30 -3 -25 -13 -28 -16 rrcurveto
            -18 -11 rlineto
            -5 59 -2 111 0 130 0 137 2 677 6 261 rrcurveto
            return
          </CharString>
          <CharString index="60">
            6 13 3 16 0 24 0 64 -34 42 -56 0 -102 -1 -87 -5 -88 1 -24 6 -19 0 -13 0 rrcurveto
            -54 -41 -39 -69 -76 55 -46 48 hvcurveto
            33 0 29 10 30 0 rrcurveto
            85 hlineto
            3 -243 1 -195 0 -69 -88 115 -152 62 -156 0 rrcurveto
            -344 -257 -270 -362 hvcurveto
            return
          </CharString>
          <CharString index="61">
            248 163 167 222 vhcurveto
            189 0 156 -149 42 -193 0 -53 1 -19 0 -109 -41 -188 -189 -118 -176 0 rrcurveto
            -229 -138 204 210 hvcurveto
            return
          </CharString>
          <CharString index="62">
            20 228 148 152 227 0 146 0 111 -103 46 -124 -239 -57 -234 -43 -225 -53 rrcurveto
            return
          </CharString>
          <CharString index="63">
            -95 64 -23 52 vhcurveto
            29 0 61 14 53 14 46 13 33 8 27 7 67 15 35 44 0 50 0 62 -49 43 -46 0 -33 0 -32 -11 -40 -13 -13 -5 -16 -5 -17 -4 rrcurveto
            -9 794 219 0 rlineto
            78 42 58 55 52 -35 47 -65 hvcurveto
            return
          </CharString>
          <CharString index="64">
            -99 0 -82 0 -68 -1 -4 40 -3 49 0 18 0 174 49 91 105 0 60 0 29 -26 19 -20 34 -36 23 -22 47 0 rrcurveto
            60 46 37 62 78 -77 129 -222 -237 -156 -122 -293 hvcurveto
            0 -39 4 -76 3 -49 -14 1 -10 6 -13 0 rrcurveto
            -50 -45 -38 -68 -83 58 -24 49 hvcurveto
            31 0 17 -829 rlineto
            -1 -25 -4 -27 0 -27 rrcurveto
            return
          </CharString>
          <CharString index="65">
            -129 287 -110 199 216 375 75 522 vhcurveto
            0 150 2 155 2 132 2 134 1 135 0 150 rrcurveto
            return
          </CharString>
          <CharString index="66">
            0 33 8 28 0 29 0 63 -20 49 -90 0 -60 0 -29 -43 -13 -43 -93 102 -133 55 -181 0 -343 0 -261 -249 4 -383 4 -360 242 -269 344 0 rrcurveto
            212 0 110 66 70 86 0 -21 2 -23 0 -19 0 -225 -205 -117 -160 0 rrcurveto
            return
          </CharString>
          <CharString index="67">
            -162 0 -76 67 -68 61 -21 17 -38 10 -23 0 rrcurveto
            -62 -42 -66 -62 hvcurveto
            return
          </CharString>
          <CharString index="68">
            240 153 190 236 267 115 -197 -233 -238 -139 -176 -258 vhcurveto
            -228 -146 176 238 hvcurveto
            return
          </CharString>
          <CharString index="69">
            -65 37 -39 78 vhcurveto
            35 0 92 23 81 22 69 21 45 35 -9 63 -10 49 -14 33 -69 0 -46 0 -21 -22 -43 -3 -4 278 6 241 0 241 0 59 14 52 0 54 rrcurveto
            63 -27 39 -68 vhcurveto
            -44 0 -51 -7 -49 0 -48 0 -50 7 -51 0 rrcurveto
            -52 -44 -38 -70 -80 58 -28 47 hvcurveto
            40 0 67 2 40 3 5 -263 1 -227 0 -239 0 -127 -15 -10 0 -67 rrcurveto
            return
          </CharString>
          <CharString index="70">
            50 22 5 25 9 43 4 21 2 28 10 23 14 33 15 58 -4 27 rrcurveto
            return
          </CharString>
          <CharString index="71">
            -2 14 -5 23 -6 14 -20 45 -46 11 -46 -8 -64 -9 -31 -44 -4 -59 -4 -54 -41 -82 8 -52 rrcurveto
            12 -74 78 -34 66 29 rrcurveto
            return
          </CharString>
          <CharString index="72">
            -51 -17 -33 -30 0 -54 0 -86 52 -30 66 0 31 0 28 10 43 30 97 38 97 51 117 58 rrcurveto
            -1 vlineto
            47 21 16 47 0 50 -4 62 -6 53 0 53 -6 506 -2 210 0 296 rrcurveto
            return
          </CharString>
          <CharString index="73">
            0 55 10 47 0 49 0 37 -8 66 -96 0 -73 0 -57 -4 -57 0 -51 -2 -14 7 -40 0 rrcurveto
            -53 -44 -39 -68 -83 59 -25 48 hvcurveto
            14 0 68 2 66 5 12 -215 6 -389 0 -353 0 -86 2 -77 1 -72 -169 -87 -89 -27 -27 -8 rrcurveto
            return
          </CharString>
          <CharString index="74">
            -65 23 -34 79 vhcurveto
            49 0 47 21 47 5 70 8 89 12 0 101 0 67 -38 37 -73 0 -23 0 -22 -10 -20 -5 -3 224 -1 22 0 23 rrcurveto
            -3 129 rlineto
            63 216 179 202 182 0 132 0 78 -43 0 -124 0 -143 -140 -63 -70 -27 -15 3 -13 2 -18 0 rrcurveto
            -75 -51 -39 -70 -80 51 -26 100 hvcurveto
            71 0 22 -78 26 -90 37 -128 44 -148 186 0 rrcurveto
            101 133 18 115 71 -45 42 -58 hvcurveto
            -38 0 -34 -19 -36 0 -41 0 -24 81 -15 56 -19 70 -28 64 -57 48 121 59 118 122 0 178 0 217 -131 141 -257 0 -214 0 -166 -130 -99 -137 rrcurveto
            1 129 2 161 3 180 1 131 9 41 4 72 0 64 -40 39 -55 0 -58 0 -52 -8 -53 0 -23 0 -20 8 -20 0 rrcurveto
            -52 -43 -38 -70 -80 57 -29 48 hvcurveto
            31 0 24 2 17 3 6 -368 6 -692 0 -236 0 -73 -14 -64 0 -67 rrcurveto
            return
          </CharString>
          <CharString index="75">
            -60 35 -72 85 vhcurveto
            29 0 20 3 45 14 rrcurveto
            100 26 rlineto
            75 18 43 30 0 60 0 74 -36 36 -69 0 -24 0 -30 -8 -54 -16 rrcurveto
            1311 vlineto
            2 54 22 49 0 52 0 73 -39 35 -56 0 -82 0 -27 -8 -75 0 -51 0 -44 8 -46 0 rrcurveto
            -51 -44 -38 -70 -80 58 -29 47 hvcurveto
            56 0 53 7 52 1 8 -475 5 -570 0 -122 0 -59 -2 -65 -2 -48 -2 -46 -1 -42 0 -43 rrcurveto
            return
          </CharString>
          <CharString index="76">
            -65 24 -39 79 vhcurveto
            41 0 55 24 44 6 73 9 88 13 0 100 0 67 -38 37 -72 0 -12 0 -8 -3 -49 -14 -4 -10 1 487 1 179 105 106 109 47 113 0 rrcurveto
            229 77 -144 -214 hvcurveto
            0 -153 -44 -197 -59 -108 -18 -31 -12 -37 0 -34 0 -59 34 -71 87 0 18 0 55 11 9 5 79 41 163 -44 0 127 0 45 -13 78 -89 0 rrcurveto
            -27 0 -22 -12 -21 -4 57 127 32 196 0 120 0 99 -14 88 -27 74 70 63 64 34 116 0 233 0 103 -144 0 -214 0 -151 -40 -204 -62 -101 rrcurveto
            -30 -35 -21 -47 0 -35 0 -64 35 -53 86 0 21 0 24 7 41 11 189 40 52 11 0 83 0 35 -14 79 -93 0 -8 0 -10 -1 -17 -5 rrcurveto
            44 121 31 193 0 116 0 370 -223 203 -336 0 -109 0 -137 -51 -112 -92 -90 94 -131 49 -166 0 -101 0 -125 -41 -105 -88 rrcurveto
            20 vlineto
            65 -19 38 -57 vhcurveto
            -58 0 -52 -8 -53 0 -22 0 -20 8 -21 0 rrcurveto
            -53 -43 -37 -72 -79 58 -29 48 hvcurveto
            33 0 21 2 17 3 10 -443 3 -128 0 -166 rrcurveto
            0 -73 -15 -64 0 -67 rrcurveto
            return
          </CharString>
          <CharString index="77">
            -65 23 -38 79 vhcurveto
            23 0 29 10 43 12 rrcurveto
            return
          </CharString>
          <CharString index="78">
            12 4 18 2 19 2 69 8 88 12 0 101 rrcurveto
            return
          </CharString>
          <CharString index="79">
            -11 0 -15 -4 -14 -4 rrcurveto
            -27 -8 rlineto
            -3 35 1 31 0 30 0 105 1 103 3 103 0 61 1 61 1 60 92 110 150 107 157 0 226 0 70 -216 0 -181 0 -158 -26 -150 -76 -95 rrcurveto
            -30 -36 -11 -47 0 -42 0 -53 32 -67 64 0 45 -2 19 14 133 41 rrcurveto
            108 25 rlineto
            67 23 14 53 0 38 0 74 -39 35 -73 -7 -19 -2 -30 -8 -30 -9 47 113 33 143 0 117 rrcurveto
            return
          </CharString>
          <CharString index="80">
            387 -174 226 -338 vhcurveto
            -173 0 -137 -81 -92 -87 2 20 1 23 0 16 0 65 -41 38 -54 0 -22 0 -31 -2 -29 -2 -27 -3 -28 -1 -27 0 -22 0 -20 8 -21 0 rrcurveto
            -53 -42 -37 -72 -79 57 -29 48 hvcurveto
            32 0 23 2 17 3 8 -425 1 -10 0 -9 2 -98 1 -89 0 -104 0 -53 -5 -42 -4 -36 rrcurveto
            -3 -24 -2 -26 0 -24 rrcurveto
            return
          </CharString>
          <CharString index="81">
            -380 284 -252 337 336 285 252 380 347 -245 282 -376 -344 -277 -282 -347 vhcurveto
            return
          </CharString>
          <CharString index="82">
            225 142 188 247 248 144 -188 -225 -272 -179 -145 -213 -240 -149 163 254 vhcurveto
            return
          </CharString>
          <CharString index="83">
            -4 193 rlineto
            89 -94 139 -56 146 0 rrcurveto
            382 215 281 361 385 -236 234 -345 hvcurveto
            -166 0 -142 -73 -83 -104 2 29 7 28 0 27 0 61 -38 28 -58 0 -36 0 -28 -6 -28 0 -32 0 -29 6 -29 0 rrcurveto
            -69 -40 -18 -85 -82 58 -23 47 hvcurveto
            return
          </CharString>
          <CharString index="84">
            22 0 30 7 10 0 6 -53 0 -257 0 -167 rrcurveto
            return
          </CharString>
          <CharString index="85">
            -975 vlineto
            -70 44 -16 57 51 62 17 70 vhcurveto
            0 74 -2 159 -2 119 rrcurveto
            return
          </CharString>
          <CharString index="86">
            91 vlineto
            26 214 165 186 185 0 rrcurveto
            227 132 -181 -225 -264 -126 -160 -269 hvcurveto
            -167 0 -142 145 -31 194 rrcurveto
            return
          </CharString>
          <CharString index="87">
            -76 55 -42 62 vhcurveto
            28 0 39 5 68 13 42 8 33 7 19 2 55 4 42 56 0 60 0 68 -53 34 -50 4 -31 -2 -22 -9 -26 -9 rrcurveto
            -30 -9 0 653 rlineto
            60 13 59 13 59 14 105 22 94 22 51 12 -1 -76 -2 -61 0 -61 rrcurveto
            -54 27 -61 79 55 71 19 64 vhcurveto
            0 30 -1 32 -2 26 -6 85 -8 85 8 81 0 24 4 24 0 23 0 57 -47 43 -73 0 -50 0 -31 -26 -17 -30 -81 -26 -145 -44 -203 -50 rrcurveto
            4 23 4 23 0 23 rrcurveto
            53 -37 54 -75 -86 -55 -39 -70 vhcurveto
            0 -41 12 -38 0 -37 rrcurveto
            -771 vlineto
            -1 -56 -2 -45 0 -46 rrcurveto
            return
          </CharString>
          <CharString index="88">
            -119 237 -169 279 199 295 56 299 vhcurveto
            0 259 -247 69 -216 59 -158 43 -141 41 0 106 0 83 101 53 136 0 rrcurveto
            140 0 87 -57 43 -36 16 -43 45 -40 54 0 58 0 45 25 0 63 rrcurveto
            0 15 -2 21 -7 16 0 65 6 53 0 51 0 64 -38 22 -65 0 -53 0 -33 -46 -11 -41 -81 33 -74 28 -123 0 -214 0 -252 -89 0 -239 rrcurveto
            0 -269 247 -69 210 -52 154 -39 154 -42 0 -122 0 -90 -116 -50 -136 0 -165 0 -100 45 -53 80 -26 37 -20 29 -61 0 rrcurveto
            -50 -64 -42 -61 hvcurveto
            return
          </CharString>
          <CharString index="89">
            -1 -85 72 -20 49 0 59 -3 251 68 119 23 75 16 33 62 0 36 0 72 -40 49 -65 0 -33 0 -32 -16 -23 -12 rrcurveto
            return
          </CharString>
          <CharString index="90">
            -82 -33 -48 -6 -110 -20 rrcurveto
            -7 789 121 1 rlineto
            44 -1 42 -7 41 0 rrcurveto
            89 16 54 63 84 -46 31 -52 hvcurveto
            -12 0 -23 0 -16 -1 rrcurveto
            return
          </CharString>
          <CharString index="91">
            -4 0 -5 -1 -5 0 -36 -1 -52 -2 -104 -2 rrcurveto
            73 vlineto
            -1 59 15 56 0 57 rrcurveto
            86 -56 17 -64 -94 -30 -38 -66 vhcurveto
            0 -40 11 -38 0 -39 0 -10 1 -32 0 -49 rrcurveto
            -37 -71 vlineto
            -90 -51 1 -103 hvcurveto
            return
          </CharString>
          <CharString index="92">
            -61 32 -56 60 vhcurveto
            121 1 6 -705 rlineto
            return
          </CharString>
          <CharString index="93">
            -374 175 -201 346 vhcurveto
            101 0 141 40 122 106 -2 -13 -3 -6 0 -15 0 -42 27 -70 80 0 125 4 9 39 0 71 0 43 -7 35 0 36 0 258 -6 219 0 219 rrcurveto
            -1 76 0 63 0 38 0 89 0 71 -95 0 -61 0 -49 -35 -55 -9 -99 -20 -64 -11 0 -84 0 -77 52 -37 55 0 19 0 41 7 41 12 rrcurveto
            5 -125 1 -78 0 -113 0 -91 -1 -96 -3 -112 -100 -105 -138 -78 -130 0 -201 0 -105 116 0 250 0 163 45 199 85 95 32 36 18 42 0 38 rrcurveto
            62 -34 51 -85 vhcurveto
            -41 0 -40 -15 -34 -14 -25 -10 -29 -12 -22 -3 -88 -18 -54 -15 0 -81 0 -30 0 -82 102 0 12 0 12 2 13 4 -61 -132 -26 -156 0 -124 rrcurveto
            return
          </CharString>
          <CharString index="94">
            52 -120 37 -47 65 0 80 0 25 62 23 73 46 155 65 139 55 143 56 -136 45 -133 52 -130 48 -115 47 -58 55 0 91 0 15 52 26 82 rrcurveto
            8 30 10 32 18 41 57 132 75 193 62 162 51 132 45 119 15 32 24 50 41 37 0 60 0 52 -48 55 -72 0 -106 0 -30 -123 -18 -79 rrcurveto
            -261 -701 -194 484 99 225 rlineto
            14 25 16 28 0 34 0 68 -57 39 -53 0 -71 0 -35 -61 -23 -57 rrcurveto
            -5 -14 rlineto
            -4 9 -2 4 -2 8 -21 57 -22 54 -75 0 -56 0 -53 -42 0 -72 0 -30 11 -42 23 -40 33 -62 28 -65 26 -63 -33 -85 -30 -87 -33 -92 rrcurveto
            -29 -80 -24 -70 -28 -73 -115 281 -96 263 -114 258 -24 63 -12 38 -75 0 -53 0 -66 -37 0 -72 0 -29 20 -55 23 -38 rrcurveto
            1 vlineto
            50 -88 115 -281 193 -495 rrcurveto
            return
          </CharString>
          <CharString index="95">
            -161 238 -116 251 348 244 125 446 vhcurveto
            0 73 -6 57 0 58 4 808 1 2 0 1 2 12 2 17 0 16 0 116 -80 0 -29 0 -20 0 -42 -9 -28 -15 rrcurveto
            1 1 -155 -44 rlineto
            -74 -12 -32 -40 0 -64 0 -76 61 -24 55 0 24 0 56 15 39 13 rrcurveto
            0 -608 0 -23 rlineto
            -65 -111 -108 -53 -173 0 -196 0 -175 105 0 305 0 164 102 236 113 45 37 27 8 36 0 31 0 61 -46 40 -55 0 -34 0 -32 -10 -44 -13 rrcurveto
            return
          </CharString>
          <CharString index="96">
            -33 -10 -47 -14 -50 -11 -128 -27 -39 -38 0 -70 0 -43 46 -53 61 0 7 0 6 0 6 1 -69 -119 -30 -151 0 -90 0 -452 279 -161 317 0 rrcurveto
            162 0 109 53 73 68 rrcurveto
            return
          </CharString>
          <CharString index="97">
            0 -3 1 -3 0 -2 -8 -286 -150 -84 -206 0 -111 0 -91 13 -79 98 -24 28 -32 40 -41 0 rrcurveto
            -87 -34 -72 -43 hvcurveto
            return
          </CharString>
          <CharString index="98">
            -53 28 -68 143 vhcurveto
            667 9 rlineto
            12 -13 13 -10 15 -7 64 -26 58 26 20 47 rrcurveto
            15 39 rlineto
            return
          </CharString>
          <CharString index="99">
            5 11 4 12 3 14 6 19 6 19 6 16 rrcurveto
            return
          </CharString>
          <CharString index="100">
            31 72 27 25 28 63 24 59 -44 45 -54 23 -85 35 -46 -23 -18 -41 -25 -58 -14 -59 -19 -55 -29 -8 -25 -11 -20 -3 rrcurveto
            return
          </CharString>
          <CharString index="101">
            -57 -10 -215 -10 -245 1 185 224 282 260 168 231 48 71 43 69 0 45 rrcurveto
            90 -60 31 -68 vhcurveto
            -663 hlineto
            -11 0 -10 -1 -9 -1 -22 20 -31 12 -30 0 -93 0 -34 -60 0 -44 0 -77 14 -19 0 -70 rrcurveto
            return
          </CharString>
          <CharString index="102">
            0 -43 -5 -19 0 -39 rrcurveto
            -55 62 -47 52 70 43 48 50 vhcurveto
            0 44 -8 45 0 37 rrcurveto
            10 hlineto
            79 0 153 3 155 4 rrcurveto
            104 3 rlineto
            -136 -202 -295 -292 -243 -294 rrcurveto
            -26 -25 -3 -35 0 -44 rrcurveto
            return
          </CharString>
          <CharString index="103">
            54 0 45 31 8 55 11 76 23 77 65 0 75 0 46 -48 52 -54 77 -78 90 -92 200 0 166 0 140 136 4 191 2 75 -46 49 -75 0 rrcurveto
            -71 0 -42 -52 -6 -71 -5 -69 -40 -49 -48 0 -89 0 -59 58 -60 60 -73 74 -81 79 -157 0 rrcurveto
            -179 -147 -143 -193 -74 65 -38 55 hvcurveto
            return
          </CharString>
          <CharString index="104">
            71 117 124 69 hvcurveto
            1 vlineto
            63 -47 58 -61 -71 -118 -125 -84 -63 60 -43 49 vhcurveto
            return
          </CharString>
          <CharString index="105">
            -517 364 -402 573 671 229 451 481 511 -274 455 -665 -583 -315 -439 -540 vhcurveto
            return
          </CharString>
          <CharString index="106">
            450 202 353 487 459 255 -319 -475 -429 -260 -308 -395 -504 -244 300 428 vhcurveto
            return
          </CharString>
          <CharString index="107">
            191 -96 165 -121 194 -94 rrcurveto
            -1 hlineto
            26 -17 26 -16 45 0 69 0 34 57 0 54 0 77 -74 34 -29 6 rrcurveto
            -377 213 rlineto
            167 92 109 60 116 48 46 20 41 34 0 72 0 57 -52 47 -49 0 -41 0 -45 -28 -15 -15 rrcurveto
            2 hlineto
            -287 -150 -124 -61 -102 -48 -58 -17 -28 -20 0 -67 0 -42 14 -63 37 -16 rrcurveto
            return
          </CharString>
          <CharString index="108">
            624 -2 rlineto
            44 63 18 86 67 -44 37 -54 hvcurveto
            -13 0 -14 -3 -9 -1 rrcurveto
            -270 hlineto
            161 125 172 179 0 198 0 217 -170 124 -209 0 -92 0 -143 -42 -72 -85 -45 -55 -45 -76 0 -69 rrcurveto
            -57 27 -138 121 47 61 36 61 vhcurveto
            0 37 -29 27 0 34 rrcurveto
            79 83 46 84 77 77 -48 -90 vhcurveto
            0 -208 -324 -155 -180 -168 -29 -27 -10 -28 0 -21 rrcurveto
            -57 44 -41 67 vhcurveto
            return
          </CharString>
          <CharString index="109">
            0 -68 -1 -68 -4 -297 rrcurveto
            -58 46 -38 73 92 23 67 36 vhcurveto
            0 14 -2 10 -2 11 rrcurveto
            return
          </CharString>
          <CharString index="110">
            -5 22 -6 34 0 73 2 212 -1 3 0 4 rrcurveto
            2 vlineto
            74 -48 76 -26 131 0 95 0 147 35 86 68 4 -50 31 -59 74 0 124 4 9 60 0 69 rrcurveto
            return
          </CharString>
          <CharString index="111">
            0 27 -2 14 -2 12 -2 12 -1 11 0 16 0 318 -7 279 0 278 0 87 0 45 -95 0 -11 0 -14 -3 -37 -9 -44 -9 -39 -13 -43 -7 rrcurveto
            -88 -17 -52 -10 0 -78 0 -76 53 -45 54 0 20 0 40 6 41 12 5 -118 1 -68 0 -109 0 -94 -2 -119 -3 -115 -73 -86 -123 -62 -141 0 rrcurveto
            -238 -49 126 208 hvcurveto
            return
          </CharString>
          <CharString index="112">
            0 159 44 209 85 93 32 35 19 42 0 37 0 61 -25 50 -85 0 -28 0 -24 -6 -10 -4 -56 -20 -38 -11 -45 -12 -87 -19 -55 -13 0 -79 rrcurveto
            -30 0 -80 102 vhcurveto
            10 0 15 3 14 4 -61 -131 -27 -166 0 -122 rrcurveto
            5 -294 rlineto
            1 -44 0 -43 0 -44 rrcurveto
            return
          </CharString>
          <CharString index="113">
            90 22 50 90 hvcurveto
            0 90 -1 93 -1 90 -1 86 0 85 0 78 0 119 1 106 3 79 -3 73 -51 15 -54 0 -57 0 -38 -27 -21 -13 -106 -43 -49 -21 -13 -3 rrcurveto
            -52 -19 -72 -22 0 -83 0 -53 36 -62 74 0 30 0 26 15 32 18 28 17 22 14 37 18 -2 -238 -6 -219 0 -221 rrcurveto
            -72 36 -40 90 vhcurveto
            return
          </CharString>
          <CharString index="114">
            37 16 14 63 0 42 0 67 -28 20 -58 17 -102 48 -124 61 -287 150 rrcurveto
            2 hlineto
            -15 15 -45 28 -41 0 -49 0 -52 -47 0 -57 0 -72 41 -34 46 -20 116 -48 109 -60 167 -92 rrcurveto
            -377 -213 rlineto
            -29 -6 -74 -34 0 -77 0 -54 34 -57 69 0 45 0 26 16 26 17 rrcurveto
            -1 hlineto
            194 94 165 121 191 96 rrcurveto
            return
          </CharString>
          <CharString index="115">
            444 3 rlineto
            0 -49 1 -46 0 -44 rrcurveto
            return
          </CharString>
          <CharString index="116">
            -52 45 -50 84 vhcurveto
            71 0 13 49 13 47 rrcurveto
            0 -1 553 1312 rlineto
            10 23 9 35 0 21 0 68 -66 34 -50 0 -68 0 -18 -53 -19 -53 -6 -18 -81 -194 -460 -1077 rrcurveto
            1 1 rlineto
            -17 -25 -14 -35 0 -32 rrcurveto
            return
          </CharString>
          <CharString index="117">
            -69 54 -37 71 vhcurveto
            107 0 15 60 16 58 rrcurveto
            -1 vlineto
            22 67 61 154 74 180 14 0 14 1 14 1 190 8 154 -7 153 0 48 -2 41 -1 21 0 57 -128 53 -121 74 -162 7 -59 50 -48 72 0 rrcurveto
            65 52 31 80 hvcurveto
            0 54 -40 54 -22 30 rrcurveto
            -19 28 rlineto
            -184 397 -152 371 -180 356 -8 15 -10 30 -10 30 -23 70 -19 57 -95 0 -74 0 -38 -62 -9 -59 -115 -229 -366 -864 -93 -153 rrcurveto
            -32 -44 -10 -43 0 -43 rrcurveto
            return
          </CharString>
          <CharString index="118">
            66 48 43 76 hvcurveto
            0 47 -55 46 -22 9 -46 39 -58 57 -31 33 -42 48 -37 7 -26 0 -56 0 -51 -55 0 -45 1 -40 7 -30 44 -36 36 -29 2 -7 55 -51 rrcurveto
            11 -9 14 -16 10 -11 rrcurveto
            32 -37 38 -39 60 0 rrcurveto
            return
          </CharString>
          <CharString index="119">
            59 0 38 39 32 37 10 11 14 16 11 9 55 51 2 7 36 29 45 36 6 30 1 40 0 45 -51 55 -55 0 -27 0 -37 -7 -42 -48 rrcurveto
            -31 -33 -57 -57 -47 -39 -22 -9 -55 -46 0 -47 rrcurveto
            -76 48 -43 67 vhcurveto
            return
          </CharString>
          <CharString index="120">
            55 0 27 19 23 21 59 55 32 28 54 32 59 -39 39 -36 63 -53 22 -17 45 -17 27 0 62 0 47 33 0 56 0 55 -23 36 -71 39 rrcurveto
            -33 17 -74 58 -39 39 -38 38 -36 24 -47 0 -44 0 -39 -12 -44 -43 -36 -34 -62 -52 -48 -31 -56 -36 -22 -43 0 -54 rrcurveto
            -44 37 -39 61 vhcurveto
            return
          </CharString>
          <CharString index="121">
            71 0 27 47 7 48 rrcurveto
            return
          </CharString>
          <CharString index="122">
            5 33 29 42 32 0 55 0 81 -119 56 -31 34 -20 65 -17 51 0 rrcurveto
            184 83 124 115 87 -51 34 -58 hvcurveto
            -85 0 -17 -58 -9 -46 rrcurveto
            return
          </CharString>
          <CharString index="123">
            -6 -30 -30 -27 -30 0 -36 0 -25 30 -40 37 -57 51 -69 60 -106 0 rrcurveto
            -150 -112 -106 -128 hvcurveto
            -79 38 -47 63 vhcurveto
            return
          </CharString>
          <CharString index="124">
            70 109 134 70 56 -57 59 -62 -70 -100 -128 -86 hvcurveto
            -63 61 -42 49 vhcurveto
            return
          </CharString>
          <CharString index="125">
            70 117 123 70 hvcurveto
            1 vlineto
            63 -46 57 -62 -71 -118 -124 -85 -62 61 -43 49 vhcurveto
            return
          </CharString>
          <CharString index="126">
            -68 -78 28 88 124 101 18 52 68 60 -45 -103 -79 -80 -31 -55 hvcurveto
            return
          </CharString>
          <CharString index="127">
            94 -1 17 52 32 91 37 81 85 141 102 156 179 6 71 3 70 0 42 0 38 -1 41 -2 rrcurveto
            7 -308 rlineto
            -19 -17 -3 -36 0 -26 0 -76 51 -36 67 1 rrcurveto
            691 hlineto
            188 2 -3 56 0 53 0 85 -50 23 -69 0 -65 0 -56 -29 -62 0 rrcurveto
            return
          </CharString>
          <CharString index="128">
            -449 hlineto
            -2 28 -3 19 0 571 rrcurveto
            573 1 rlineto
            74 52 33 71 45 -40 65 -72 hvcurveto
            -56 0 -47 -9 -47 0 -33 0 -308 0 -96 1 rrcurveto
            -6 319 483 1 rlineto
            59 1 65 1 0 111 rrcurveto
            70 -19 27 -164 vhcurveto
            -467 hlineto
            -19 4 -43 5 -16 0 -82 0 -55 -36 -33 -66 rrcurveto
            return
          </CharString>
          <CharString index="129">
            -185 -311 -516 -791 -110 -139 -36 -42 -17 -29 0 -50 rrcurveto
            -74 60 -44 70 vhcurveto
            return
          </CharString>
          <CharString index="130">
            99 150 99 140 92 143 rrcurveto
            9 -429 rlineto
            return
          </CharString>
          <CharString index="131">
            -47 -63 -22 -77 -77 98 -59 116 187 131 105 162 97 -113 130 -92 -51 -33 -49 -21 hvcurveto
            -2 -98 76 28 0 -95 0 -44 -31 -18 -53 0 rrcurveto
            -46 0 -32 38 -45 0 rrcurveto
            return
          </CharString>
          <CharString index="132">
            -70 31 -39 106 92 25 46 65 vhcurveto
            0 19 -2 17 -3 20 rrcurveto
            -1 vlineto
            -14 183 -4 344 0 305 0 170 2 128 2 114 4 24 5 21 0 23 rrcurveto
            75 -37 50 -60 -121 -32 -57 -70 vhcurveto
            0 -44 12 -37 0 -37 0 -363 9 -340 0 -340 rrcurveto
            0 -74 -15 -65 0 -67 rrcurveto
            return
          </CharString>
          <CharString index="133">
            -76 32 -37 81 vhcurveto
            106 0 100 -23 100 0 rrcurveto
            return
          </CharString>
          <CharString index="134">
            648 196 510 341 382 -203 360 -590 hvcurveto
            -95 0 -92 -15 -93 0 -43 0 -36 15 -38 0 -76 0 -28 -45 0 -57 0 -24 13 -37 15 -28 4 -164 3 -164 2 -162 -85 -1 -55 -9 0 -82 rrcurveto
            -108 52 -4 47 vhcurveto
            42 hlineto
            1 -127 0 -127 0 -125 rrcurveto
            0 -79 -8 -53 0 -61 rrcurveto
            return
          </CharString>
          <CharString index="135">
            -3 465 rlineto
            109 -2 107 -2 107 0 rrcurveto
            59 39 29 76 92 -68 25 -37 hvcurveto
            -25 0 -23 -11 -23 0 -13 0 -35 0 -198 1 rrcurveto
            -2 449 rlineto
            61 4 104 5 51 0 rrcurveto
            386 214 -129 -444 -169 -106 -407 -496 hvcurveto
            -39 0 -113 3 -56 15 rrcurveto
            return
          </CharString>
          <CharString index="136">
            -450 273 -352 425 426 272 352 450 474 -243 327 -447 vhcurveto
            -425 -281 -327 -474 hvcurveto
            return
          </CharString>
          <CharString index="137">
            -53 48 -46 71 92 25 49 54 vhcurveto
            0 200 -27 236 17 154 91 169 171 256 162 254 48 45 8 46 0 24 0 96 -65 20 -58 0 -66 0 -27 -59 -28 -70 rrcurveto
            1 hlineto
            -53 -102 -114 -181 -148 -229 rrcurveto
            -31 -53 -32 53 rlineto
            -107 171 -120 152 -87 175 -27 66 -41 77 -58 0 -74 0 -51 -40 0 -75 0 -32 25 -40 35 -50 112 -161 119 -182 195 -328 rrcurveto
            9 -432 -15 -18 0 -146 rrcurveto
            return
          </CharString>
          <CharString index="138">
            30 0 33 8 49 45 63 61 90 83 60 52 rrcurveto
            -1 -1 rlineto
            22 8 55 45 0 48 0 75 -55 44 -67 0 -56 0 -29 -29 -49 -50 rrcurveto
            0 1 -108 -106 rlineto
            -53 -45 -88 -75 0 -64 rrcurveto
            -47 50 -53 54 vhcurveto
            return
          </CharString>
          <CharString index="139">
            53 0 30 21 21 21 56 53 92 68 50 33 61 -40 85 -72 54 -50 21 -20 47 -16 26 0 61 0 49 35 0 56 0 53 -34 41 -60 36 rrcurveto
            -35 21 -110 89 -41 40 -38 36 -36 25 -46 0 -46 0 -39 -11 -44 -42 -56 -55 -49 -32 -96 -75 -55 -43 -20 -21 0 -57 rrcurveto
            -56 37 -38 62 vhcurveto
            return
          </CharString>
          <CharString index="140">
            67 0 16 48 15 43 rrcurveto
            return
          </CharString>
          <CharString index="141">
            12 34 11 35 40 0 50 0 91 -109 51 -31 35 -20 65 -17 50 0 rrcurveto
            184 74 133 115 88 -52 28 -56 hvcurveto
            -80 0 -14 -50 -10 -44 rrcurveto
            return
          </CharString>
          <CharString index="142">
            -7 -29 -10 -32 -38 0 -36 0 -35 29 -40 37 -57 51 -69 60 -106 0 rrcurveto
            -150 -102 -115 -129 hvcurveto
            -79 38 -46 63 vhcurveto
            return
          </CharString>
          <CharString index="143">
            69 109 135 70 54 -57 61 -61 -71 -100 -129 -85 hvcurveto
            -65 61 -41 50 vhcurveto
            return
          </CharString>
          <CharString index="144">
            170 162 104 199 171 -121 156 -187 -170 -182 -74 -246 hvcurveto
            -208 139 -102 189 vhcurveto
            return
          </CharString>
          <CharString index="145">
            -66 -79 40 88 125 101 25 52 70 61 -52 -104 -79 -83 -43 -56 hvcurveto
            return
          </CharString>
          <CharString index="146">
            -203 198 -141 227 vhcurveto
            259 0 211 88 119 140 102 -132 157 -96 197 0 147 0 267 50 100 220 4 9 2 10 0 16 0 47 -37 53 -63 0 -35 0 -38 -24 -28 -37 rrcurveto
            -55 -73 -55 -53 -195 0 -102 0 -241 78 -44 242 287 10 376 18 181 18 84 10 30 46 0 55 rrcurveto
            return
          </CharString>
          <CharString index="147">
            0 44 -20 41 -18 24 -32 217 -189 224 -279 0 -223 0 -154 -86 -115 -142 -59 151 -188 76 -218 0 -173 0 -139 -41 -123 -63 -38 -22 -19 -53 0 -28 rrcurveto
            -49 46 -66 57 vhcurveto
            return
          </CharString>
          <CharString index="148">
            14 0 12 3 12 8 99 55 86 38 161 1 rrcurveto
            207 120 -103 -144 hvcurveto
            -44 vlineto
            -92 1 -215 0 -38 0 rrcurveto
            -357 -180 -120 -273 hvcurveto
            return
          </CharString>
          <CharString index="149">
            48 162 134 128 221 0 164 0 107 -125 20 -128 -147 -15 -220 -7 -327 -15 rrcurveto
            return
          </CharString>
          <CharString index="150">
            152 121 37 276 vhcurveto
            58 0 53 -1 27 0 45 -1 46 0 32 0 4 -33 7 -34 10 -33 rrcurveto
            return
          </CharString>
          <CharString index="151">
            -19 -12 -17 -18 -13 -25 rrcurveto
            1 vlineto
            -59 -86 -143 -83 -196 0 rrcurveto
            -98 -134 41 95 hvcurveto
            return
          </CharString>
          <CharString index="152">
            281 65 269 47 269 68 61 15 46 39 0 59 0 36 -13 41 -26 22 -48 229 -197 160 -257 0 rrcurveto
            -357 -271 -255 -394 -272 189 -340 396 hvcurveto
            223 0 164 90 111 103 51 46 15 41 0 25 0 66 -39 43 -66 0 -35 0 -45 -35 -26 -40 -29 -42 -114 -82 -209 0 rrcurveto
            -133 0 -158 66 -52 199 rrcurveto
            return
          </CharString>
          <CharString index="153">
            -65 37 -39 78 vhcurveto
            35 0 92 23 81 22 69 21 45 35 -9 63 -10 49 -14 33 -69 0 -46 0 -21 -22 -43 -3 -4 278 6 241 0 241 0 59 14 52 0 54 rrcurveto
            63 -27 39 -68 vhcurveto
            -44 0 -51 -7 -49 0 -48 0 -50 7 -51 0 rrcurveto
            -52 -44 -38 -70 -80 58 -28 47 hvcurveto
            40 0 67 2 40 3 5 -263 1 -227 0 -239 rrcurveto
            0 -127 -15 -10 0 -67 rrcurveto
            return
          </CharString>
          <CharString index="154">
            -380 284 -252 337 336 285 252 380 347 -245 282 -376 vhcurveto
            -344 -277 -282 -347 hvcurveto
            return
          </CharString>
          <CharString index="155">
            -374 175 -201 346 vhcurveto
            101 0 141 40 122 106 -2 -13 -3 -6 0 -15 0 -42 27 -70 80 0 125 4 9 39 0 71 0 43 -7 35 0 36 0 258 -6 219 0 219 rrcurveto
            -1 76 0 63 0 38 0 89 0 71 -95 0 -61 0 -49 -35 -55 -9 -99 -20 -64 -11 0 -84 0 -77 52 -37 55 0 19 0 41 7 41 12 rrcurveto
            5 -125 1 -78 0 -113 0 -91 -1 -96 -3 -112 -100 -105 -138 -78 -130 0 -201 0 -105 116 0 250 0 163 45 199 85 95 32 36 18 42 0 38 rrcurveto
            62 -34 51 -85 vhcurveto
            -41 0 -40 -15 -34 -14 -25 -10 -29 -12 -22 -3 -88 -18 -54 -15 0 -81 0 -30 0 -82 102 0 12 0 12 2 13 4 rrcurveto
            -61 -132 -26 -156 0 -124 rrcurveto
            return
          </CharString>
          <CharString index="156">
            213 6 204 -5 129 -1 60 0 60 15 0 88 0 99 -58 8 -65 -5 -111 -9 -280 -1 -146 0 -85 0 -55 -31 0 -58 rrcurveto
            0 -90 65 -18 69 2 rrcurveto
            return
          </CharString>
          <CharString index="157">
            73 0 66 9 67 0 123 0 109 -9 108 0 rrcurveto
            34 86 16 88 99 -58 3 -65 hvcurveto
            -93 0 -87 -18 -88 0 -96 0 -87 8 -86 0 rrcurveto
            -85 -55 -31 -59 hvcurveto
            -89 65 -17 69 vhcurveto
            return
          </CharString>
          <CharString index="158">
            157 189 103 187 64 -48 27 -47 hvcurveto
            -45 0 -33 -30 -8 -52 -13 -81 -63 -45 -86 0 -90 0 -65 45 -14 81 -8 51 -32 31 -47 0 rrcurveto
            -43 -50 -26 -59 hvcurveto
            -190 183 -106 163 vhcurveto
            return
          </CharString>
          <CharString index="159">
            158 191 113 186 64 -47 27 -46 hvcurveto
            -42 0 -37 -36 -12 -46 -19 -78 -60 -59 -82 0 -92 0 -64 56 -13 81 -9 51 -32 31 -48 0 rrcurveto
            -43 -50 -25 -59 hvcurveto
            -191 186 -115 161 vhcurveto
            return
          </CharString>
          <CharString index="160">
            99 20 84 81 hvcurveto
            2 13 1 16 0 12 rrcurveto
            64 -30 50 -79 -73 -39 -56 -67 vhcurveto
            0 -61 -11 -62 31 -39 20 -26 31 -9 28 0 rrcurveto
            return
          </CharString>
          <CharString index="161">
            32 0 31 9 17 15 31 26 4 18 5 61 3 29 4 23 0 25 0 68 -36 46 -79 0 -26 0 -29 -8 -22 -17 -30 -24 -9 -31 0 -43 rrcurveto
            0 -11 0 -21 1 -51 -1 -29 0 -25 20 -25 rrcurveto
            20 -26 34 -9 30 0 rrcurveto
            return
          </CharString>
          <CharString index="162">
            53 0 62 57 63 57 41 35 38 33 34 19 58 34 37 26 0 55 0 54 -49 45 -61 0 -26 0 -41 0 -27 -36 -53 -51 -69 -53 -61 -41 rrcurveto
            -185 137 rlineto
            -22 22 -28 22 -54 0 -63 0 -36 -40 0 -56 0 -52 18 -15 45 -37 rrcurveto
            196 -161 rlineto
            42 -41 43 -13 45 0 rrcurveto
            return
          </CharString>
          <CharString index="163">
            52 0 25 21 31 25 49 44 115 103 33 17 65 37 30 40 0 55 0 55 -49 44 -61 0 -26 0 -48 -14 -20 -22 -54 -50 -84 -70 -61 -42 rrcurveto
            -65 55 -73 43 -61 57 -23 20 -27 21 -54 0 -62 0 -37 -38 0 -55 0 -56 21 -31 54 -45 72 -58 71 -44 60 -57 rrcurveto
            43 -43 39 -12 45 0 rrcurveto
            return
          </CharString>
          <CharString index="164">
            65 0 46 77 16 42 38 108 17 82 0 89 rrcurveto
            71 -6 88 -100 -93 -24 -50 -66 vhcurveto
            0 -35 2 -20 0 -21 0 -67 3 -71 -38 -50 -16 -22 -12 -26 0 -33 rrcurveto
            -64 49 -32 53 vhcurveto
            return
          </CharString>
          <CharString index="165">
            99 20 84 81 hvcurveto
            2 13 1 16 0 12 rrcurveto
            64 -30 50 -79 -73 -39 -56 -67 vhcurveto
            0 -61 -11 -62 31 -39 rrcurveto
            20 -26 31 -9 28 0 rrcurveto
            return
          </CharString>
          <CharString index="166">
            0 -30 5 -26 0 -25 0 -77 -74 -8 0 -79 rrcurveto
            -59 29 -30 60 107 106 142 120 90 -5 93 -110 vhcurveto
            -81 -37 -48 -63 hvcurveto
            return
          </CharString>
          <CharString index="167">
            51 22 5 25 8 43 4 21 2 28 10 23 14 33 16 58 -4 27 -2 14 -6 23 -6 14 -20 45 -45 11 -47 -8 -63 -9 -32 -44 -4 -59 rrcurveto
            -4 -54 -40 -82 8 -52 rrcurveto
            12 -74 78 -34 65 29 rrcurveto
            return
          </CharString>
          <CharString index="168">
            -51 -17 -33 -30 0 -54 0 -86 52 -30 66 0 31 0 28 10 43 30 rrcurveto
            return
          </CharString>
          <CharString index="169">
            97 38 97 51 117 58 rrcurveto
            -1 vlineto
            47 21 16 47 0 50 -4 62 -6 53 0 53 -6 506 -2 210 0 296 0 55 10 47 0 49 0 37 -8 66 -96 0 -73 0 -57 -4 -57 0 rrcurveto
            -51 -2 -14 7 -40 0 rrcurveto
            -53 -44 -39 -68 -83 59 -25 48 hvcurveto
            14 0 68 2 66 5 12 -215 6 -389 0 -353 0 -86 2 -77 1 -72 rrcurveto
            -169 -87 -89 -27 -27 -8 rrcurveto
            return
          </CharString>
          <CharString index="170">
            -60 35 -72 85 vhcurveto
            29 0 20 3 45 14 rrcurveto
            100 26 rlineto
            75 18 43 30 0 60 0 74 -36 36 -69 0 -24 0 -30 -8 -54 -16 rrcurveto
            1311 vlineto
            2 54 22 49 0 52 0 73 -39 35 -56 0 -82 0 -27 -8 -75 0 -51 0 -44 8 -46 0 rrcurveto
            -51 -44 -38 -70 -80 58 -29 47 hvcurveto
            56 0 53 7 52 1 8 -475 5 -570 0 -122 0 -59 -2 -65 -2 -48 rrcurveto
            -2 -46 -1 -42 0 -43 rrcurveto
            return
          </CharString>
          <CharString index="171">
            112 29 123 56 99 -75 53 -59 -102 -46 -72 -102 hvcurveto
            -58 51 -99 90 vhcurveto
            return
          </CharString>
          <CharString index="172">
            50 -1 79 75 61 58 35 32 28 26 29 23 42 35 30 23 0 51 0 66 -38 27 -62 0 -40 0 -39 -36 -54 -61 rrcurveto
            -107 -98 rlineto
            -50 -47 -44 -44 0 -39 rrcurveto
            -81 47 -9 33 vhcurveto
            return
          </CharString>
          <CharString index="173">
            50 1 71 68 57 57 44 44 38 29 33 33 23 23 29 27 -2 47 -1 66 -39 25 -64 -1 -39 -1 -41 -44 -50 -59 rrcurveto
            -115 -112 rlineto
            -46 -46 -33 -29 1 -42 2 -81 52 -6 30 1 rrcurveto
            return
          </CharString>
          <CharString index="174">
            61 0 157 152 98 98 28 24 38 35 0 51 0 57 -38 32 -62 0 -40 0 -40 -36 -54 -61 rrcurveto
            -144 -132 rlineto
            -54 -50 -37 -40 0 -40 rrcurveto
            -81 55 -9 32 vhcurveto
            return
          </CharString>
          <CharString index="175">
            58 0 108 104 156 154 25 23 31 33 0 49 0 57 -38 28 -64 0 -40 0 -40 -39 -51 -62 rrcurveto
            -143 -132 rlineto
            -49 -46 -41 -41 0 -40 0 -81 56 -7 32 0 rrcurveto
            return
          </CharString>
          <CharString index="176">
            -119 237 -169 279 199 295 56 299 vhcurveto
            0 259 -247 69 -216 59 -158 43 -141 41 0 106 0 83 101 53 136 0 rrcurveto
            return
          </CharString>
          <CharString index="177">
            140 0 87 -57 43 -36 16 -43 45 -40 54 0 58 0 45 25 0 63 rrcurveto
            return
          </CharString>
          <CharString index="178">
            0 15 -2 21 -7 16 0 65 6 53 0 51 0 64 -38 22 -65 0 -53 0 -33 -46 -11 -41 -81 33 -74 28 -123 0 -214 0 -252 -89 0 -239 rrcurveto
            0 -269 247 -69 210 -52 154 -39 154 -42 0 -122 0 -90 -116 -50 -136 0 -165 0 -100 45 -53 80 -26 37 -20 29 -61 0 rrcurveto
            -50 -64 -42 -61 hvcurveto
            return
          </CharString>
          <CharString index="179">
            -91 63 -27 81 vhcurveto
            58 0 10 0 52 8 rrcurveto
            return
          </CharString>
          <CharString index="180">
            876 -1 rlineto
            7 -1 11 -1 8 0 78 0 70 45 0 77 1 35 -20 48 -16 35 -60 111 -331 736 -191 457 -17 48 -57 29 -41 0 -43 0 -55 -29 -17 -46 rrcurveto
            -485 -1151 rlineto
            -13 -23 -42 -77 0 -65 0 -64 31 -32 42 -11 rrcurveto
            return
          </CharString>
          <CharString index="181">
            113 269 95 206 213 549 69 -168 75 -140 306 -715 rrcurveto
            return
          </CharString>
          <CharString index="182">
            12 -11 18 -8 20 -5 12 -3 13 -1 14 0 rrcurveto
            399 hlineto
            70 0 37 40 3 58 7 145 -68 108 -92 109 -108 125 -116 139 0 231 rrcurveto
            277 186 165 286 285 169 -165 -277 vhcurveto
            0 -229 -119 -137 -106 -125 -89 -106 -53 -95 0 -134 rrcurveto
            -78 40 -51 72 vhcurveto
            372 hlineto
            37 1 45 0 22 17 40 31 25 55 0 76 rrcurveto
            6 vlineto
            39 2 117 -114 vhcurveto
            -78 0 -30 -74 -11 -69 rrcurveto
            -206 hlineto
            20 62 59 67 55 61 111 119 135 151 0 281 rrcurveto
            429 -274 227 -407 -408 -294 -227 -429 vhcurveto
            0 -282 127 -140 107 -119 61 -65 52 -65 23 -70 rrcurveto
            -198 hlineto
            -11 69 -31 74 -77 0 -114 0 2 -117 0 -39 0 -82 24 -46 42 -30 rrcurveto
            return
          </CharString>
          <CharString index="183">
            72 69 57 82 hvcurveto
            0 17 1 69 -58 37 -8 89 83 57 0 84 rrcurveto
            44 -31 35 -67 -122 -100 -275 -109 -107 62 -80 99 vhcurveto
            return
          </CharString>
          <CharString index="184">
            -72 -69 -57 -82 hvcurveto
            0 -17 -1 -69 58 -37 8 -89 -83 -57 0 -84 rrcurveto
            -44 31 -35 67 122 100 275 109 107 -62 80 -99 vhcurveto
            return
          </CharString>
          <CharString index="185">
            -72 -69 -57 -82 hvcurveto
            0 -17 -1 -69 58 -37 8 -89 -83 -57 0 -84 rrcurveto
            -44 31 -35 67 122 100 275 109 vhcurveto
            107 -62 80 -99 vhcurveto
            return
          </CharString>
        <CharString name=".notdef">
          endchar
        </CharString>
        <CharString name=".null">
          endchar
        </CharString>
        <CharString name="A">
          76 -8 -21 524 212 867 -20 hstem
          35 1499 vstem
          35 77 rmoveto
          -69 54 -37 71 vhcurveto
          107 0 15 60 16 58 rrcurveto
          -1 vlineto
          22 67 61 154 74 180 14 0 14 1 14 1 190 8 154 -7 153 0 48 -2 41 -1 21 0 57 -128 53 -121 74 -162 7 -59 50 -48 72 0 rrcurveto
          65 52 31 80 hvcurveto
          0 54 -40 54 -22 30 rrcurveto
          -19 28 rlineto
          -184 397 -152 371 -180 356 -8 15 -10 30 -10 30 -23 70 -19 57 -95 0 -74 0 -38 -62 -9 -59 -115 -229 -366 -864 -93 -153 -32 -44 -10 -43 0 -43 rrcurveto
          511 630 rmoveto
          -98 callsubr
          endchar
        </CharString>
        <CharString name="AE">
          503 -7 -21 28 190 311 210 98 205 320 210 hstemhm
          870 227 -216 219 hintmask 01111010
          70 -28 rmoveto
          20 callsubr
          hintmask 10111100
          21 callsubr
          hintmask 01111010
          22 callsubr
          506 737 rmoveto
          23 callsubr
          endchar
        </CharString>
        <CharString name="AEacute">
          503 -7 -21 28 190 311 210 98 205 320 210 61 405 hstemhm
          870 227 -216 219 -133 424 hintmask 0111100100000000
          70 -28 rmoveto
          20 callsubr
          hintmask 1011101000000000
          21 callsubr
          hintmask 0111100100000000
          22 callsubr
          506 737 rmoveto
          23 callsubr
          hintmask 0000010010000000
          207 892 rmoveto
          12 callsubr
          endchar
        </CharString>
        <CharString name="Aacute">
          76 -8 -21 524 212 867 -20 51 405 hstemhm
          35 1499 -865 424 hintmask 11101000
          35 77 rmoveto
          10 callsubr
          511 630 rmoveto
          -98 callsubr
          hintmask 00010100
          238 898 rmoveto
          12 callsubr
          endchar
        </CharString>
        <CharString name="Abreve">
          76 -8 -21 524 212 867 -20 262 -21 hstemhm
          35 1499 -1071 692 hintmask 11101000
          35 77 rmoveto
          10 callsubr
          511 630 rmoveto
          -98 callsubr
          hintmask 00010100
          263 915 rmoveto
          51 callsubr
          endchar
        </CharString>
        <CharString name="Acircumflex">
          76 -8 -21 524 212 867 -20 244 -21 hstemhm
          35 1499 -1086 712 hintmask 11101000
          35 77 rmoveto
          10 callsubr
          511 630 rmoveto
          -98 callsubr
          hintmask 00010100
          915 vmoveto
          13 callsubr
          endchar
        </CharString>
        <CharString name="Adieresis">
          76 -8 -21 524 212 867 -20 88 326 hstemhm
          35 1499 -1117 734 hintmask 11101000
          35 77 rmoveto
          10 callsubr
          511 630 rmoveto
          -98 callsubr
          hintmask 00010100
          -19 942 rmoveto
          17 callsubr
          437 -7 rmoveto
          18 callsubr
          endchar
        </CharString>
        <CharString name="Agrave">
          76 -8 -21 524 212 867 -20 51 405 hstemhm
          35 1499 -1051 424 hintmask 11101000
          35 77 rmoveto
          10 callsubr
          511 630 rmoveto
          -98 callsubr
          hintmask 00010100
          247 898 rmoveto
          11 callsubr
          endchar
        </CharString>
        <CharString name="Amacron">
          76 -8 -21 524 212 867 -20 83 192 hstemhm
          35 1499 -1167 800 hintmask 11101000
          35 77 rmoveto
          10 callsubr
          511 630 rmoveto
          -98 callsubr
          hintmask 00010100
          -45 927 rmoveto
          49 callsubr
          endchar
        </CharString>
        <CharString name="Aogonek">
          92 -501 203 290 -21 46 -21 499 212 867 -20 hstem
          923 229 vstem
          35 77 rmoveto
          -69 54 -37 71 vhcurveto
          107 0 15 60 16 58 rrcurveto
          -1 vlineto
          22 67 61 154 74 180 14 0 14 1 14 1 190 8 154 -7 153 0 48 -2 41 -1 21 0 49 -112 47 -106 60 -133 -194 -72 -143 -166 0 -129 rrcurveto
          -225 162 -47 143 136 167 74 111 50 -46 53 -55 vhcurveto
          -23 0 -31 -8 -20 -19 -47 -47 -41 -11 -50 0 -30 0 -36 28 0 61 0 86 99 75 84 44 21 -15 28 -10 33 0 65 0 52 31 0 80 rrcurveto
          0 54 -40 54 -22 30 rrcurveto
          -19 28 rlineto
          -184 397 -152 371 -180 356 -8 15 -10 30 -10 30 -23 70 -19 57 -95 0 -74 0 -38 -62 -9 -59 rrcurveto
          -115 -229 -366 -864 -93 -153 -32 -44 -10 -43 0 -43 rrcurveto
          511 630 rmoveto
          -98 callsubr
          endchar
        </CharString>
        <CharString name="Aring">
          76 -8 -21 524 212 869 -20 278 178 hstem
          450 189 281 189 vstem
          35 77 rmoveto
          -69 54 -37 71 vhcurveto
          107 0 15 60 16 58 rrcurveto
          -1 vlineto
          22 67 61 154 74 180 14 0 14 1 14 1 190 8 154 -7 153 0 48 -2 41 -1 21 0 57 -128 53 -121 74 -162 7 -59 50 -48 72 0 rrcurveto
          65 52 31 80 hvcurveto
          0 54 -40 54 -22 30 rrcurveto
          -19 28 rlineto
          -184 397 -152 371 -180 356 -6 11 -7 18 -7 21 110 39 82 88 0 143 rrcurveto
          171 -119 149 -189 -168 -183 -67 -246 vhcurveto
          0 -151 73 -90 112 -38 -129 -266 -340 -800 -89 -147 -32 -44 -10 -43 0 -43 rrcurveto
          750 1499 rmoveto
          19 callsubr
          -239 -869 rmoveto
          -98 callsubr
          endchar
        </CharString>
        <CharString name="Atilde">
          76 -8 -21 524 212 867 -20 79 199 -12 190 hstemhm
          35 1499 -1181 881 hintmask 11100100
          35 77 rmoveto
          10 callsubr
          511 630 rmoveto
          -98 callsubr
          hintmask 00000000
          -92 943 rmoveto
          14 callsubr
          hintmask 00001010
          15 callsubr
          hintmask 00010010
          16 callsubr
          endchar
        </CharString>
        <CharString name="B">
          -16 -20 207 -170 -21 701 183 472 196 -196 210 hstemhm
          215 220 573 224 -116 221 hintmask 01101101
          200 75 rmoveto
          -97 callsubr
          hintmask 10101101
          -96 callsubr
          hintmask 10101110
          -95 callsubr
          hintmask 10110101
          -94 callsubr
          hintmask 10101101
          235 817 rmoveto
          -93 callsubr
          hintmask 10101110
          -92 callsubr
          -683 vmoveto
          -91 callsubr
          endchar
        </CharString>
        <CharString name="C">
          3 -29 216 1171 216 hstem
          109 224 vstem
          109 756 rmoveto
          -90 callsubr
          endchar
        </CharString>
        <CharString name="CR">
          endchar
        </CharString>
        <CharString name="Cacute">
          3 -29 216 1171 216 31 405 hstem
          109 224 484 424 vstem
          109 756 rmoveto
          -90 callsubr
          823 849 rmoveto
          12 callsubr
          endchar
        </CharString>
        <CharString name="Ccaron">
          3 -29 216 1171 216 21 415 hstem
          109 224 212 775 vstem
          109 756 rmoveto
          -90 callsubr
          825 839 rmoveto
          55 callsubr
          endchar
        </CharString>
        <CharString name="Ccedilla">
          3 -546 197 320 216 1171 216 hstem
          109 224 523 215 vstem
          109 756 rmoveto
          -90 callsubr
          540 -1067 rmoveto
          24 callsubr
          endchar
        </CharString>
        <CharString name="Ccircumflex">
          3 -29 216 1171 216 224 -21 hstem
          109 224 263 712 vstem
          109 756 rmoveto
          -90 callsubr
          585 866 rmoveto
          13 callsubr
          endchar
        </CharString>
        <CharString name="Cdotaccent">
          3 -29 216 1171 216 hstem
          109 224 vstem
          109 756 rmoveto
          -90 callsubr
          819 912 rmoveto
          53 callsubr
          endchar
        </CharString>
        <CharString name="D">
          139 -19 221 1149 223 hstem
          237 212 813 230 vstem
          229 117 rmoveto
          -89 callsubr
          223 103 rmoveto
          -88 callsubr
          endchar
        </CharString>
        <CharString name="DC1">
          endchar
        </CharString>
        <CharString name="DC2">
          endchar
        </CharString>
        <CharString name="DC3">
          endchar
        </CharString>
        <CharString name="DC4">
          endchar
        </CharString>
        <CharString name="DEL">
          endchar
        </CharString>
        <CharString name="DLE">
          endchar
        </CharString>
        <CharString name="Dcaron">
          139 -19 221 1149 223 21 415 hstemhm
          237 212 -7 775 45 230 hintmask 11010100
          229 117 rmoveto
          -76 32 -37 81 vhcurveto
          106 0 100 -23 100 0 rrcurveto
          648 196 510 341 382 -203 360 -590 hvcurveto
          -95 0 -92 -15 -93 0 -43 0 -36 15 -38 0 -76 0 -28 -45 0 -57 0 -24 13 -37 15 -28 10 -362 1 -358 0 -353 rrcurveto
          0 -79 -8 -53 0 -61 rrcurveto
          223 103 rmoveto
          -88 callsubr
          hintmask 00101000
          379 1375 rmoveto
          55 callsubr
          endchar
        </CharString>
        <CharString name="Dcroat">
          134 -19 221 479 211 -203 204 458 223 hstemhm
          221 221 -210 213 812 230 hintmask 11010110
          224 117 rmoveto
          26 callsubr
          hintmask 10111010
          27 callsubr
          223 103 rmoveto
          28 callsubr
          endchar
        </CharString>
        <CharString name="Delta">
          103 -8 228 -221 221 hstemhm
          84 1387 hintmask 01100000
          157 110 rmoveto
          hintmask 10100000
          72 callsubr
          hintmask 01100000
          73 callsubr
          164 100 rmoveto
          74 callsubr
          endchar
        </CharString>
        <CharString name="E">
          -171 0 203 606 204 318 214 hstem
          198 231 vstem
          198 113 rmoveto
          -87 callsubr
          endchar
        </CharString>
        <CharString name="Eacute">
          -171 0 203 606 204 318 214 60 405 hstem
          198 231 159 424 vstem
          198 113 rmoveto
          -87 callsubr
          505 1492 rmoveto
          12 callsubr
          endchar
        </CharString>
        <CharString name="Ebreve">
          -171 0 203 606 204 318 214 271 -21 hstemhm
          198 231 -47 692 hintmask 11101000
          198 113 rmoveto
          -87 callsubr
          hintmask 00010100
          530 1509 rmoveto
          51 callsubr
          endchar
        </CharString>
        <CharString name="Ecaron">
          -171 0 203 606 204 318 214 50 415 hstemhm
          198 231 -113 775 hintmask 11101000
          198 113 rmoveto
          -87 callsubr
          hintmask 00010100
          507 1482 rmoveto
          55 callsubr
          endchar
        </CharString>
        <CharString name="Ecircumflex">
          -171 0 203 606 204 318 214 253 -21 hstemhm
          198 231 -62 712 hintmask 11101000
          198 113 rmoveto
          -87 callsubr
          hintmask 00010100
          267 1509 rmoveto
          13 callsubr
          endchar
        </CharString>
        <CharString name="Edieresis">
          -171 0 203 606 204 318 214 97 326 hstemhm
          198 231 -93 734 hintmask 11101000
          198 113 rmoveto
          -87 callsubr
          hintmask 00010100
          248 1536 rmoveto
          17 callsubr
          437 -7 rmoveto
          18 callsubr
          endchar
        </CharString>
        <CharString name="Edotaccent">
          -171 0 203 606 204 318 214 hstem
          198 231 vstem
          198 113 rmoveto
          -87 callsubr
          502 1555 rmoveto
          53 callsubr
          endchar
        </CharString>
        <CharString name="Egrave">
          -171 0 203 606 204 318 214 60 405 hstemhm
          198 231 -27 424 hintmask 11101000
          198 113 rmoveto
          -87 callsubr
          hintmask 00010100
          514 1492 rmoveto
          11 callsubr
          endchar
        </CharString>
        <CharString name="Emacron">
          -171 0 203 606 204 318 214 92 192 hstemhm
          198 231 -143 800 hintmask 11101000
          198 113 rmoveto
          -87 callsubr
          hintmask 00010100
          222 1521 rmoveto
          49 callsubr
          endchar
        </CharString>
        <CharString name="Eng">
          364 -517 222 295 -21 1589 -20 25 -20 hstemhm
          280 213 848 235 hintmask 11011100
          262 72 rmoveto
          -57 54 -36 67 102 18 61 70 vhcurveto
          0 7 0 15 -1 9 -6 79 -5 269 2 684 754 -1014 97 -110 17 -16 rrcurveto
          -163 vlineto
          -162 -71 -3 -63 vhcurveto
          -51 0 -33 62 -54 0 rrcurveto
          -82 -33 -76 -49 -108 188 -51 75 214 130 173 201 hvcurveto
          0 22 -1 24 -1 17 0 455 -3 453 0 452 rrcurveto
          122 vlineto
          78 -7 93 -104 -79 -45 -21 -108 vhcurveto
          22 -1033 rlineto
          -227 320 -353 410 -227 307 rrcurveto
          hintmask 11101100
          -11 35 -42 85 -63 0 -30 0 -36 -8 -27 -23 -62 -13 -27 -38 0 -65 0 -27 3 -23 5 -31 14 -208 0 -300 0 -212 0 -156 0 -149 -11 -146 rrcurveto
          -1 -20 -6 -35 0 -42 rrcurveto
          endchar
        </CharString>
        <CharString name="Eogonek">
          -171 -484 205 279 203 606 204 318 214 hstem
          198 231 172 231 vstem
          198 113 rmoveto
          -82 51 -31 68 vhcurveto
          379 hlineto
          -64 -57 -31 -74 0 -81 rrcurveto
          -226 194 -46 143 141 120 61 113 51 -48 53 -54 vhcurveto
          -84 0 7 -73 -91 0 rrcurveto
          -31 -66 28 60 133 95 58 93 hvcurveto
          81 2 70 14 0 104 0 79 -62 22 -79 0 -34 0 -28 -4 -28 -4 -30 -5 -33 -5 -40 0 -145 0 -132 6 -131 0 rrcurveto
          0 599 628 1 rlineto
          74 53 33 71 45 -41 65 -72 hvcurveto
          -37 0 -33 -3 -24 -3 -18 -2 -20 -2 -15 0 -444 0 -25 0 -26 1 rrcurveto
          317 93 vlineto
          38 0 41 1 259 0 26 -3 26 0 15 0 rrcurveto
          66 55 15 102 72 -20 36 -101 hvcurveto
          -12 0 -36 -7 -24 -2 rrcurveto
          -527 hlineto
          -64 -66 -1 -132 hvcurveto
          23 -1196 -9 -32 rlineto
          -6 -21 -8 -27 0 -23 rrcurveto
          endchar
        </CharString>
        <CharString name="Eth">
          134 -19 221 479 211 -203 204 458 223 hstemhm
          221 221 -210 213 812 230 hintmask 11010110
          224 117 rmoveto
          26 callsubr
          hintmask 10111010
          27 callsubr
          223 103 rmoveto
          28 callsubr
          endchar
        </CharString>
        <CharString name="Euro">
          39 -12 213 278 209 -208 202 173 206 -205 201 266 222 hstemhm
          130 230 hintmask 10101110
          78 480 rmoveto
          27 0 34 -1 34 0 101 -286 264 -205 332 0 rrcurveto
          96 333 23 160 49 -45 39 -47 hvcurveto
          -40 0 -32 -11 -38 -11 rrcurveto
          1 hlineto
          -51 -17 -60 -19 -86 0 -182 0 -194 78 -99 200 rrcurveto
          485 hlineto
          60 38 30 73 92 -67 25 -37 hvcurveto
          -26 0 -22 -11 -22 0 -144 0 -176 0 -149 -1 rrcurveto
          hintmask 11010110
          -4 35 -2 37 0 40 0 19 0 19 2 18 rrcurveto
          595 hlineto
          60 37 28 73 92 -65 25 -39 hvcurveto
          -25 0 -22 -12 -23 0 -103 0 -195 0 -169 -1 95 197 201 66 161 0 148 0 49 -44 39 -35 27 -25 22 -18 44 0 rrcurveto
          62 59 42 74 111 -198 117 -213 hvcurveto
          -320 0 -302 -140 -112 -348 -24 -1 -19 0 -12 -1 -41 -3 -53 -22 0 -65 rrcurveto
          -108 51 -1 48 vhcurveto
          10 hlineto
          -3 -38 -2 -39 0 -41 0 -18 1 -18 1 -18 rrcurveto
          hintmask 11001110
          -59 -3 rlineto
          -38 -3 -56 -26 0 -60 rrcurveto
          -106 53 -6 46 vhcurveto
          endchar
        </CharString>
        <CharString name="F">
          -175 -8 -21 780 205 379 211 hstem
          198 239 vstem
          216 98 rmoveto
          -86 callsubr
          endchar
        </CharString>
        <CharString name="G">
          189 -20 214 -173 -21 1355 218 hstemhm
          148 228 850 222 hintmask 10111000
          148 756 rmoveto
          -85 callsubr
          hintmask 01111000
          -84 callsubr
          hintmask 10111000
          -83 callsubr
          endchar
        </CharString>
        <CharString name="Gbreve">
          189 -20 214 -173 -21 1355 218 243 -21 hstemhm
          148 228 213 692 -55 222 hintmask 10101010
          148 756 rmoveto
          -85 callsubr
          hintmask 01101010
          -84 callsubr
          hintmask 10101010
          -83 callsubr
          hintmask 00010100
          787 866 rmoveto
          51 callsubr
          endchar
        </CharString>
        <CharString name="Gcircumflex">
          189 -20 214 -173 -21 1355 218 225 -21 hstemhm
          148 228 198 712 -60 222 hintmask 10101010
          148 756 rmoveto
          -85 callsubr
          hintmask 01101010
          -84 callsubr
          hintmask 10101010
          -83 callsubr
          hintmask 00010100
          524 866 rmoveto
          13 callsubr
          endchar
        </CharString>
        <CharString name="Gcommaaccent">
          189 -529 -21 530 214 -173 -21 1355 218 hstemhm
          148 228 506 233 111 222 hintmask 01011010
          148 756 rmoveto
          -85 callsubr
          hintmask 00111010
          -84 callsubr
          hintmask 01011010
          -83 callsubr
          hintmask 10000100
          734 -972 rmoveto
          59 callsubr
          endchar
        </CharString>
        <CharString name="Gdotaccent">
          189 -20 214 -173 -21 1355 218 hstemhm
          148 228 850 222 hintmask 10111000
          148 756 rmoveto
          -85 callsubr
          hintmask 01111000
          -84 callsubr
          hintmask 10111000
          -83 callsubr
          hintmask 00000000
          758 912 rmoveto
          58 callsubr
          endchar
        </CharString>
        <CharString name="H">
          84 -8 -21 865 204 534 -20 hstem
          226 208 704 210 vstem
          219 74 rmoveto
          -68 23 -35 106 95 23 43 60 vhcurveto
          0 48 -2 29 -4 36 -8 76 -11 135 -5 429 178 4 324 8 190 -3 1 -205 9 -173 0 -175 0 -72 -15 -67 0 -69 rrcurveto
          -68 30 -36 106 94 25 44 60 vhcurveto
          0 24 -3 21 -4 22 -9 53 -14 91 0 269 0 233 -1 182 0 183 2 112 9 101 0 101 rrcurveto
          40 -23 67 -65 -121 -31 -40 -69 vhcurveto
          0 -40 12 -39 0 -38 0 -179 0 -64 -1 -52 -105 -3 -95 -10 -95 0 -138 0 -124 5 -138 4 rrcurveto
          221 vlineto
          0 78 6 60 0 59 rrcurveto
          51 -30 56 -61 -120 -31 -40 -69 vhcurveto
          0 -43 15 -37 0 -37 12 -937 1 -63 0 -66 0 -76 -7 -65 0 -67 rrcurveto
          endchar
        </CharString>
        <CharString name="HT">
          endchar
        </CharString>
        <CharString name="Hbar">
          84 9 -21 647 205 310 196 -191 183 -183 187 249 -20 hstemhm
          213 227 -214 208 696 218 hintmask 1101010110000000
          219 91 rmoveto
          -68 23 -35 106 95 23 43 60 vhcurveto
          0 48 -2 29 -4 36 -8 76 -11 165 -5 181 rrcurveto
          hintmask 1101011010000000
          178 4 324 8 190 -3 0 -117 10 -124 0 -94 0 -72 -15 -68 0 -68 rrcurveto
          -68 30 -36 106 vhcurveto
          hintmask 1100111010000000
          94 25 44 60 hvcurveto
          0 24 -3 21 -4 21 -9 54 -14 91 0 269 rrcurveto
          hintmask 1100110110000000
          0 225 -1 177 0 176 rrcurveto
          40 hlineto
          101 14 39 61 91 -82 5 -66 hvcurveto
          2 46 2 46 0 46 rrcurveto
          40 -23 67 -65 -121 -31 -40 -69 vhcurveto
          0 -41 12 -38 0 -38 rrcurveto
          -27 vlineto
          -386 0 -197 0 -113 1 2 54 4 46 0 45 rrcurveto
          50 -30 57 -61 -120 -31 -40 -69 vhcurveto
          0 -44 15 -36 0 -37 rrcurveto
          -23 vlineto
          -98 -1 -77 -10 0 -89 rrcurveto
          hintmask 1110010110000000
          -67 40 -21 62 vhcurveto
          20 0 24 0 12 1 rrcurveto
          19 hlineto
          10 -737 1 -59 0 -60 rrcurveto
          0 -76 -7 -66 0 -66 rrcurveto
          215 757 rmoveto
          307 vlineto
          335 1 224 0 137 -1 0 -137 -1 -132 0 -34 -105 -3 -95 -9 -95 0 -138 0 -124 4 -138 4 rrcurveto
          endchar
        </CharString>
        <CharString name="Hcircumflex">
          84 -8 -21 865 204 534 -20 244 -21 hstemhm
          226 208 36 712 -44 210 hintmask 11101010
          219 74 rmoveto
          -68 23 -35 106 95 23 43 60 vhcurveto
          0 48 -2 29 -4 36 -8 76 -11 135 -5 429 178 4 324 8 190 -3 1 -205 9 -173 0 -175 0 -72 -15 -67 0 -69 rrcurveto
          -68 30 -36 106 94 25 44 60 vhcurveto
          0 24 -3 21 -4 22 -9 53 -14 91 0 269 0 233 -1 182 0 183 2 112 9 101 0 101 rrcurveto
          40 -23 67 -65 -121 -31 -40 -69 vhcurveto
          0 -40 12 -39 0 -38 0 -179 0 -64 -1 -52 -105 -3 -95 -10 -95 0 -138 0 -124 5 -138 4 rrcurveto
          221 vlineto
          0 78 6 60 0 59 rrcurveto
          51 -30 56 -61 -120 -31 -40 -69 vhcurveto
          0 -43 15 -37 0 -37 12 -937 1 -63 0 -66 rrcurveto
          0 -76 -7 -65 0 -67 rrcurveto
          hintmask 00010100
          349 1548 rmoveto
          13 callsubr
          endchar
        </CharString>
        <CharString name="I">
          -698 -8 -21 1603 -20 hstem
          279 225 vstem
          273 80 rmoveto
          -82 callsubr
          endchar
        </CharString>
        <CharString name="IJ">
          17 -30 213 hstemhm
          210 255 -240 216 589 224 hintmask 10110000
          219 346 rmoveto
          10 -279 206 -97 288 0 406 0 125 338 0 294 0 260 -13 246 5 245 1 28 0 22 0 16 rrcurveto
          88 -22 47 -89 -69 -54 -26 -76 vhcurveto
          0 -61 7 -38 4 -39 0 -62 6 -16 0 -592 0 -317 -118 -144 -192 0 rrcurveto
          hintmask 11010000
          -166 0 -94 43 -10 93 -5 38 20 33 0 36 rrcurveto
          80 -61 31 -58 -64 -72 -21 -78 vhcurveto
          1 -34 8 -28 0 -30 rrcurveto
          127 375 rmoveto
          95 24 43 60 hvcurveto
          0 106 -24 -44 0 264 0 117 4 55 3 44 3 30 2 25 0 36 rrcurveto
          38 -36 55 -61 -120 -32 -46 -69 vhcurveto
          0 -160 21 -100 0 -149 0 -71 -15 -65 0 -66 rrcurveto
          -69 31 -34 105 vhcurveto
          endchar
        </CharString>
        <CharString name="Iacute">
          -698 -8 -21 1603 -20 51 405 hstemhm
          279 225 -209 424 hintmask 11010000
          273 80 rmoveto
          25 callsubr
          hintmask 00101000
          137 1525 rmoveto
          12 callsubr
          endchar
        </CharString>
        <CharString name="Ibreve">
          -698 -8 -21 1603 -20 262 -21 hstemhm
          89 692 -502 225 hintmask 11001000
          273 80 rmoveto
          25 callsubr
          hintmask 00110000
          162 1542 rmoveto
          51 callsubr
          endchar
        </CharString>
        <CharString name="Icircumflex">
          -698 -8 -21 1603 -20 244 -21 hstemhm
          74 712 -507 225 hintmask 11001000
          273 80 rmoveto
          25 callsubr
          hintmask 00110000
          -101 1542 rmoveto
          13 callsubr
          endchar
        </CharString>
        <CharString name="Idieresis">
          -698 -8 -21 1603 -20 88 326 hstemhm
          43 734 -498 225 hintmask 11001000
          273 80 rmoveto
          25 callsubr
          hintmask 00110000
          -120 1569 rmoveto
          17 callsubr
          437 -7 rmoveto
          18 callsubr
          endchar
        </CharString>
        <CharString name="Idotaccent">
          -698 -8 -21 1603 -20 hstem
          279 225 vstem
          273 80 rmoveto
          -82 callsubr
          134 1588 rmoveto
          53 callsubr
          endchar
        </CharString>
        <CharString name="Igrave">
          -698 -8 -21 1603 -20 51 405 hstemhm
          109 424 -254 225 hintmask 11001000
          273 80 rmoveto
          25 callsubr
          hintmask 00110000
          146 1525 rmoveto
          11 callsubr
          endchar
        </CharString>
        <CharString name="Imacron">
          -698 -8 -21 1603 -20 83 192 hstemhm
          -7 800 -514 225 hintmask 11001000
          273 80 rmoveto
          25 callsubr
          hintmask 00110000
          -146 1554 rmoveto
          49 callsubr
          endchar
        </CharString>
        <CharString name="Iogonek">
          -697 -487 205 275 -21 1602 -20 hstemhm
          27 220 20 318 -306 225 hintmask 11100100
          27 -190 rmoveto
          -190 137 -107 148 139 134 54 115 vhcurveto
          hintmask 11101000
          56 -39 48 -62 vhcurveto
          -75 0 -18 -68 -74 0 rrcurveto
          hintmask 11110100
          -30 -40 30 67 hvcurveto
          0 51 55 74 90 32 6 -1 6 0 6 0 92 0 25 46 0 65 rrcurveto
          hintmask 11101000
          0 19 -2 17 -3 20 rrcurveto
          -1 vlineto
          hintmask 11110100
          -14 183 -4 344 0 305 0 170 2 128 2 114 4 24 5 21 0 23 rrcurveto
          75 -37 50 -60 -121 -32 -57 -70 vhcurveto
          0 -44 12 -37 0 -37 0 -363 9 -340 0 -340 0 -56 -9 -51 -4 -50 rrcurveto
          -162 -85 -86 -118 0 -116 rrcurveto
          endchar
        </CharString>
        <CharString name="Itilde">
          -698 -8 -21 1603 -20 79 199 -12 190 hstemhm
          -21 881 -581 225 hintmask 11000100
          273 80 rmoveto
          25 callsubr
          hintmask 00000000
          -193 1570 rmoveto
          14 callsubr
          hintmask 00011000
          15 callsubr
          hintmask 00101000
          16 callsubr
          endchar
        </CharString>
        <CharString name="J">
          -21 -29 215 1388 -20 hstem
          126 227 632 225 vstem
          126 447 rmoveto
          -377 341 -99 222 406 115 304 300 vhcurveto
          -9 512 rlineto
          0 208 3 38 0 100 rrcurveto
          90 -24 51 -88 -69 -55 -30 -77 vhcurveto
          0 -134 17 -38 0 -213 rrcurveto
          -463 vlineto
          -322 -108 -111 -191 -176 -157 82 170 vhcurveto
          0 66 34 58 0 63 rrcurveto
          80 -50 33 -62 -142 -7 -191 -100 vhcurveto
          endchar
        </CharString>
        <CharString name="Jcircumflex">
          -26 -29 215 1388 -20 244 -21 hstemhm
          126 227 355 712 -435 225 hintmask 11010100
          126 447 rmoveto
          -377 341 -99 222 406 115 304 300 vhcurveto
          -9 512 rlineto
          0 208 3 38 0 100 rrcurveto
          90 -24 51 -88 -69 -55 -30 -77 vhcurveto
          0 -134 17 -38 0 -213 rrcurveto
          -463 vlineto
          -322 -108 -111 -191 -176 -157 82 170 vhcurveto
          0 66 34 58 0 63 rrcurveto
          80 -50 33 -62 vhcurveto
          -142 -7 -191 -100 hvcurveto
          hintmask 00101000
          680 1175 rmoveto
          13 callsubr
          endchar
        </CharString>
        <CharString name="K">
          -77 -29 218 1385 -20 hstem
          203 229 vstem
          203 93 rmoveto
          -81 callsubr
          endchar
        </CharString>
        <CharString name="Kcommaaccent">
          -77 -529 -21 521 218 1385 -20 hstem
          203 229 161 233 vstem
          203 93 rmoveto
          -81 callsubr
          390 -309 rmoveto
          59 callsubr
          endchar
        </CharString>
        <CharString name="L">
          -393 0 223 1349 -20 hstem
          215 218 vstem
          198 111 rmoveto
          -80 callsubr
          endchar
        </CharString>
        <CharString name="LF">
          endchar
        </CharString>
        <CharString name="Lacute">
          -393 0 223 1349 -20 53 405 hstemhm
          215 218 -197 424 hintmask 11010000
          198 111 rmoveto
          -80 callsubr
          hintmask 00101000
          153 1494 rmoveto
          12 callsubr
          endchar
        </CharString>
        <CharString name="Lcaron">
          -394 17 223 896 557 -104 -20 hstemhm
          214 218 283 223 hintmask 10110000
          197 128 rmoveto
          -80 callsubr
          hintmask 01001000
          559 1008 rmoveto
          57 callsubr
          endchar
        </CharString>
        <CharString name="Lcommaaccent">
          -393 -529 -21 550 223 1349 -20 hstem
          215 218 53 233 vstem
          198 111 rmoveto
          -80 callsubr
          288 -327 rmoveto
          59 callsubr
          endchar
        </CharString>
        <CharString name="Ldot">
          -375 0 223 730 331 288 -20 hstem
          215 218 390 282 vstem
          198 111 rmoveto
          -80 callsubr
          766 842 rmoveto
          64 callsubr
          endchar
        </CharString>
        <CharString name="Lslash">
          -373 0 223 1349 -20 hstemhm
          223 228 -216 217 hintmask 11010000
          218 111 rmoveto
          -92 48 -19 66 vhcurveto
          531 hlineto
          83 1 88 14 0 104 0 77 -48 41 -87 0 -42 0 -37 -8 -37 -3 -69 -3 -106 0 -155 0 -1 121 0 189 0 188 145 99 143 101 50 38 rrcurveto
          20 17 25 24 0 34 0 80 -37 30 -64 0 -21 0 -26 -11 -14 -11 rrcurveto
          -221 -151 rlineto
          hintmask 11100000
          0 127 0 116 1 82 rrcurveto
          150 vlineto
          96 -27 30 -92 vhcurveto
          -82 0 -31 -48 -1 -101 rrcurveto
          7 -604 -167 -114 rlineto
          -22 -19 -17 -26 0 -25 0 -67 56 -59 56 0 54 0 26 33 17 20 rrcurveto
          hintmask 11010000
          1 0 4 -333 rlineto
          0 -43 -17 -36 0 -39 rrcurveto
          endchar
        </CharString>
        <CharString name="M">
          535 -8 -21 1603 -20 hstem
          52 1921 vstem
          52 79 rmoveto
          -79 callsubr
          endchar
        </CharString>
        <CharString name="N">
          232 -8 -21 1591 -20 32 -20 hstemhm
          221 217 844 235 hintmask 10111000
          203 64 rmoveto
          -78 callsubr
          hintmask 11011000
          -77 callsubr
          endchar
        </CharString>
        <CharString name="Nacute">
          232 -8 -21 1591 -20 32 -20 51 405 hstemhm
          221 217 326 424 94 235 hintmask 10101010
          203 64 rmoveto
          -78 callsubr
          hintmask 11001010
          -77 callsubr
          hintmask 00010100
          676 1541 rmoveto
          12 callsubr
          endchar
        </CharString>
        <CharString name="Ncaron">
          232 -8 -21 1591 -20 32 -20 41 415 hstemhm
          221 217 53 775 16 235 hintmask 10101010
          203 64 rmoveto
          -78 callsubr
          hintmask 11001010
          -77 callsubr
          hintmask 00010100
          677 1531 rmoveto
          55 callsubr
          endchar
        </CharString>
        <CharString name="Ncommaaccent">
          232 -529 -21 542 -21 1591 -20 32 -20 hstemhm
          221 217 323 233 288 235 hintmask 01011010
          203 64 rmoveto
          -78 callsubr
          hintmask 01101010
          -77 callsubr
          hintmask 10000100
          558 -280 rmoveto
          59 callsubr
          endchar
        </CharString>
        <CharString name="Ntilde">
          232 -8 -21 1591 -20 32 -20 79 199 -12 190 hstemhm
          221 217 9 881 -46 235 hintmask 10100101
          203 64 rmoveto
          -78 callsubr
          hintmask 11000101
          -77 callsubr
          hintmask 00000000
          345 1586 rmoveto
          14 callsubr
          hintmask 00001010
          15 callsubr
          hintmask 00010010
          16 callsubr
          endchar
        </CharString>
        <CharString name="O">
          192 -29 204 1193 206 hstem
          144 228 939 229 vstem
          144 773 rmoveto
          -76 callsubr
          228 hmoveto
          -75 callsubr
          endchar
        </CharString>
        <CharString name="OE">
          946 -29 204 -175 203 606 204 318 214 -177 206 hstemhm
          144 228 939 236 hintmask 01101110
          144 773 rmoveto
          -450 273 -352 425 vhcurveto
          200 0 166 77 120 129 -6 -20 -6 -24 0 -20 rrcurveto
          -82 51 -31 68 vhcurveto
          673 hlineto
          93 88 4 116 79 -62 22 -79 hvcurveto
          -34 0 -28 -4 -28 -4 -30 -5 -33 -5 -40 0 -145 0 -132 6 -131 0 rrcurveto
          0 599 628 1 rlineto
          74 53 33 71 45 -41 65 -72 hvcurveto
          hintmask 01110110
          -37 0 -33 -3 -24 -3 -18 -2 -20 -2 -15 0 -444 0 -25 0 -26 1 rrcurveto
          317 93 vlineto
          38 0 41 1 259 0 26 -3 26 0 15 0 rrcurveto
          66 55 15 102 72 -20 36 -101 hvcurveto
          -12 0 -36 -7 -24 -2 rrcurveto
          hintmask 10101110
          -527 hlineto
          -64 -66 -1 -132 hvcurveto
          -11 vlineto
          -114 110 -157 63 -195 0 rrcurveto
          -425 -281 -327 -474 hvcurveto
          228 hmoveto
          357 172 238 301 319 147 -276 -319 -300 -151 -298 -315 vhcurveto
          -301 -172 298 300 hvcurveto
          endchar
        </CharString>
        <CharString name="Oacute">
          192 -29 204 1193 206 31 405 hstem
          144 228 375 424 140 229 vstem
          144 773 rmoveto
          -76 callsubr
          228 hmoveto
          -75 callsubr
          490 832 rmoveto
          12 callsubr
          endchar
        </CharString>
        <CharString name="Obreve">
          192 -29 204 1193 206 242 -21 hstem
          144 228 168 692 79 229 vstem
          144 773 rmoveto
          -76 callsubr
          228 hmoveto
          -75 callsubr
          514 849 rmoveto
          51 callsubr
          endchar
        </CharString>
        <CharString name="Ocircumflex">
          192 -29 204 1193 206 224 -21 hstem
          144 228 153 712 74 229 vstem
          144 773 rmoveto
          -76 callsubr
          228 hmoveto
          -75 callsubr
          251 849 rmoveto
          13 callsubr
          endchar
        </CharString>
        <CharString name="Odieresis">
          192 -29 204 1193 206 68 326 hstem
          144 228 122 734 83 229 vstem
          144 773 rmoveto
          -76 callsubr
          228 hmoveto
          -75 callsubr
          232 876 rmoveto
          17 callsubr
          437 -7 rmoveto
          18 callsubr
          endchar
        </CharString>
        <CharString name="Ograve">
          192 -29 204 1193 206 31 405 hstem
          144 228 189 424 326 229 vstem
          144 773 rmoveto
          -76 callsubr
          228 hmoveto
          -75 callsubr
          499 832 rmoveto
          11 callsubr
          endchar
        </CharString>
        <CharString name="Ohungarumlaut">
          192 -29 204 1193 206 13 423 hstemhm
          144 228 179 877 -117 229 hintmask 11010100
          144 773 rmoveto
          29 callsubr
          228 hmoveto
          -75 callsubr
          hintmask 00101000
          702 822 rmoveto
          65 callsubr
          -439 -8 rmoveto
          66 callsubr
          endchar
        </CharString>
        <CharString name="Omacron">
          192 -29 204 1193 206 63 192 hstem
          144 228 72 800 67 229 vstem
          144 773 rmoveto
          -76 callsubr
          228 hmoveto
          -75 callsubr
          206 861 rmoveto
          49 callsubr
          endchar
        </CharString>
        <CharString name="Omega">
          154 0 199 1198 199 hstem
          129 228 926 229 vstem
          136 28 rmoveto
          75 callsubr
          endchar
        </CharString>
        <CharString name="Oslash">
          192 -12 204 1193 206 -19 -20 hstemhm
          144 228 939 229 hintmask 11011000
          419 -89 rmoveto
          -61 50 -47 81 vhcurveto
          92 0 13 86 2 27 1 9 2 11 2 7 rrcurveto
          20 63 rlineto
          51 -11 53 -7 56 0 426 0 272 352 0 450 0 319 -110 253 -209 131 rrcurveto
          29 73 rlineto
          5 15 3 17 0 15 0 54 -45 43 -74 0 -55 0 -28 -38 -10 -30 -8 -24 -8 -23 -7 -23 -54 12 -58 7 -61 0 rrcurveto
          hintmask 10111000
          -425 -281 -327 -474 hvcurveto
          0 -307 127 -261 215 -135 rrcurveto
          hintmask 11011000
          -30 -71 rlineto
          -29 -39 -8 -47 0 -19 rrcurveto
          153 383 rmoveto
          -130 113 -70 191 0 192 0 357 172 238 301 0 40 0 37 -5 34 -8 -140 -421 -122 -350 -122 -307 rrcurveto
          176 -91 rmoveto
          120 362 98 281 169 432 119 -109 57 -182 0 -197 0 -300 -151 -298 -315 0 -34 0 -33 4 -30 7 rrcurveto
          endchar
        </CharString>
        <CharString name="Otilde">
          192 -29 204 1193 206 59 199 -12 190 hstemhm
          144 228 58 881 0 229 hintmask 11001010
          144 773 rmoveto
          29 callsubr
          228 hmoveto
          -75 callsubr
          hintmask 00000000
          159 877 rmoveto
          14 callsubr
          hintmask 00010100
          15 callsubr
          hintmask 00100100
          16 callsubr
          endchar
        </CharString>
        <CharString name="P">
          -80 -8 -21 362 211 807 210 hstem
          215 216 645 232 vstem
          207 83 rmoveto
          -74 callsubr
          232 467 rmoveto
          -73 callsubr
          endchar
        </CharString>
        <CharString name="Q">
          250 -29 204 218 220 755 206 hstem
          144 228 939 229 vstem
          144 773 rmoveto
          -450 273 -352 425 vhcurveto
          160 0 139 50 111 86 72 -75 82 -61 99 0 rrcurveto
          105 88 46 96 71 -52 35 -48 hvcurveto
          -44 0 -31 -29 -32 0 -33 -1 -36 26 -35 35 99 140 54 181 0 202 rrcurveto
          474 -243 327 -447 -425 -281 -327 -474 vhcurveto
          228 hmoveto
          357 172 238 301 319 147 -276 -319 vhcurveto
          0 -122 -25 -121 -51 -101 -117 118 -85 66 -152 0 rrcurveto
          -66 -75 -22 -90 -95 106 -13 37 hvcurveto
          19 0 16 3 11 0 63 0 59 -56 62 -71 -70 -59 -90 -35 -108 0 rrcurveto
          -301 -172 298 300 hvcurveto
          endchar
        </CharString>
        <CharString name="R">
          80 -29 211 223 212 737 207 hstem
          211 219 669 236 vstem
          205 111 rmoveto
          -72 callsubr
          234 512 rmoveto
          -71 callsubr
          469 -192 rmoveto
          -70 callsubr
          -1 -1 rmoveto
          -69 callsubr
          endchar
        </CharString>
        <CharString name="RS">
          endchar
        </CharString>
        <CharString name="Racute">
          80 -29 211 223 212 737 207 44 405 hstem
          211 219 194 424 51 236 vstem
          205 111 rmoveto
          -72 callsubr
          234 512 rmoveto
          -71 callsubr
          469 -192 rmoveto
          -70 callsubr
          -1 -1 rmoveto
          -69 callsubr
          -168 1175 rmoveto
          12 callsubr
          endchar
        </CharString>
        <CharString name="Rcaron">
          80 -29 211 223 212 737 207 34 415 hstemhm
          211 219 -78 775 -28 236 hintmask 11101010
          205 111 rmoveto
          -82 58 -58 79 51 69 32 76 vhcurveto
          0 62 -20 59 -2 62 rrcurveto
          146 vlineto
          47 0 63 -1 39 -1 36 -1 79 0 33 0 36 -166 118 -268 284 0 rrcurveto
          206 135 101 114 61 -42 45 -72 hvcurveto
          -41 0 -25 -24 -19 -27 -30 -46 -43 -13 -51 0 -137 0 -82 120 -23 143 174 70 210 190 0 340 0 361 -261 155 -402 0 -67 -1 -60 -9 -59 0 rrcurveto
          -71 0 -56 10 -55 0 -70 0 -36 -59 0 -57 0 -29 7 -38 7 -19 -1 -337 0 -274 0 -555 rrcurveto
          -3 -24 -3 -29 0 -29 rrcurveto
          234 512 rmoveto
          -71 callsubr
          469 -192 rmoveto
          -70 callsubr
          -1 -1 rmoveto
          -69 callsubr
          hintmask 00010100
          -166 1165 rmoveto
          55 callsubr
          endchar
        </CharString>
        <CharString name="Rcommaaccent">
          80 -529 -21 521 211 223 212 737 207 hstem
          211 219 167 233 269 236 vstem
          205 111 rmoveto
          -72 callsubr
          234 512 rmoveto
          -71 callsubr
          469 -192 rmoveto
          -70 callsubr
          -1 -1 rmoveto
          -69 callsubr
          -310 -646 rmoveto
          59 callsubr
          endchar
        </CharString>
        <CharString name="S">
          -138 -30 199 1205 200 hstemhm
          154 243 -170 227 528 226 hintmask 11011000
          154 359 rmoveto
          -68 callsubr
          hintmask 11101000
          -67 callsubr
          hintmask 11011000
          -66 callsubr
          endchar
        </CharString>
        <CharString name="Sacute">
          -138 -30 199 1205 200 31 405 hstemhm
          154 243 -170 227 157 424 -53 226 hintmask 11001010
          154 359 rmoveto
          -68 callsubr
          hintmask 11010010
          -67 callsubr
          hintmask 11001010
          -66 callsubr
          hintmask 00100100
          572 1246 rmoveto
          12 callsubr
          endchar
        </CharString>
        <CharString name="Scaron">
          -138 -30 199 1205 200 21 415 hstemhm
          154 243 -170 227 -115 775 -132 226 hintmask 11001010
          154 359 rmoveto
          -68 callsubr
          hintmask 11010010
          -67 callsubr
          hintmask 11001010
          -66 callsubr
          hintmask 00100100
          574 1236 rmoveto
          55 callsubr
          endchar
        </CharString>
        <CharString name="Scedilla">
          -138 -546 197 319 199 1205 200 hstemhm
          154 243 -170 227 186 215 127 226 hintmask 01101010
          154 359 rmoveto
          -68 callsubr
          hintmask 01110010
          -67 callsubr
          hintmask 01101010
          -66 callsubr
          hintmask 10000100
          279 -670 rmoveto
          24 callsubr
          endchar
        </CharString>
        <CharString name="Scircumflex">
          -138 -30 199 1205 200 224 -21 hstemhm
          154 243 -170 227 -64 712 -120 226 hintmask 11001010
          154 359 rmoveto
          -68 callsubr
          hintmask 11010010
          -67 callsubr
          hintmask 11001010
          -66 callsubr
          hintmask 00100100
          334 1263 rmoveto
          13 callsubr
          endchar
        </CharString>
        <CharString name="Scommaaccent">
          -138 -529 -21 520 199 1205 200 hstemhm
          154 243 -170 227 101 233 194 226 hintmask 01101010
          154 359 rmoveto
          -68 callsubr
          hintmask 01110010
          -67 callsubr
          hintmask 01101010
          -66 callsubr
          hintmask 10000100
          401 -575 rmoveto
          59 callsubr
          endchar
        </CharString>
        <CharString name="T">
          -354 -9 -21 1348 227 hstem
          443 231 vstem
          443 134 rmoveto
          -65 callsubr
          endchar
        </CharString>
        <CharString name="Tbar">
          -354 -9 -21 805 216 -216 226 317 227 hstemhm
          443 231 -230 232 hintmask 11011000
          443 134 rmoveto
          -72 -5 -92 122 105 16 67 58 vhcurveto
          0 36 -7 29 0 32 rrcurveto
          1 588 rlineto
          59 -3 57 -2 56 0 rrcurveto
          34 86 26 88 hvcurveto
          hintmask 10111000
          99 -58 13 -65 vhcurveto
          -58 0 -55 -7 -55 -6 rrcurveto
          1 332 258 0 rlineto
          hintmask 10110100
          22 0 20 -6 21 0 56 1 45 54 0 65 rrcurveto
          87 -67 24 -54 vhcurveto
          -798 hlineto
          -99 -41 -25 -79 -58 31 -65 65 hvcurveto
          118 0 98 2 93 0 rrcurveto
          -1 -334 rlineto
          -47 2 -45 3 -45 0 rrcurveto
          -85 -55 -41 -59 hvcurveto
          hintmask 11010100
          -89 65 -27 69 vhcurveto
          50 0 47 4 46 3 rrcurveto
          endchar
        </CharString>
        <CharString name="Tcaron">
          -354 -9 -21 1348 227 50 415 hstemhm
          197 775 -529 231 hintmask 11001000
          443 134 rmoveto
          -65 callsubr
          hintmask 00110000
          141 275 rmoveto
          55 callsubr
          endchar
        </CharString>
        <CharString name="Tcommaaccent">
          -354 -529 -21 541 -21 1348 227 hstemhm
          443 231 -231 233 hintmask 01110000
          443 134 rmoveto
          -65 callsubr
          hintmask 10001000
          -2 -1536 rmoveto
          59 callsubr
          endchar
        </CharString>
        <CharString name="Thorn">
          -4 5 -21 251 205 695 200 236 -20 hstem
          210 226 672 230 vstem
          204 89 rmoveto
          -70 32 -35 105 94 24 45 60 vhcurveto
          0 26 0 23 -4 19 -2 20 -2 25 -2 33 rrcurveto
          87 hlineto
          369 433 54 514 380 -281 152 -415 hvcurveto
          -69 0 -57 -3 -58 0 rrcurveto
          -21 hlineto
          0 7 1 8 0 7 3 39 6 37 0 36 rrcurveto
          62 -36 43 -61 -119 -33 -37 -70 vhcurveto
          0 -40 12 -39 0 -39 0 -365 9 -343 0 -343 0 -71 -15 -68 0 -67 rrcurveto
          237 355 rmoveto
          -3 116 -2 161 0 226 rrcurveto
          185 vlineto
          74 1 68 2 68 0 rrcurveto
          154 308 -13 -310 -253 -88 -119 -445 hvcurveto
          -14 0 -62 2 -58 2 rrcurveto
          endchar
        </CharString>
        <CharString name="U">
          35 -30 214 1390 -20 hstem
          191 228 690 229 vstem
          189 735 rmoveto
          -64 callsubr
          endchar
        </CharString>
        <CharString name="US">
          endchar
        </CharString>
        <CharString name="Uacute">
          35 -30 214 1390 -20 51 405 hstem
          191 228 240 424 26 229 vstem
          189 735 rmoveto
          -64 callsubr
          585 870 rmoveto
          12 callsubr
          endchar
        </CharString>
        <CharString name="Ubreve">
          35 -30 214 1390 -20 262 -21 hstemhm
          191 228 33 692 -35 229 hintmask 11010100
          189 735 rmoveto
          -64 callsubr
          hintmask 00101000
          609 887 rmoveto
          51 callsubr
          endchar
        </CharString>
        <CharString name="Ucircumflex">
          35 -30 214 1390 -20 244 -21 hstemhm
          191 228 18 712 -40 229 hintmask 11010100
          189 735 rmoveto
          -64 callsubr
          hintmask 00101000
          346 887 rmoveto
          13 callsubr
          endchar
        </CharString>
        <CharString name="Udieresis">
          35 -30 214 1390 -20 88 326 hstemhm
          191 228 -13 734 -31 229 hintmask 11010100
          189 735 rmoveto
          -64 callsubr
          hintmask 00101000
          327 914 rmoveto
          17 callsubr
          437 -7 rmoveto
          18 callsubr
          endchar
        </CharString>
        <CharString name="Ugrave">
          35 -30 214 1390 -20 51 405 hstem
          191 228 54 424 212 229 vstem
          189 735 rmoveto
          -64 callsubr
          594 870 rmoveto
          11 callsubr
          endchar
        </CharString>
        <CharString name="Uhungarumlaut">
          35 -30 214 1390 -20 33 423 hstemhm
          191 228 44 877 -231 229 hintmask 11010100
          189 735 rmoveto
          -64 callsubr
          hintmask 00101000
          797 860 rmoveto
          65 callsubr
          -439 -8 rmoveto
          66 callsubr
          endchar
        </CharString>
        <CharString name="Umacron">
          35 -30 214 1390 -20 83 192 hstemhm
          191 228 -63 800 -47 229 hintmask 11010100
          189 735 rmoveto
          -64 callsubr
          hintmask 00101000
          301 899 rmoveto
          49 callsubr
          endchar
        </CharString>
        <CharString name="Uogonek">
          24 -487 205 292 -21 0 212 1390 -20 hstemhm
          186 228 208 217 254 114 -103 229 hintmask 11011110
          622 -243 rmoveto
          -129 103 -115 199 191 92 80 83 53 -63 57 -48 vhcurveto
          -25 0 -27 -9 -20 -18 -32 -27 -15 -14 -48 0 -62 0 -28 44 0 44 0 58 13 80 139 84 231 96 111 256 0 379 0 113 -4 95 0 96 rrcurveto
          hintmask 11011101
          -2 82 -2 90 0 106 0 49 5 46 0 44 rrcurveto
          52 -29 59 -92 -70 -46 -31 -95 vhcurveto
          0 -4 0 -26 1 -20 rrcurveto
          hintmask 11011110
          3 -99 7 -233 0 -322 rrcurveto
          -360 -89 -200 -242 vhcurveto
          hintmask 10111101
          -316 -43 281 290 hvcurveto
          0 480 11 97 0 84 rrcurveto
          97 -36 61 -97 -84 -22 -70 -113 vhcurveto
          0 -233 -3 -212 1 -211 2 -583 249 -162 270 -18 rrcurveto
          -62 -76 -21 -80 0 -76 rrcurveto
          endchar
        </CharString>
        <CharString name="Uring">
          35 -30 214 1215 177 -2 -20 280 178 hstemhm
          191 228 21 189 281 189 10 229 hintmask 10101001
          189 735 rmoveto
          -64 callsubr
          hintmask 01010110
          579 664 rmoveto
          171 160 94 199 171 -119 149 -189 -168 -183 -67 -246 hvcurveto
          -208 140 -92 188 vhcurveto
          7 177 rmoveto
          19 callsubr
          endchar
        </CharString>
        <CharString name="Utilde">
          35 -30 214 1390 -20 79 199 -12 190 hstemhm
          191 228 -77 881 -114 229 hintmask 11001010
          189 735 rmoveto
          -64 callsubr
          hintmask 00000000
          254 915 rmoveto
          14 callsubr
          hintmask 00010100
          15 callsubr
          hintmask 00100100
          16 callsubr
          endchar
        </CharString>
        <CharString name="V">
          -148 -9 -21 1601 -20 23 -20 hstemhm
          31 1284 hintmask 10110000
          557 72 rmoveto
          15 -48 18 -54 77 0 65 0 61 17 0 82 0 10 -2 13 -2 11 69 176 62 163 49 134 85 231 80 214 125 287 rrcurveto
          1 2 rlineto
          19 30 36 60 0 56 0 68 -60 50 -62 0 rrcurveto
          hintmask 11010000
          -84 0 -44 -92 -4 -58 -61 -179 -169 -453 -156 -409 -147 397 -228 588 -57 139 -19 43 -34 21 -47 0 -71 0 -56 -55 18 -72 14 -60 79 -200 93 -233 rrcurveto
          99 -249 140 -356 98 -274 rrcurveto
          endchar
        </CharString>
        <CharString name="W">
          503 -9 -21 1248 -20 366 -20 23 -20 23 -20 21 -20 hstemhm
          52 1890 hintmask 11000110
          540 100 rmoveto
          -63 callsubr
          hintmask 11010010
          -62 callsubr
          hintmask 11000110
          -61 callsubr
          hintmask 11100010
          -60 callsubr
          hintmask 11001010
          -59 callsubr
          endchar
        </CharString>
        <CharString name="Wacute">
          503 -9 -21 1248 -20 366 -20 23 -20 23 -20 21 -20 54 405 hstemhm
          52 1890 -1039 424 hintmask 1100010100000000
          540 100 rmoveto
          -63 callsubr
          hintmask 1101000100000000
          -62 callsubr
          hintmask 1100010100000000
          -61 callsubr
          hintmask 1110000100000000
          -60 callsubr
          hintmask 1100100100000000
          -59 callsubr
          hintmask 0000001010000000
          478 1505 rmoveto
          12 callsubr
          endchar
        </CharString>
        <CharString name="Wcircumflex">
          503 -9 -21 1248 -20 366 -20 23 -20 23 -20 21 -20 247 -21 hstemhm
          52 1890 -1260 712 hintmask 1100010100000000
          540 100 rmoveto
          -63 callsubr
          hintmask 1101000100000000
          -62 callsubr
          hintmask 1100010100000000
          -61 callsubr
          hintmask 1110000100000000
          -60 callsubr
          hintmask 1100100100000000
          -59 callsubr
          hintmask 0000001010000000
          240 1522 rmoveto
          13 callsubr
          endchar
        </CharString>
        <CharString name="Wdieresis">
          503 -9 -21 1248 -20 366 -20 23 -20 23 -20 21 -20 91 326 hstemhm
          52 1890 -1291 734 hintmask 1100010100000000
          540 100 rmoveto
          -63 callsubr
          hintmask 1101000100000000
          -62 callsubr
          hintmask 1100010100000000
          -61 callsubr
          hintmask 1110000100000000
          -60 callsubr
          hintmask 1100100100000000
          -59 callsubr
          hintmask 0000001010000000
          221 1549 rmoveto
          17 callsubr
          437 -7 rmoveto
          18 callsubr
          endchar
        </CharString>
        <CharString name="Wgrave">
          503 -9 -21 1248 -20 366 -20 23 -20 23 -20 21 -20 54 405 hstemhm
          52 1890 -1225 424 hintmask 1100010100000000
          540 100 rmoveto
          -63 callsubr
          hintmask 1101000100000000
          -62 callsubr
          hintmask 1100010100000000
          -61 callsubr
          hintmask 1110000100000000
          -60 callsubr
          hintmask 1100100100000000
          -59 callsubr
          hintmask 0000001010000000
          487 1505 rmoveto
          11 callsubr
          endchar
        </CharString>
        <CharString name="X">
          -251 -9 -21 1596 -20 26 -20 hstemhm
          49 1143 hintmask 10110000
          49 108 rmoveto
          -95 81 -43 66 vhcurveto
          34 0 26 47 35 63 76 126 155 274 92 155 199 -322 128 -212 6 -20 rrcurveto
          -1 vlineto
          31 -73 50 -37 23 0 113 0 28 58 0 69 rrcurveto
          hintmask 11010000
          0 41 -26 26 -26 28 -10 11 -10 12 -9 12 -71 100 -194 304 -111 180 90 139 93 142 152 231 rrcurveto
          hintmask 10110000
          40 45 28 51 0 33 0 70 -55 44 -66 0 -67 0 -22 -40 -29 -64 -111 -195 -87 -143 -81 -132 -40 64 -42 68 -56 92 -79 128 -86 137 -36 48 rrcurveto
          -21 26 -27 17 -35 0 -60 0 -52 -47 0 -62 0 -36 51 -71 58 -84 127 -183 97 -144 79 -123 -87 -145 -124 -195 -187 -277 rrcurveto
          -30 -37 -21 -27 0 -33 rrcurveto
          endchar
        </CharString>
        <CharString name="Y">
          -266 -9 -21 1603 -20 hstem
          509 211 vstem
          500 69 rmoveto
          -53 48 -46 71 92 25 49 54 vhcurveto
          0 200 -27 236 17 154 91 169 171 256 162 254 48 45 8 46 0 24 0 96 -65 20 -58 0 -66 0 -27 -59 -28 -70 rrcurveto
          1 hlineto
          -53 -102 -114 -181 -148 -229 rrcurveto
          -31 -53 -32 53 rlineto
          -107 171 -120 152 -87 175 -27 66 -41 77 -58 0 -74 0 -51 -40 0 -75 0 -32 25 -40 35 -50 112 -161 119 -182 195 -328 9 -432 -15 -18 0 -146 rrcurveto
          endchar
        </CharString>
        <CharString name="Yacute">
          -266 -9 -21 1603 -20 52 405 hstemhm
          509 211 -184 424 hintmask 11010000
          500 69 rmoveto
          30 callsubr
          hintmask 00101000
          151 1536 rmoveto
          12 callsubr
          endchar
        </CharString>
        <CharString name="Ycircumflex">
          -266 -9 -21 1603 -20 245 -21 hstemhm
          315 712 -518 211 hintmask 11001000
          500 69 rmoveto
          30 callsubr
          hintmask 00110000
          -87 1553 rmoveto
          13 callsubr
          endchar
        </CharString>
        <CharString name="Ydieresis">
          -266 -9 -21 1603 -20 89 326 hstemhm
          284 734 -509 211 hintmask 11001000
          500 69 rmoveto
          30 callsubr
          hintmask 00110000
          -106 1580 rmoveto
          17 callsubr
          437 -7 rmoveto
          18 callsubr
          endchar
        </CharString>
        <CharString name="Ygrave">
          -266 -9 -21 1603 -20 52 405 hstemhm
          350 424 -265 211 hintmask 11001000
          500 69 rmoveto
          30 callsubr
          hintmask 00110000
          160 1536 rmoveto
          11 callsubr
          endchar
        </CharString>
        <CharString name="Z">
          -138 0 208 1122 215 20 -20 hstemhm
          132 1105 hintmask 11010000
          132 122 rmoveto
          -58 callsubr
          hintmask 10110000
          -57 callsubr
          endchar
        </CharString>
        <CharString name="Zacute">
          -138 0 208 1122 215 20 -20 60 405 hstemhm
          132 1105 -647 424 hintmask 11001000
          132 122 rmoveto
          -58 callsubr
          hintmask 10101000
          -57 callsubr
          hintmask 00010100
          573 1483 rmoveto
          12 callsubr
          endchar
        </CharString>
        <CharString name="Zcaron">
          -138 0 208 1122 215 20 -20 50 415 hstemhm
          132 1105 -919 775 hintmask 11001000
          132 122 rmoveto
          -58 callsubr
          hintmask 10101000
          -57 callsubr
          hintmask 00010100
          575 1473 rmoveto
          55 callsubr
          endchar
        </CharString>
        <CharString name="Zdotaccent">
          -138 0 208 1122 215 20 -20 hstemhm
          132 1105 hintmask 11010000
          132 122 rmoveto
          -58 callsubr
          hintmask 10110000
          -57 callsubr
          hintmask 00000000
          570 1546 rmoveto
          58 callsubr
          endchar
        </CharString>
        <CharString name="a">
          102 -29 215 -180 -21 1045 210 3 -20 hstemhm
          114 230 768 226 hintmask 10101100
          114 600 rmoveto
          -55 callsubr
          hintmask 10011100
          -54 callsubr
          hintmask 10101100
          -53 callsubr
          hintmask 01101100
          -52 callsubr
          230 hmoveto
          -51 callsubr
          endchar
        </CharString>
        <CharString name="aacute">
          102 -29 215 -180 -21 1045 210 3 -20 190 468 hstemhm
          114 230 257 505 6 226 hintmask 10100101
          114 600 rmoveto
          -55 callsubr
          hintmask 10010101
          -54 callsubr
          hintmask 10100101
          -53 callsubr
          hintmask 01100101
          -52 callsubr
          230 hmoveto
          -51 callsubr
          hintmask 00001010
          361 813 rmoveto
          31 callsubr
          endchar
        </CharString>
        <CharString name="abreve">
          102 -29 215 -180 -21 1045 210 3 -20 597 -21 hstemhm
          114 230 77 696 -5 226 hintmask 10100101
          114 600 rmoveto
          -55 callsubr
          hintmask 10010101
          -54 callsubr
          hintmask 10100101
          -53 callsubr
          hintmask 01100101
          -52 callsubr
          230 hmoveto
          -51 callsubr
          hintmask 00001010
          424 809 rmoveto
          52 callsubr
          endchar
        </CharString>
        <CharString name="acircumflex">
          102 -29 215 -180 -21 1045 210 3 -20 217 432 hstemhm
          114 230 0 805 -37 226 hintmask 10100101
          114 600 rmoveto
          -55 callsubr
          hintmask 10010101
          -54 callsubr
          hintmask 10100101
          -53 callsubr
          hintmask 01100101
          -52 callsubr
          230 hmoveto
          -51 callsubr
          hintmask 00001010
          99 842 rmoveto
          32 callsubr
          endchar
        </CharString>
        <CharString name="acute">
          -817 1413 468 hstem
          17 505 vstem
          121 1413 rmoveto
          30 0 33 8 49 45 63 61 90 83 60 52 rrcurveto
          -1 -1 rlineto
          22 8 55 45 0 48 0 75 -55 44 -67 0 -56 0 -29 -29 -49 -50 rrcurveto
          0 1 -108 -106 rlineto
          -53 -45 -88 -75 0 -64 0 -47 50 -53 54 0 rrcurveto
          endchar
        </CharString>
        <CharString name="acute.cap">
          -811 1605 405 hstem
          221 424 vstem
          336 1605 rmoveto
          59 0 38 39 32 37 10 11 14 16 11 9 55 51 2 7 36 29 45 36 6 30 1 40 0 45 -51 55 -55 0 -27 0 -37 -7 -42 -48 rrcurveto
          -31 -33 -57 -57 -47 -39 -22 -9 -55 -46 0 -47 0 -76 48 -43 67 0 rrcurveto
          endchar
        </CharString>
        <CharString name="adieresis">
          102 -29 215 -180 -21 1045 210 3 -20 165 327 hstemhm
          114 230 33 722 13 226 hintmask 10100101
          114 600 rmoveto
          -55 callsubr
          hintmask 10010101
          -54 callsubr
          hintmask 10100101
          -53 callsubr
          hintmask 01100101
          -52 callsubr
          230 hmoveto
          -51 callsubr
          hintmask 00001010
          144 795 rmoveto
          36 callsubr
          423 -7 rmoveto
          -3 callsubr
          endchar
        </CharString>
        <CharString name="ae">
          821 -19 213 -213 218 320 199 290 217 -214 215 hstemhm
          139 227 hintmask 10110100
          139 325 rmoveto
          39 callsubr
          hintmask 01101100
          40 callsubr
          hintmask 10110100
          41 callsubr
          1108 396 rmoveto
          42 callsubr
          -881 -391 rmoveto
          43 callsubr
          hintmask 10101100
          44 callsubr
          endchar
        </CharString>
        <CharString name="aeacute">
          821 -19 213 -213 218 320 199 290 217 -214 215 187 468 hstemhm
          139 227 661 505 hintmask 10110010
          139 325 rmoveto
          39 callsubr
          hintmask 01101010
          40 callsubr
          hintmask 10110010
          41 callsubr
          1108 396 rmoveto
          42 callsubr
          -881 -391 rmoveto
          43 callsubr
          hintmask 10101010
          44 callsubr
          hintmask 00000101
          765 1083 rmoveto
          31 callsubr
          endchar
        </CharString>
        <CharString name="agrave">
          102 -29 215 -180 -21 1045 210 3 -20 181 471 hstemhm
          114 230 49 498 221 226 hintmask 10100101
          114 600 rmoveto
          -55 callsubr
          hintmask 10010101
          -54 callsubr
          hintmask 10100101
          -53 callsubr
          hintmask 01100101
          -52 callsubr
          230 hmoveto
          -51 callsubr
          hintmask 00001010
          430 804 rmoveto
          -56 callsubr
          endchar
        </CharString>
        <CharString name="amacron">
          102 -29 215 -180 -21 1045 210 3 -20 242 188 hstemhm
          114 230 -10 800 -22 226 hintmask 10100101
          114 600 rmoveto
          -55 callsubr
          hintmask 10010101
          -54 callsubr
          hintmask 10100101
          -53 callsubr
          hintmask 01100101
          -52 callsubr
          230 hmoveto
          -51 callsubr
          hintmask 00001010
          124 865 rmoveto
          50 callsubr
          endchar
        </CharString>
        <CharString name="ampersand">
          420 -30 202 1196 197 hstemhm
          264 224 -86 221 366 214 204 209 hintmask 11101100
          264 401 rmoveto
          -256 195 -175 314 vhcurveto
          132 0 176 37 136 100 25 -18 24 -19 22 -18 65 -51 75 -62 87 0 80 0 33 64 0 46 0 46 -38 43 -56 2 -69 25 -35 25 -51 40 rrcurveto
          157 131 80 201 0 204 rrcurveto
          94 -29 123 -125 -86 -31 -69 -43 vhcurveto
          hintmask 11011100
          0 -58 24 -22 21 -20 6 -5 7 -8 4 -5 rrcurveto
          hintmask 11101100
          -3 -149 -60 -151 -136 -94 -125 105 -126 141 -105 136 181 110 170 121 0 219 rrcurveto
          258 -197 116 -187 -201 -216 -147 -247 vhcurveto
          0 -148 71 -118 89 -114 rrcurveto
          -158 -105 -140 -86 0 -199 rrcurveto
          471 502 rmoveto
          -56 76 -56 91 0 92 rrcurveto
          142 96 64 95 95 80 -55 -129 vhcurveto
          0 -115 -118 -86 -136 -80 rrcurveto
          hintmask 11011100
          -247 -507 rmoveto
          0 100 77 51 122 80 90 -119 142 -146 122 -115 -83 -55 -101 -20 -70 0 rrcurveto
          -126 -173 55 169 hvcurveto
          endchar
        </CharString>
        <CharString name="aogonek">
          104 -484 203 269 215 844 210 3 -20 hstemhm
          117 230 553 230 -15 226 hintmask 11101010
          117 617 rmoveto
          -55 callsubr
          hintmask 11011010
          172 0 155 86 83 103 1 -25 3 -27 7 -25 -135 -84 -90 -125 0 -103 rrcurveto
          hintmask 11101100
          -225 162 -47 143 136 176 74 111 50 -47 53 -54 vhcurveto
          -24 0 -31 -8 -20 -19 -47 -47 -49 -11 -50 0 -30 0 -35 28 0 61 0 83 91 71 80 45 67 12 64 30 63 22 47 16 14 42 0 36 rrcurveto
          52 -33 62 -64 vhcurveto
          -28 0 -17 -8 -18 -7 -20 -10 -27 -11 -12 -3 -6 34 1 74 0 129 0 57 2 73 2 64 3 94 2 110 0 146 2 47 7 46 0 45 rrcurveto
          hintmask 11101010
          38 -49 63 -74 -87 -36 -53 -66 vhcurveto
          0 -16 0 -24 1 -18 -77 87 -143 87 -172 0 rrcurveto
          -335 -261 -277 -363 hvcurveto
          230 hmoveto
          -51 callsubr
          endchar
        </CharString>
        <CharString name="approxequal">
          29 86 210 62 209 117 210 62 209 hstem
          149 1176 vstem
          269 717 rmoveto
          -4 callsubr
          -598 vmoveto
          54 0 45 31 8 55 11 76 23 77 65 0 75 0 46 -48 52 -54 77 -78 90 -92 200 0 166 0 140 136 4 191 2 75 -46 49 -75 0 rrcurveto
          -71 0 -42 -52 -6 -71 -5 -69 -40 -49 -48 0 -89 0 -59 58 -60 60 -73 74 -81 79 -157 0 rrcurveto
          -179 -147 -143 -193 hvcurveto
          -74 65 -38 55 vhcurveto
          endchar
        </CharString>
        <CharString name="aring">
          102 -29 215 -180 -21 1045 210 3 -20 113 175 278 177 hstemhm
          114 230 93 188 284 188 15 226 hintmask 1010001001000000
          114 600 rmoveto
          -55 callsubr
          hintmask 1001001001000000
          -54 callsubr
          hintmask 1010001001000000
          -53 callsubr
          hintmask 0110001001000000
          -52 callsubr
          230 hmoveto
          -51 callsubr
          hintmask 0000110110000000
          421 736 rmoveto
          37 callsubr
          5 175 rmoveto
          38 callsubr
          endchar
        </CharString>
        <CharString name="asciicircum">
          53 333 1213 hstem
          223 1065 vstem
          331 333 rmoveto
          49 0 27 19 26 30 104 238 110 320 104 237 rrcurveto
          271 -663 rlineto
          24 -74 46 -107 89 0 57 0 50 34 0 63 0 23 -17 72 -32 35 -90 228 -165 410 -116 268 -29 53 -44 27 -41 0 -40 0 -44 -26 -30 -55 rrcurveto
          -200 -473 -97 -297 -113 -223 -7 -15 0 -14 0 -9 0 -67 51 -34 57 0 rrcurveto
          endchar
        </CharString>
        <CharString name="asciitilde">
          29 335 210 62 209 hstem
          149 1176 vstem
          269 368 rmoveto
          -4 callsubr
          endchar
        </CharString>
        <CharString name="asterisk">
          -308 1084 824 hstem
          452 222 vstem
          352 1105 rmoveto
          24 0 46 22 17 20 57 56 33 71 22 37 14 -21 8 -17 10 -20 43 -80 47 -89 66 0 40 0 71 19 0 80 -6 104 -75 58 -51 75 rrcurveto
          14 6 7 2 164 54 36 14 73 42 0 67 0 66 -46 31 -58 0 -44 0 -45 -22 -46 -21 -19 -9 -19 -10 -70 -25 7 85 2 33 0 52 rrcurveto
          76 -30 47 -73 -61 -58 -48 -75 vhcurveto
          0 -58 7 -54 0 -53 -108 52 -74 26 -30 0 -50 0 -58 -32 0 -58 0 -77 45 -24 55 -19 15 -6 72 -26 65 -25 -58 -67 -93 -57 0 -93 rrcurveto
          -83 41 -26 71 vhcurveto
          endchar
        </CharString>
        <CharString name="at">
          708 -430 191 232 201 -186 183 689 184 248 192 hstemhm
          128 217 261 217 512 204 298 200 hintmask 1101111110000000
          128 445 rmoveto
          -517 362 -358 467 vhcurveto
          115 0 303 13 65 132 5 11 1 10 0 7 0 41 -39 61 -62 0 -58 0 -33 -18 -32 -17 -40 -23 -53 -26 -138 0 rrcurveto
          -406 -240 253 438 423 302 437 542 hvcurveto
          363 0 287 -188 -2 -474 -1 -187 -67 -269 -173 0 -69 0 -27 54 0 126 0 72 10 87 15 91 10 70 13 62 -17 96 -24 140 -95 72 -216 0 rrcurveto
          -429 -161 -375 -263 -263 141 -155 215 hvcurveto
          196 0 97 93 70 114 41 -160 138 -62 73 0 rrcurveto
          hintmask 1011111110000000
          384 76 420 303 353 -244 435 -594 hvcurveto
          -599 -472 -496 -563 hvcurveto
          695 5 rmoveto
          190 129 240 213 113 57 -25 -120 -303 -219 -241 -133 vhcurveto
          -104 -56 100 159 hvcurveto
          endchar
        </CharString>
        <CharString name="atilde">
          102 -29 215 -180 -21 1045 210 3 -20 186 209 -32 209 hstemhm
          114 230 -30 862 -64 226 hintmask 1010001010000000
          114 600 rmoveto
          -55 callsubr
          hintmask 1001001010000000
          -54 callsubr
          hintmask 1010001010000000
          -53 callsubr
          hintmask 0110001010000000
          -52 callsubr
          230 hmoveto
          -51 callsubr
          hintmask 0000000000000000
          71 826 rmoveto
          33 callsubr
          hintmask 0000010100000000
          34 callsubr
          hintmask 0000100100000000
          35 callsubr
          endchar
        </CharString>
        <CharString name="b">
          37 -29 215 830 216 331 219 hstem
          192 240 743 240 vstem
          198 65 rmoveto
          -71 35 -15 57 52 70 17 70 vhcurveto
          42 vlineto
          85 -80 138 -57 139 0 rrcurveto
          375 266 219 418 380 -243 244 -356 hvcurveto
          -156 0 -149 -63 -87 -93 2 182 6 248 0 173 0 64 -41 39 -54 0 -59 0 -52 -8 -53 0 -23 0 -19 8 -21 0 rrcurveto
          -53 -42 -38 -70 -79 48 -32 48 hvcurveto
          33 0 24 7 24 -1 13 -398 -13 -537 5 -365 1 -78 0 -73 0 -53 rrcurveto
          205 529 rmoveto
          -50 callsubr
          endchar
        </CharString>
        <CharString name="backslash">
          -477 -200 1932 hstem
          107 833 vstem
          902 15 rmoveto
          -68 200 -142 397 -376 1053 -10 30 -28 37 -54 0 -73 0 -44 -45 0 -54 0 -9 2 -15 2 -8 0 -1 1 -2 0 -1 24 -82 253 -712 309 -862 rrcurveto
          3 -10 1 -10 1 -8 2 -27 14 -86 90 0 81 0 50 63 0 47 0 6 -8 60 -31 40 rrcurveto
          endchar
        </CharString>
        <CharString name="bar">
          -647 -355 2084 hstem
          296 222 vstem
          296 -257 rmoveto
          -60 47 -38 72 92 24 67 38 vhcurveto
          0 25 -13 22 0 24 2 1328 0 342 -2 139 -2 40 -23 59 -63 0 -106 0 -21 -54 0 -48 -2 -291 -5 -1399 0 -194 rrcurveto
          endchar
        </CharString>
        <CharString name="braceleft">
          -478 -324 218 749 223 781 206 hstemhm
          365 217 -210 224 -199 208 -207 224 hintmask 11110000
          372 -68 rmoveto
          -226 114 -30 157 70 138 20 109 vhcurveto
          hintmask 11100100
          0 42 -28 69 -68 2 -52 2 -45 -26 -46 0 -17 0 1 54 0 33 0 201 26 185 0 185 0 83 -45 88 -56 32 rrcurveto
          hintmask 11100010
          56 44 28 101 0 103 0 66 -4 57 -5 53 -6 74 -8 94 0 164 rrcurveto
          hintmask 11101000
          68 9 68 46 vhcurveto
          28 0 21 -9 17 -6 18 -7 21 -8 39 0 rrcurveto
          76 22 49 52 112 -154 23 -90 -191 -79 -106 -346 hvcurveto
          hintmask 11100010
          0 -44 8 -76 8 -76 8 -79 8 -81 0 -43 rrcurveto
          hintmask 11100100
          -95 -44 -41 -63 vhcurveto
          -22 0 -21 6 -20 0 rrcurveto
          hintmask 11110000
          -63 -46 -37 -74 -78 53 -40 66 hvcurveto
          24 0 20 3 20 0 80 0 17 -61 0 -60 0 -143 -11 -199 -8 -128 rrcurveto
          -4 -61 -3 -45 0 -17 rrcurveto
          endchar
        </CharString>
        <CharString name="braceright">
          -478 -339 218 749 223 781 206 hstemhm
          379 224 -207 208 -199 224 -210 217 hintmask 00000000
          629 -83 rmoveto
          0 17 -3 45 -4 61 -8 128 -11 199 0 143 0 60 17 61 80 0 20 0 20 -3 24 0 rrcurveto
          hintmask 11100010
          66 53 40 78 74 -46 37 -63 hvcurveto
          hintmask 11101000
          -20 0 -21 -6 -22 0 -63 0 -44 41 0 95 rrcurveto
          hintmask 11110000
          0 43 8 81 8 79 8 76 8 76 0 44 rrcurveto
          346 -79 106 -191 -90 -154 -23 -112 -52 22 -49 76 vhcurveto
          39 0 21 8 18 7 rrcurveto
          hintmask 11100100
          17 6 21 9 28 0 46 0 9 -68 0 -68 0 -164 -8 -94 -6 -74 rrcurveto
          hintmask 11110000
          -5 -53 -4 -57 0 -66 0 -103 28 -101 56 -44 -56 -32 -45 -88 0 -83 0 -185 26 -185 0 -201 0 -33 1 -54 -17 0 rrcurveto
          hintmask 11101000
          -46 0 -45 26 -52 -2 -68 -2 -28 -69 0 -42 rrcurveto
          -109 138 -20 70 vhcurveto
          157 114 30 226 hvcurveto
          endchar
        </CharString>
        <CharString name="bracketleft">
          -644 -319 227 1705 205 hstem
          150 225 vstem
          149 -146 rmoveto
          -78 22 -87 110 vhcurveto
          184 -7 27 -1 16 0 20 0 17 2 16 4 62 14 23 57 0 41 rrcurveto
          48 -36 65 -75 vhcurveto
          -61 -2 rlineto
          -17 -1 -16 -1 -67 0 rrcurveto
          3 1705 100 0 rlineto
          36 0 19 -2 19 0 rrcurveto
          37 99 4 106 48 -20 55 -77 hvcurveto
          -36 -1 -31 -5 -31 0 rrcurveto
          -224 hlineto
          -79 -39 -53 -103 hvcurveto
          0 -311 12 -278 0 -278 rrcurveto
          -102 vlineto
          -2 -287 -11 -276 0 -276 rrcurveto
          endchar
        </CharString>
        <CharString name="bracketright">
          -644 -319 227 1705 205 hstem
          472 225 vstem
          698 -146 rmoveto
          0 276 -11 276 -2 287 rrcurveto
          102 vlineto
          0 278 12 278 0 311 rrcurveto
          103 -39 53 -79 vhcurveto
          -224 hlineto
          -31 0 -31 5 -36 1 rrcurveto
          -77 -20 -55 -48 -106 99 -4 37 hvcurveto
          19 0 19 2 36 0 rrcurveto
          100 0 3 -1705 rlineto
          -67 0 -16 1 -17 1 rrcurveto
          -61 2 rlineto
          -75 -36 -65 -48 hvcurveto
          0 -41 23 -57 62 -14 16 -4 17 -2 20 0 16 0 27 1 184 7 110 0 22 87 0 78 rrcurveto
          endchar
        </CharString>
        <CharString name="breve">
          -432 1820 -21 hstem
          174 696 vstem
          521 1409 rmoveto
          158 191 113 186 64 -47 27 -46 hvcurveto
          -42 0 -37 -36 -12 -46 -19 -78 -60 -59 -82 0 -92 0 -64 56 -13 81 -9 51 -32 31 -48 0 rrcurveto
          -43 -50 -25 -59 -191 186 -115 161 hvcurveto
          endchar
        </CharString>
        <CharString name="breve.cap">
          -432 1816 -21 hstem
          183 692 vstem
          529 1622 rmoveto
          157 189 103 187 64 -48 27 -47 hvcurveto
          -45 0 -33 -30 -8 -52 -13 -81 -63 -45 -86 0 -90 0 -65 45 -14 81 -8 51 -32 31 -47 0 rrcurveto
          -43 -50 -26 -59 -190 183 -106 163 hvcurveto
          endchar
        </CharString>
        <CharString name="brokenbar">
          -642 -374 2096 hstem
          296 229 vstem
          415 779 rmoveto
          92 24 66 38 hvcurveto
          -15 68 -2 32 0 33 10 421 1 110 0 46 rrcurveto
          94 -17 35 -80 -105 -24 -60 -91 vhcurveto
          -287 vlineto
          -2 -129 -1 -172 0 -106 rrcurveto
          -60 47 -38 72 vhcurveto
          -116 -570 rmoveto
          -3 -117 0 -263 0 -105 rrcurveto
          -60 47 -38 72 92 24 67 38 vhcurveto
          0 25 -13 22 0 24 0 200 7 262 0 171 rrcurveto
          97 -14 57 -81 -106 -23 -52 -49 vhcurveto
          endchar
        </CharString>
        <CharString name="bullet">
          -648 608 385 hstem
          232 368 vstem
          416 608 rmoveto
          101 83 75 118 117 -83 75 -101 -102 -82 -75 -117 -118 82 -75 102 hvcurveto
          endchar
        </CharString>
        <CharString name="c">
          -107 -29 215 830 216 38 -20 hstem
          114 238 vstem
          114 604 rmoveto
          -49 callsubr
          endchar
        </CharString>
        <CharString name="cacute">
          -107 -29 215 830 216 38 -20 163 468 hstem
          114 238 279 505 vstem
          114 604 rmoveto
          -49 callsubr
          621 809 rmoveto
          31 callsubr
          endchar
        </CharString>
        <CharString name="caron">
          -483 1431 441 hstem
          97 805 vstem
          502 1431 rmoveto
          52 0 25 21 31 25 49 44 115 103 33 17 65 37 30 40 0 55 0 55 -49 44 -61 0 -26 0 -48 -14 -20 -22 -54 -50 -84 -70 -61 -42 rrcurveto
          -65 55 -73 43 -61 57 -23 20 -27 21 -54 0 -62 0 -37 -38 0 -55 0 -56 21 -31 54 -45 72 -58 71 -44 60 -57 43 -43 39 -12 45 0 rrcurveto
          endchar
        </CharString>
        <CharString name="caron.cap">
          -483 1595 415 hstem
          117 775 vstem
          506 1595 rmoveto
          55 callsubr
          endchar
        </CharString>
        <CharString name="caronvertical">
          -989 1136 557 hstem
          176 223 vstem
          217 1136 rmoveto
          65 0 46 77 16 42 38 108 17 82 0 89 rrcurveto
          71 -6 88 -100 -93 -24 -50 -66 vhcurveto
          0 -35 2 -20 0 -21 0 -67 3 -71 -38 -50 -16 -22 -12 -26 0 -33 0 -64 49 -32 53 0 rrcurveto
          endchar
        </CharString>
        <CharString name="ccaron">
          -107 -29 215 830 216 38 -20 181 441 hstem
          114 238 22 805 vstem
          114 604 rmoveto
          -49 callsubr
          665 827 rmoveto
          56 callsubr
          endchar
        </CharString>
        <CharString name="ccedilla">
          -107 -546 197 320 215 830 216 38 -20 hstem
          114 238 374 215 vstem
          114 604 rmoveto
          -49 callsubr
          405 -915 rmoveto
          24 callsubr
          endchar
        </CharString>
        <CharString name="ccircumflex">
          -107 -29 215 830 216 38 -20 190 432 hstem
          114 238 22 805 vstem
          114 604 rmoveto
          -49 callsubr
          359 838 rmoveto
          32 callsubr
          endchar
        </CharString>
        <CharString name="cdotaccent">
          -107 -29 215 830 216 38 -20 113 320 hstem
          114 238 322 231 vstem
          114 604 rmoveto
          -49 callsubr
          664 759 rmoveto
          54 callsubr
          endchar
        </CharString>
        <CharString name="cedilla">
          -275 -546 197 hstem
          559 215 vstem
          352 -311 rmoveto
          -47 -63 -22 -77 -77 98 -59 116 187 131 105 162 97 -113 130 -92 -51 -33 -49 -21 hvcurveto
          -2 -98 76 28 0 -95 0 -44 -31 -18 -53 0 -46 0 -32 38 -45 0 rrcurveto
          endchar
        </CharString>
        <CharString name="cent">
          14 1 -21 hstem
          180 224 vstem
          546 20 rmoveto
          -9 -74 -6 -65 -5 -54 -6 -71 65 -35 51 0 46 0 61 31 6 69 4 50 4 53 6 56 rrcurveto
          7 hlineto
          97 0 380 90 38 239 0 58 -83 48 -43 0 -41 0 -46 -22 -16 -58 -49 -87 -122 -46 -99 -6 19 169 22 178 21 165 rrcurveto
          33 261 rlineto
          74 -22 64 -46 39 -69 24 -36 49 -27 31 0 rrcurveto
          124 6 157 102 70 -69 50 -50 hvcurveto
          -38 0 -25 -10 -20 -30 -55 34 -63 26 -66 15 rrcurveto
          21 204 rlineto
          -1 56 -66 43 -43 0 -51 0 -58 -28 -4 -58 -4 -47 -7 -73 -9 -87 -320 -37 -184 -236 0 -344 0 -271 149 -203 217 -82 rrcurveto
          27 230 rmoveto
          -99 63 -70 115 0 155 0 168 47 173 208 47 -17 -154 -20 -166 -17 -140 rrcurveto
          endchar
        </CharString>
        <CharString name="circumflex">
          -483 1440 432 hstem
          97 805 vstem
          196 1442 rmoveto
          53 0 30 21 21 21 56 53 92 68 50 33 61 -40 85 -72 54 -50 21 -20 47 -16 26 0 61 0 49 35 0 56 0 53 -34 41 -60 36 rrcurveto
          -35 21 -110 89 -41 40 -38 36 -36 25 -46 0 -46 0 -39 -11 -44 -42 -56 -55 -49 -32 -96 -75 -55 -43 -20 -21 0 -57 0 -56 37 -38 62 0 rrcurveto
          endchar
        </CharString>
        <CharString name="circumflex.cap">
          -483 1798 -21 hstem
          168 712 vstem
          266 1622 rmoveto
          55 0 27 19 23 21 59 55 32 28 54 32 59 -39 39 -36 63 -53 22 -17 45 -17 27 0 62 0 47 33 0 56 0 55 -23 36 -71 39 rrcurveto
          -33 17 -74 58 -39 39 -38 38 -36 24 -47 0 -44 0 -39 -12 -44 -43 -36 -34 -62 -52 -48 -31 -56 -36 -22 -43 0 -54 0 -44 37 -39 61 0 rrcurveto
          endchar
        </CharString>
        <CharString name="colon">
          -904 -4 -21 698 -21 hstem
          169 249 vstem
          169 98 rmoveto
          -100 callsubr
          677 vmoveto
          -99 callsubr
          endchar
        </CharString>
        <CharString name="comma">
          -904 -260 562 hstem
          123 319 vstem
          150 -98 rmoveto
          -11 -18 -16 -23 0 -26 0 -52 33 -43 61 0 55 0 53 57 20 32 56 92 41 124 0 78 rrcurveto
          97 -25 82 -109 -108 -29 -96 -80 vhcurveto
          0 -27 9 -58 14 -28 -9 -35 -9 -36 -26 -40 rrcurveto
          endchar
        </CharString>
        <CharString name="commaaccent">
          -986 -529 -21 hstem
          218 233 vstem
          218 -216 rmoveto
          0 -30 5 -26 0 -25 0 -77 -74 -8 0 -79 rrcurveto
          -59 29 -30 60 107 106 142 120 90 -5 93 -110 -81 -37 -48 -63 vhcurveto
          endchar
        </CharString>
        <CharString name="copyright">
          708 -335 188 277 207 554 205 288 179 hstem
          166 216 207 231 965 218 vstem
          166 584 rmoveto
          -2 callsubr
          216 -3 rmoveto
          -1 callsubr
          207 10 rmoveto
          -268 225 -193 286 vhcurveto
          161 0 116 50 108 115 13 16 12 38 0 13 0 64 -46 46 -58 0 -32 0 -40 -13 -27 -28 -59 -64 -67 -30 -88 0 rrcurveto
          -141 -132 99 163 148 80 144 187 hvcurveto
          86 0 91 -45 30 -60 26 -49 48 -16 36 0 rrcurveto
          72 44 46 96 123 -37 46 -71 hvcurveto
          -31 0 -17 -8 -14 -8 -69 50 -97 30 -95 0 rrcurveto
          -295 -205 -198 -307 hvcurveto
          endchar
        </CharString>
        <CharString name="currency">
          -58 216 218 511 217 hstem
          229 226 495 221 vstem
          195 81 rmoveto
          74 0 67 80 54 69 17 20 16 20 16 16 74 -45 90 -25 98 0 104 0 95 28 76 52 26 -24 15 -20 19 -19 rrcurveto
          4 -6 0 2 rlineto
          18 -22 27 -33 35 -35 33 -35 32 -21 41 0 25 0 88 14 0 101 0 46 -42 38 -112 96 rrcurveto
          -75 64 rlineto
          39 70 22 83 0 94 0 87 -19 82 -37 71 rrcurveto
          35 28 rlineto
          78 62 102 85 0 48 0 97 -89 14 -27 0 -67 0 -61 -72 -57 -69 rrcurveto
          -40 -47 rlineto
          -75 54 -97 33 -116 0 -113 0 -99 -36 -78 -60 -19 20 -17 23 -16 22 -49 65 -60 72 -67 0 -30 0 -83 -12 0 -97 0 -57 38 -27 46 -34 rrcurveto
          49 -36 41 -39 38 -42 rrcurveto
          4 -4 rlineto
          -37 -69 -20 -78 0 -84 0 -104 26 -90 47 -73 rrcurveto
          -82 -72 rlineto
          -22 -20 -22 -15 -21 -13 -40 -28 -34 -20 0 -54 0 -95 85 -24 29 0 rrcurveto
          260 608 rmoveto
          141 84 115 165 163 83 -115 -141 -171 -106 -84 -140 -160 -89 96 159 vhcurveto
          endchar
        </CharString>
        <CharString name="d">
          86 -29 215 -180 -21 1030 217 330 219 hstemhm
          119 223 773 218 hintmask 10111100
          119 600 rmoveto
          -48 callsubr
          hintmask 01111100
          -47 callsubr
          223 hmoveto
          -46 callsubr
          endchar
        </CharString>
        <CharString name="dagger">
          -306 5 -21 1007 215 12 -20 363 -20 hstemhm
          467 218 -213 214 hintmask 11010100
          467 98 rmoveto
          -68 17 -46 107 94 24 55 59 vhcurveto
          0 18 -3 18 -3 16 rrcurveto
          -1 3 rlineto
          -13 185 -4 322 0 303 rrcurveto
          27 vlineto
          55 1 53 0 52 0 rrcurveto
          59 48 47 73 hvcurveto
          hintmask 11011000
          92 -54 15 -50 vhcurveto
          -27 0 -33 -12 -25 0 rrcurveto
          -78 0 3 189 rlineto
          5 14 5 23 0 15 rrcurveto
          38 -37 76 -60 -122 -18 -46 -70 vhcurveto
          0 -40 11 -39 0 -38 rrcurveto
          -122 -115 vlineto
          hintmask 10111000
          -88 -60 -10 -81 hvcurveto
          hintmask 11010100
          -106 52 -22 48 vhcurveto
          59 0 54 0 50 1 rrcurveto
          -1 -845 -4 -26 0 -19 rrcurveto
          endchar
        </CharString>
        <CharString name="daggerdbl">
          -306 5 -21 494 215 298 215 12 -20 363 -20 hstemhm
          467 222 -217 213 hintmask 11011010
          467 98 rmoveto
          hintmask 11011100
          -68 17 -46 107 94 24 55 59 vhcurveto
          0 18 -3 18 -3 16 rrcurveto
          -1 3 rlineto
          -6 84 -4 113 -3 127 54 1 51 0 51 0 rrcurveto
          59 48 47 73 92 -54 15 -50 hvcurveto
          -27 0 -33 -12 -25 0 rrcurveto
          -77 hlineto
          hintmask 11101010
          -1 89 0 91 0 90 rrcurveto
          27 vlineto
          55 1 53 0 52 0 rrcurveto
          59 48 47 73 92 -54 15 -50 hvcurveto
          -27 0 -33 -12 -25 0 rrcurveto
          hintmask 11011010
          -78 0 rlineto
          hintmask 11101010
          3 189 rlineto
          5 14 5 23 0 15 rrcurveto
          38 -37 76 -60 -122 -18 -46 -70 vhcurveto
          0 -40 11 -39 0 -38 rrcurveto
          -122 -115 vlineto
          -88 -60 -10 -81 -106 52 -22 48 hvcurveto
          59 0 54 0 50 1 0 -110 -1 -101 0 -84 rrcurveto
          -114 hlineto
          -88 -60 -10 -81 -106 52 -22 48 hvcurveto
          59 0 53 0 50 1 rrcurveto
          -2 -347 -2 -16 0 -14 rrcurveto
          endchar
        </CharString>
        <CharString name="dcaron">
          240 -12 215 -180 -21 1030 217 -113 557 -114 219 hstemhm
          119 223 773 218 181 223 hintmask 10101110
          119 617 rmoveto
          -48 callsubr
          hintmask 01101110
          -47 callsubr
          223 hmoveto
          -46 callsubr
          hintmask 00010001
          1213 519 rmoveto
          57 callsubr
          endchar
        </CharString>
        <CharString name="dcroat">
          86 -29 215 -180 -21 1030 217 11 182 -176 178 135 219 hstemhm
          119 223 770 227 -224 218 hintmask 1010011010000000
          119 600 rmoveto
          -351 227 -278 346 vhcurveto
          172 0 171 73 106 108 20 -101 39 -66 63 0 32 0 44 26 45 24 rrcurveto
          hintmask 1010111100000000
          30 16 29 15 32 15 32 13 37 34 0 56 0 79 -58 32 -45 -5 -30 -3 -25 -13 -28 -16 rrcurveto
          -18 -11 rlineto
          -5 59 -2 111 0 130 0 90 0 322 3 285 rrcurveto
          119 -1 rlineto
          hintmask 1010011010000000
          61 37 21 76 94 -59 1 -39 hvcurveto
          -28 0 -24 -10 -25 0 rrcurveto
          -40 0 rlineto
          hintmask 0111011010000000
          3 197 rlineto
          6 13 3 16 0 24 0 64 -34 42 -56 0 -102 -1 -87 -5 -88 1 -24 6 -19 0 -13 0 rrcurveto
          -54 -41 -39 -69 -76 55 -46 48 hvcurveto
          33 0 29 10 30 0 rrcurveto
          85 hlineto
          0 -48 1 -45 0 -43 rrcurveto
          -110 1 rlineto
          -86 -32 -32 -49 hvcurveto
          hintmask 1011011100000000
          -73 53 -24 48 vhcurveto
          129 -2 rlineto
          1 -89 0 -68 0 -35 -88 115 -152 62 -156 0 rrcurveto
          -344 -257 -270 -362 hvcurveto
          223 hmoveto
          -46 callsubr
          endchar
        </CharString>
        <CharString name="degree">
          -639 902 186 hstem
          95 202 247 201 vstem
          435 902 rmoveto
          211 99 146 171 hvcurveto
          0 147 -102 159 -168 20 -11 1 -9 -2 -7 -4 -11 6 -11 4 -17 0 rrcurveto
          -187 -127 -146 -177 -208 145 -117 195 hvcurveto
          -6 186 rmoveto
          -89 -43 52 89 hvcurveto
          0 59 40 58 60 12 7 1 12 3 11 3 64 -15 53 -45 0 -83 rrcurveto
          -63 -34 -71 -81 vhcurveto
          endchar
        </CharString>
        <CharString name="dieresis">
          -483 1388 327 hstem
          130 722 vstem
          241 1395 rmoveto
          69 109 135 70 54 -57 61 -61 -71 -100 -129 -85 -65 61 -41 50 hvcurveto
          423 -7 rmoveto
          -3 callsubr
          endchar
        </CharString>
        <CharString name="dieresis.cap">
          -484 1642 326 hstem
          137 734 vstem
          247 1649 rmoveto
          70 109 134 70 56 -57 59 -62 -70 -100 -128 -86 -63 61 -42 49 hvcurveto
          437 -7 rmoveto
          18 callsubr
          endchar
        </CharString>
        <CharString name="divide">
          -306 157 -21 474 221 171 -21 hstemhm
          105 938 -607 249 hintmask 10001000
          436 259 rmoveto
          -99 callsubr
          hintmask 00101000
          845 vmoveto
          -99 callsubr
          hintmask 01010000
          -232 -488 rmoveto
          460 -5 78 -1 78 0 53 0 39 -1 33 0 rrcurveto
          60 38 46 72 91 -54 23 -50 hvcurveto
          -30 0 -22 -4 -19 -7 rrcurveto
          -621 1 rlineto
          -85 -57 -7 -82 hvcurveto
          -104 52 -22 47 vhcurveto
          endchar
        </CharString>
        <CharString name="dollar">
          -94 -18 -21 23 -21 hstemhm
          225 223 -157 224 98 233 160 224 hintmask 01011100
          225 325 rmoveto
          0 -219 187 -116 203 -29 -2 -62 0 -77 0 -41 rrcurveto
          -69 42 -19 64 92 16 60 86 vhcurveto
          124 vlineto
          210 36 193 141 0 253 0 280 -226 112 -190 85 rrcurveto
          hintmask 10101100
          -152 70 -147 69 0 145 0 118 143 56 89 0 84 0 97 -10 40 -81 5 -60 61 -44 54 0 57 0 51 40 0 73 0 181 -196 87 -155 24 rrcurveto
          1 47 0 54 0 36 rrcurveto
          69 -42 18 -62 -93 -15 -59 -85 vhcurveto
          hintmask 01011100
          -88 vlineto
          -178 -43 -165 -130 0 -196 0 -295 213 -95 185 -75 142 -57 175 -74 0 -173 rrcurveto
          -169 -146 -53 -141 -124 -147 40 116 vhcurveto
          0 22 5 23 5 25 5 26 5 27 0 32 rrcurveto
          62 -47 41 -61 vhcurveto
          -134 -1 -140 -119 hvcurveto
          endchar
        </CharString>
        <CharString name="dotaccent">
          -1148 1363 320 hstem
          60 231 vstem
          164 1363 rmoveto
          32 0 31 9 17 15 31 26 4 18 5 61 3 29 4 23 0 25 0 68 -36 46 -79 0 -26 0 -29 -8 -22 -17 -30 -24 -9 -31 0 -43 rrcurveto
          0 -11 0 -21 1 -51 -1 -29 0 -25 20 -25 20 -26 34 -9 30 0 rrcurveto
          endchar
        </CharString>
        <CharString name="dotaccent.cap">
          -1155 1648 320 hstem
          65 221 vstem
          164 1648 rmoveto
          53 callsubr
          endchar
        </CharString>
        <CharString name="dotlessi">
          -669 -8 -21 1032 216 hstem
          326 212 vstem
          311 75 rmoveto
          -38 callsubr
          endchar
        </CharString>
        <CharString name="dotlessj">
          -730 -500 -21 1524 214 1 -20 hstemhm
          329 210 hintmask 10110000
          47 -304 rmoveto
          61 callsubr
          hintmask 11010000
          62 callsubr
          endchar
        </CharString>
        <CharString name="e">
          -90 -29 215 830 216 hstem
          114 1169 vstem
          357 451 rmoveto
          281 65 269 47 269 68 61 15 46 39 0 59 0 36 -13 41 -26 22 -48 229 -197 160 -257 0 rrcurveto
          -357 -271 -255 -394 -272 189 -340 396 hvcurveto
          223 0 164 90 111 103 51 46 15 41 0 25 0 66 -39 43 -66 0 -35 0 -45 -35 -26 -40 -29 -42 -114 -82 -209 0 -133 0 -158 66 -52 199 rrcurveto
          -17 185 rmoveto
          -45 callsubr
          endchar
        </CharString>
        <CharString name="eacute">
          -90 -29 215 830 216 181 468 hstemhm
          114 1169 -725 505 hintmask 11010000
          357 451 rmoveto
          45 callsubr
          -17 185 rmoveto
          -45 callsubr
          hintmask 00101000
          322 777 rmoveto
          31 callsubr
          endchar
        </CharString>
        <CharString name="ebreve">
          -90 -29 215 830 216 588 -21 hstemhm
          114 1169 -905 696 hintmask 11010000
          357 451 rmoveto
          45 callsubr
          -17 185 rmoveto
          -45 callsubr
          hintmask 00101000
          385 773 rmoveto
          52 callsubr
          endchar
        </CharString>
        <CharString name="ecaron">
          -90 -29 215 830 216 199 441 hstemhm
          114 1169 -982 805 hintmask 11010000
          357 451 rmoveto
          45 callsubr
          -17 185 rmoveto
          -45 callsubr
          hintmask 00101000
          366 795 rmoveto
          56 callsubr
          endchar
        </CharString>
        <CharString name="ecircumflex">
          -90 -29 215 830 216 208 432 hstemhm
          114 1169 -982 805 hintmask 11010000
          357 451 rmoveto
          45 callsubr
          -17 185 rmoveto
          -45 callsubr
          hintmask 00101000
          60 806 rmoveto
          32 callsubr
          endchar
        </CharString>
        <CharString name="edieresis">
          -90 -29 215 830 216 156 327 hstemhm
          114 1169 -949 722 hintmask 11010000
          357 451 rmoveto
          45 callsubr
          -17 185 rmoveto
          -45 callsubr
          hintmask 00101000
          105 759 rmoveto
          36 callsubr
          423 -7 rmoveto
          -3 callsubr
          endchar
        </CharString>
        <CharString name="edotaccent">
          -90 -29 215 830 216 131 320 hstemhm
          114 1169 -682 231 hintmask 11010000
          357 451 rmoveto
          45 callsubr
          -17 185 rmoveto
          -45 callsubr
          hintmask 00101000
          365 727 rmoveto
          54 callsubr
          endchar
        </CharString>
        <CharString name="egrave">
          -90 -29 215 830 216 172 471 hstemhm
          114 1169 -934 498 hintmask 11010000
          357 451 rmoveto
          45 callsubr
          -17 185 rmoveto
          -45 callsubr
          hintmask 00101000
          390 768 rmoveto
          -56 callsubr
          endchar
        </CharString>
        <CharString name="eight">
          30 -31 209 1253 202 hstemhm
          156 237 -150 227 541 227 -119 224 hintmask 11011000
          156 468 rmoveto
          -315 302 -184 291 311 283 183 316 vhcurveto
          0 184 -115 98 -212 90 rrcurveto
          hintmask 11100100
          127 85 95 144 0 147 rrcurveto
          275 -202 142 -291 -290 -212 -149 -265 vhcurveto
          0 -174 103 -120 130 -74 rrcurveto
          -179 -63 -141 -131 0 -189 rrcurveto
          610 467 rmoveto
          -145 58 -151 94 0 131 rrcurveto
          167 147 46 129 132 133 -57 -157 vhcurveto
          0 -129 -108 -119 -137 -34 rrcurveto
          hintmask 11011000
          -373 -455 rmoveto
          0 148 147 73 161 33 180 -55 238 -77 0 -140 rrcurveto
          -197 -181 -87 -194 vhcurveto
          -184 -167 116 186 hvcurveto
          endchar
        </CharString>
        <CharString name="ellipsis">
          272 -16 -21 33 -21 37 -21 hstemhm
          169 249 325 249 354 249 hintmask 01010000
          169 98 rmoveto
          -99 callsubr
          hintmask 00101000
          574 16 rmoveto
          -99 callsubr
          hintmask 10000100
          603 -28 rmoveto
          -99 callsubr
          endchar
        </CharString>
        <CharString name="emacron">
          -90 -29 215 830 216 233 188 hstemhm
          114 1169 -992 800 hintmask 11010000
          357 451 rmoveto
          45 callsubr
          -17 185 rmoveto
          -45 callsubr
          hintmask 00101000
          85 829 rmoveto
          50 callsubr
          endchar
        </CharString>
        <CharString name="emdash">
          370 609 221 hstem
          110 1652 vstem
          209 615 rmoveto
          497 -5 837 -1 101 0 rrcurveto
          58 60 46 72 91 -68 23 -37 hvcurveto
          -15 0 -17 -2 -17 -3 -16 -3 -16 -3 -9 0 rrcurveto
          -1315 hlineto
          -85 -57 -7 -81 -105 52 -22 47 hvcurveto
          endchar
        </CharString>
        <CharString name="endash">
          -144 608 221 hstem
          106 1117 vstem
          206 614 rmoveto
          496 -5 312 -1 101 0 rrcurveto
          59 49 46 72 91 -68 24 -36 hvcurveto
          -30 0 -25 -12 -25 0 rrcurveto
          -791 hlineto
          -85 -57 -7 -81 -105 52 -22 48 hvcurveto
          endchar
        </CharString>
        <CharString name="eng">
          138 -490 -21 496 -21 1045 217 -198 210 hstemhm
          297 212 702 218 hintmask 11011100
          283 64 rmoveto
          hintmask 11101100
          -65 23 -35 79 vhcurveto
          23 0 29 7 31 9 24 7 18 2 19 2 69 8 89 12 0 101 0 67 -38 37 -72 0 -11 0 -15 -3 -42 -12 -1 279 0 159 5 182 rrcurveto
          75 96 171 111 181 0 rrcurveto
          226 45 -196 -214 hvcurveto
          5 -811 rlineto
          -62 -53 -36 -60 vhcurveto
          -38 0 -30 19 -22 16 -19 13 -24 14 -23 0 rrcurveto
          -81 -32 -76 -49 -106 143 -51 116 hvcurveto
          170 0 158 128 10 174 rrcurveto
          -2 828 rlineto
          370 -148 249 -338 vhcurveto
          -169 0 -150 -75 -101 -83 1 14 2 14 -1 15 0 65 -41 38 -54 0 -60 0 -51 -8 -52 0 -22 0 -21 8 -21 0 rrcurveto
          -52 -43 -37 -72 -79 57 -29 48 hvcurveto
          32 0 29 2 17 3 8 -363 -2 -213 0 -170 0 -52 -5 -43 -4 -34 rrcurveto
          -3 -25 -2 -26 0 -24 rrcurveto
          endchar
        </CharString>
        <CharString name="eogonek">
          -90 -484 203 252 215 830 216 hstem
          639 208 vstem
          357 451 rmoveto
          281 65 269 47 269 68 61 15 46 39 0 59 0 36 -13 41 -26 22 -48 229 -197 160 -257 0 rrcurveto
          -357 -271 -255 -394 -272 189 -340 396 hvcurveto
          11 hlineto
          -47 -65 -24 -66 0 -58 rrcurveto
          -162 138 -104 136 139 134 56 112 51 -48 52 -54 vhcurveto
          -22 0 -29 -8 -22 -19 -32 -29 -14 -12 -46 0 -27 0 -45 23 0 71 0 89 56 66 59 49 96 36 77 54 62 57 51 46 15 41 0 25 rrcurveto
          66 -39 43 -66 vhcurveto
          -35 0 -45 -35 -26 -40 -29 -42 -114 -82 -209 0 -133 0 -158 66 -52 199 rrcurveto
          -17 185 rmoveto
          -45 callsubr
          endchar
        </CharString>
        <CharString name="equal">
          -308 325 220 279 220 hstem
          105 938 vstem
          204 830 rmoveto
          616 -6 rlineto
          53 0 39 -1 33 0 rrcurveto
          60 38 46 71 92 -68 23 -36 hvcurveto
          -15 0 -13 -3 -12 -3 -11 -3 -11 -3 -9 0 rrcurveto
          -621 1 rlineto
          -85 -57 -6 -82 -105 52 -21 47 hvcurveto
          -499 vmoveto
          616 -6 rlineto
          53 0 39 -1 33 0 rrcurveto
          60 38 46 72 91 -68 23 -36 hvcurveto
          -15 0 -13 -3 -12 -3 -11 -3 -11 -3 -9 0 rrcurveto
          -621 1 rlineto
          -85 -57 -6 -82 -105 52 -21 47 hvcurveto
          endchar
        </CharString>
        <CharString name="eth">
          -137 -29 214 825 208 hstem
          85 229 722 234 vstem
          85 598 rmoveto
          -370 280 -257 312 371 222 276 390 vhcurveto
          0 273 -64 244 -129 230 -59 98 -101 101 -114 87 rrcurveto
          68 66 rlineto
          24 24 24 47 0 30 0 68 -56 32 -61 0 -27 0 -28 -18 -19 -20 rrcurveto
          -99 -113 rlineto
          -99 57 -97 41 -79 15 -64 8 -77 -39 0 -72 0 -44 28 -43 64 -21 63 -13 61 -22 59 -28 -30 -32 -29 -31 -33 -33 -25 -26 -12 -34 0 -24 rrcurveto
          -75 64 -26 40 vhcurveto
          31 0 29 17 19 13 45 55 38 45 35 40 121 -97 98 -126 61 -131 -77 37 -117 21 -85 0 rrcurveto
          -373 -203 -298 -322 hvcurveto
          229 -8 rmoveto
          254 138 166 211 vhcurveto
          106 0 137 -21 88 -90 41 -42 1 -119 0 -54 rrcurveto
          -374 -148 -125 -208 -183 -183 160 245 vhcurveto
          endchar
        </CharString>
        <CharString name="exclam">
          -868 -10 -21 hstemhm
          188 249 -244 232 hintmask 11000000
          317 505 rmoveto
          hintmask 10100000
          69 47 34 62 hvcurveto
          0 39 -8 27 0 29 0 381 12 537 0 175 rrcurveto
          82 -60 29 -56 -94 -34 -50 -55 vhcurveto
          0 -376 24 -360 0 -360 rrcurveto
          hintmask 11000000
          0 -33 -6 -29 0 -31 rrcurveto
          -68 51 -33 55 vhcurveto
          -129 -419 rmoveto
          -1 -46 40 -71 72 0 rrcurveto
          74 59 79 138 75 -55 40 -68 hvcurveto
          -94 0 -24 -68 -3 -147 rrcurveto
          endchar
        </CharString>
        <CharString name="exclamdown">
          -868 1557 21 hstemhm
          187 249 -237 232 hintmask 11000000
          307 1042 rmoveto
          hintmask 10100000
          -69 -47 -34 -62 hvcurveto
          0 -39 8 -27 0 -29 0 -381 -12 -537 0 -175 rrcurveto
          -82 60 -29 56 94 34 50 55 vhcurveto
          0 376 -24 360 0 360 rrcurveto
          hintmask 11000000
          0 33 6 29 0 31 rrcurveto
          68 -51 33 -55 vhcurveto
          129 419 rmoveto
          1 46 -40 71 -72 0 rrcurveto
          -74 -59 -79 -138 -75 55 -40 68 hvcurveto
          94 0 24 68 3 147 rrcurveto
          endchar
        </CharString>
        <CharString name="f">
          -528 -8 -21 1026 212 371 202 hstemhm
          255 220 -199 220 hintmask 11101000
          280 89 rmoveto
          hintmask 11110000
          -44 callsubr
          hintmask 11101000
          -43 callsubr
          endchar
        </CharString>
        <CharString name="ff">
          437 -8 -21 1026 212 371 202 hstemhm
          255 220 -199 220 723 220 -199 220 hintmask 11101000
          280 89 rmoveto
          hintmask 11110000
          -44 callsubr
          hintmask 11101000
          -43 callsubr
          hintmask 00000000
          964 hmoveto
          hintmask 11100010
          -44 callsubr
          hintmask 11100100
          -43 callsubr
          endchar
        </CharString>
        <CharString name="ffi">
          1269 -8 -21 1026 212 371 202 hstemhm
          255 220 -199 220 723 220 -199 220 hintmask 11101000
          280 89 rmoveto
          hintmask 11110000
          -44 callsubr
          hintmask 11101000
          -43 callsubr
          hintmask 00000000
          964 hmoveto
          hintmask 11100010
          -44 callsubr
          hintmask 11100100
          -43 callsubr
          hintmask 11100010
          1167 1289 rmoveto
          60 callsubr
          -171 -1303 rmoveto
          -38 callsubr
          endchar
        </CharString>
        <CharString name="ffl">
          1227 -8 -21 1026 212 371 202 hstemhm
          255 220 -199 220 723 220 -199 220 hintmask 11101000
          280 89 rmoveto
          hintmask 11110000
          -44 callsubr
          hintmask 11101000
          -43 callsubr
          hintmask 00000000
          964 hmoveto
          hintmask 11100010
          -44 callsubr
          hintmask 11100100
          -43 callsubr
          hintmask 11100010
          939 14 rmoveto
          63 callsubr
          endchar
        </CharString>
        <CharString name="fi">
          305 -8 -21 1026 212 -206 216 361 202 hstemhm
          255 220 -199 220 794 212 hintmask 11010100
          280 89 rmoveto
          hintmask 11011000
          -44 callsubr
          hintmask 11010100
          -43 callsubr
          hintmask 10100010
          1166 1289 rmoveto
          60 callsubr
          -171 -1303 rmoveto
          -38 callsubr
          endchar
        </CharString>
        <CharString name="five">
          203 -31 199 747 203 313 202 hstem
          1200 233 vstem
          224 437 rmoveto
          -278 315 -190 272 306 316 188 395 323 -218 243 -378 vhcurveto
          -94 0 -134 -25 -91 -54 rrcurveto
          59 392 rlineto
          220 0 298 0 122 -5 79 -2 43 51 0 57 rrcurveto
          47 -35 54 -77 vhcurveto
          -755 hlineto
          -107 -2 -10 -105 -9 -107 rrcurveto
          1 vlineto
          -36 -301 -4 -126 -7 -36 -23 -38 -20 -41 0 -55 0 -59 42 -54 65 0 81 0 47 53 10 74 92 54 107 24 123 0 rrcurveto
          260 117 -190 -187 -248 -177 -122 -184 hvcurveto
          -277 0 -96 175 -38 122 -16 50 -42 32 -44 1 -71 -7 -31 -40 0 -64 rrcurveto
          endchar
        </CharString>
        <CharString name="fl">
          262 -8 -21 1026 212 356 217 -202 202 hstemhm
          255 220 -199 220 729 212 hintmask 11010100
          280 89 rmoveto
          hintmask 11011000
          -44 callsubr
          hintmask 11010100
          -43 callsubr
          hintmask 10100010
          938 14 rmoveto
          63 callsubr
          endchar
        </CharString>
        <CharString name="florin">
          -468 826 215 -214 208 326 213 hstemhm
          82 897 hintmask 10110000
          143 -233 rmoveto
          -1 -3 0 -6 0 -1 0 -71 55 -39 57 0 50 0 44 31 17 65 3 28 5 32 3 30 42 332 35 292 50 369 rrcurveto
          214 hlineto
          59 38 34 77 91 -66 24 -38 hvcurveto
          -26 0 -22 -11 -22 0 rrcurveto
          -107 -2 rlineto
          7 54 8 53 8 58 rrcurveto
          hintmask 01110000
          71 42 86 85 vhcurveto
          26 0 33 -15 5 -27 20 -65 33 -32 56 0 rrcurveto
          61 62 39 73 181 -153 59 -136 hvcurveto
          -192 0 -133 -101 -30 -216 -6 -55 -8 -60 -13 -106 rrcurveto
          -132 -1 rlineto
          -40 -3 -54 -21 0 -66 rrcurveto
          -109 52 -9 47 vhcurveto
          hintmask 10110000
          100 hlineto
          -45 -346 -51 -379 -42 -335 rrcurveto
          endchar
        </CharString>
        <CharString name="four">
          60 331 213 -210 202 hstemhm
          502 232 211 225 -222 224 hintmask 01110000
          145 308 rmoveto
          12 0 60 2 45 21 rrcurveto
          -2 hlineto
          90 3 179 0 161 0 rrcurveto
          257 hlineto
          1 -135 0 -112 0 -154 rrcurveto
          -71 66 -32 46 48 64 32 71 vhcurveto
          hintmask 01101000
          0 121 0 146 -1 132 54 0 51 -1 44 0 72 0 28 65 0 43 0 46 -43 61 -71 -1 rrcurveto
          hintmask 10101000
          -45 -1 -45 0 -45 0 rrcurveto
          166 vlineto
          0 91 -1 133 0 96 rrcurveto
          73 -61 38 -52 vhcurveto
          hintmask 10110000
          -52 -60 -38 -73 hvcurveto
          0 -160 0 -173 1 -156 -174 -3 -175 -2 -165 0 128 150 174 452 0 339 rrcurveto
          134 -21 60 -95 vhcurveto
          hintmask 01110000
          -52 -64 -38 -74 hvcurveto
          0 -146 0 -77 -4 -52 -20 -280 -139 -277 -171 -183 -66 -3 -84 -22 0 -98 rrcurveto
          -86 70 -27 57 vhcurveto
          endchar
        </CharString>
        <CharString name="fraction">
          -481 -8 -21 hstem
          144 798 vstem
          144 73 rmoveto
          9 callsubr
          endchar
        </CharString>
        <CharString name="g">
          15 -494 212 253 215 844 202 hstemhm
          115 223 761 220 -210 217 hintmask 11111000
          242 -255 rmoveto
          -42 callsubr
          hintmask 11110100
          -41 callsubr
          hintmask 11111000
          -40 callsubr
          hintmask 11110100
          96 855 rmoveto
          -39 callsubr
          endchar
        </CharString>
        <CharString name="gbreve">
          15 -494 212 253 215 844 202 588 -21 hstemhm
          115 223 73 696 -8 220 -210 217 hintmask 11101010
          242 -255 rmoveto
          -42 callsubr
          hintmask 11101001
          -41 callsubr
          hintmask 11101010
          -40 callsubr
          hintmask 11101001
          96 855 rmoveto
          -39 callsubr
          hintmask 00010100
          420 809 rmoveto
          52 callsubr
          endchar
        </CharString>
        <CharString name="gcircumflex">
          15 -494 212 253 215 844 202 208 432 hstemhm
          115 223 -4 805 -40 220 -210 217 hintmask 11101010
          242 -255 rmoveto
          -42 callsubr
          hintmask 11101001
          -41 callsubr
          hintmask 11101010
          -40 callsubr
          hintmask 11101001
          96 855 rmoveto
          -39 callsubr
          hintmask 00010100
          95 842 rmoveto
          32 callsubr
          endchar
        </CharString>
        <CharString name="gcommaaccent">
          15 -494 212 253 215 844 202 565 21 hstemhm
          115 223 216 233 312 220 -210 217 hintmask 11101010
          242 -255 rmoveto
          -42 callsubr
          hintmask 11101001
          -41 callsubr
          hintmask 11101010
          -40 callsubr
          hintmask 11101001
          96 855 rmoveto
          -39 callsubr
          hintmask 00010100
          449 884 rmoveto
          0 30 -5 26 0 25 0 77 74 8 0 79 rrcurveto
          59 -29 30 -60 -107 -106 -142 -120 -90 5 -93 110 vhcurveto
          81 37 48 63 hvcurveto
          endchar
        </CharString>
        <CharString name="gdotaccent">
          15 -494 212 253 215 844 202 131 320 hstemhm
          115 223 295 231 235 220 -210 217 hintmask 11101010
          242 -255 rmoveto
          -42 callsubr
          hintmask 11101001
          -41 callsubr
          hintmask 11101010
          -40 callsubr
          hintmask 11101001
          96 855 rmoveto
          -39 callsubr
          hintmask 00010100
          399 763 rmoveto
          54 callsubr
          endchar
        </CharString>
        <CharString name="germandbls">
          -1 -31 212 643 221 465 202 hstem
          237 234 469 230 34 237 vstem
          237 71 rmoveto
          -69 74 -33 45 46 70 33 69 vhcurveto
          0 403 -1 228 0 503 rrcurveto
          238 142 67 126 117 84 -66 -87 vhcurveto
          0 -108 -65 -72 -67 -59 -42 -41 -35 -45 0 -76 0 -105 134 -64 87 -47 177 -99 75 -77 0 -160 0 -102 -67 -121 -118 0 -104 0 -70 49 -7 24 rrcurveto
          -5 8 -4 11 -3 12 -14 47 -25 64 -80 0 rrcurveto
          -72 -46 -50 -71 -168 158 -138 279 270 145 231 207 hvcurveto
          0 215 -124 157 -272 139 -39 20 -43 19 0 14 0 16 10 15 44 35 73 63 80 120 0 143 rrcurveto
          229 -186 120 -245 -268 -234 -149 -370 vhcurveto
          0 -113 -1 -5 0 -30 rrcurveto
          -49 hlineto
          -98 -34 -51 -58 -50 33 -62 97 hvcurveto
          51 hlineto
          0 -216 1 -177 0 -360 rrcurveto
          endchar
        </CharString>
        <CharString name="grave">
          -816 1404 471 hstem
          50 498 vstem
          431 1404 rmoveto
          -56 callsubr
          endchar
        </CharString>
        <CharString name="grave.cap">
          -811 1605 405 hstem
          35 424 vstem
          345 1605 rmoveto
          66 48 43 76 hvcurveto
          0 47 -55 46 -22 9 -46 39 -58 57 -31 33 -42 48 -37 7 -26 0 -56 0 -51 -55 0 -45 1 -40 7 -30 44 -36 36 -29 2 -7 55 -51 rrcurveto
          11 -9 14 -16 10 -11 32 -37 38 -39 60 0 rrcurveto
          endchar
        </CharString>
        <CharString name="greater">
          -308 185 810 hstem
          229 805 vstem
          983 493 rmoveto
          38 16 13 62 0 42 0 69 -28 20 -62 17 -168 69 -162 85 -185 81 -19 15 -44 26 -33 0 -50 0 -51 -68 0 -57 0 -68 37 -15 44 -19 rrcurveto
          0 1 388 -181 -370 -176 rlineto
          -30 -4 -72 -26 0 -77 0 -54 33 -66 70 0 39 0 29 16 24 15 89 47 358 182 112 48 rrcurveto
          endchar
        </CharString>
        <CharString name="greaterequal">
          -306 0 211 hstem
          86 1003 vstem
          887 307 rmoveto
          69 34 63 55 hvcurveto
          0 78 -73 24 -29 3 rrcurveto
          -411 158 rlineto
          341 119 48 17 41 15 43 19 37 15 0 67 0 52 -53 69 -48 0 -38 0 -37 -24 -19 -13 rrcurveto
          -553 -214 3 0 rlineto
          0 0 -8 -3 -9 -3 -35 -13 -36 -12 0 -71 0 -42 13 -61 36 -15 89 -34 187 -81 321 -140 25 -13 27 -15 35 0 rrcurveto
          202 -208 rmoveto
          0 49 -26 50 -49 8 rrcurveto
          -755 5 rlineto
          -23 0 -22 13 -25 0 -37 0 -66 -19 0 -90 0 -70 34 -44 109 -1 rrcurveto
          778 hlineto
          59 3 23 46 0 50 rrcurveto
          endchar
        </CharString>
        <CharString name="guillemotleft">
          540 169 871 hstem
          212 800 33 800 vstem
          263 513 rmoveto
          0 callsubr
          833 hmoveto
          191 -96 165 -121 194 -94 rrcurveto
          -1 hlineto
          26 -17 26 -16 45 0 69 0 34 57 0 54 0 77 -74 34 -29 6 rrcurveto
          -377 213 rlineto
          167 92 109 60 116 48 46 20 41 34 0 72 0 57 -52 47 -49 0 -41 0 -45 -28 -15 -15 rrcurveto
          2 hlineto
          -287 -150 -124 -61 -102 -48 -58 -17 -28 -20 0 -67 rrcurveto
          0 -42 14 -63 37 -16 rrcurveto
          endchar
        </CharString>
        <CharString name="guillemotright">
          536 169 871 hstem
          188 800 28 800 vstem
          937 513 rmoveto
          7 callsubr
          828 hmoveto
          7 callsubr
          endchar
        </CharString>
        <CharString name="guilsinglleft">
          -292 169 871 hstem
          212 800 vstem
          263 513 rmoveto
          0 callsubr
          endchar
        </CharString>
        <CharString name="guilsinglright">
          -292 169 871 hstem
          188 800 vstem
          937 513 rmoveto
          7 callsubr
          endchar
        </CharString>
        <CharString name="h">
          63 -8 -21 1045 216 hstem
          219 214 678 225 vstem
          205 72 rmoveto
          -65 23 -36 79 vhcurveto
          26 0 65 16 49 11 26 5 27 7 26 5 47 10 36 47 0 48 0 67 -39 40 -72 -3 -17 -1 -14 -5 -12 -5 -17 -6 -3 -1 -2 0 rrcurveto
          -2 204 0 197 3 197 86 108 140 104 133 0 229 0 89 -145 0 -252 0 -151 -53 -168 -69 -98 -28 -36 -23 -46 0 -36 0 -66 34 -47 86 0 rrcurveto
          53 0 173 47 78 28 47 16 33 38 0 50 0 28 -17 77 -89 0 -35 0 -28 -11 -29 -10 55 113 37 149 0 123 0 418 -194 195 -336 0 rrcurveto
          -141 0 -135 -72 -93 -82 rrcurveto
          2 51 rlineto
          3 206 4 172 0 172 0 64 -40 39 -55 0 -21 0 -31 -2 -29 -2 -27 -3 -28 -1 -27 0 -23 0 -19 8 -21 0 rrcurveto
          -52 -43 -38 -70 -80 57 -29 48 hvcurveto
          31 0 21 7 20 -2 6 -368 6 -690 0 -236 0 -52 -5 -42 -4 -35 -3 -25 -2 -26 0 -24 rrcurveto
          endchar
        </CharString>
        <CharString name="hbar">
          63 -8 -21 1045 216 37 164 -159 161 hstemhm
          207 239 -227 214 678 225 hintmask 11011010
          205 72 rmoveto
          -65 23 -36 79 vhcurveto
          26 0 65 16 49 11 26 5 27 7 26 5 47 10 36 47 0 48 0 67 -39 40 -72 -3 -17 -1 -14 -5 -12 -5 -17 -6 -3 -1 -2 0 rrcurveto
          -2 204 0 197 3 197 86 108 140 104 133 0 229 0 89 -145 0 -252 0 -151 -53 -168 -69 -98 rrcurveto
          hintmask 11010110
          -28 -36 -23 -46 0 -36 0 -66 34 -47 86 0 53 0 173 47 78 28 47 16 33 38 0 50 0 28 -17 77 -89 0 -35 0 -28 -11 -29 -10 rrcurveto
          55 113 37 149 0 123 0 418 -194 195 -336 0 -141 0 -135 -72 -93 -82 rrcurveto
          2 51 rlineto
          0 49 1 47 1 46 59 -1 57 -1 58 0 rrcurveto
          59 47 15 73 94 -77 -7 -36 hvcurveto
          -27 0 -21 -11 -22 0 rrcurveto
          -94 hlineto
          1 84 1 81 0 81 0 64 -40 39 -55 0 -21 0 -31 -2 -29 -2 -27 -3 -28 -1 -27 0 -23 0 -19 8 -21 0 rrcurveto
          -52 -43 -38 -70 -80 57 -29 48 hvcurveto
          31 0 21 7 20 -2 0 -41 1 -46 1 -48 rrcurveto
          hintmask 11100110
          -68 hlineto
          -136 -15 -17 -53 hvcurveto
          0 -70 22 -23 59 3 10 1 4 0 126 -2 rrcurveto
          hintmask 11101010
          4 -366 4 -450 0 -182 0 -52 -5 -42 -4 -35 rrcurveto
          -3 -25 -2 -26 0 -24 rrcurveto
          endchar
        </CharString>
        <CharString name="hcircumflex">
          63 -8 -21 1045 216 529 -21 hstemhm
          219 214 127 712 -161 225 hintmask 11010100
          205 72 rmoveto
          -65 23 -36 79 vhcurveto
          26 0 65 16 49 11 26 5 27 7 26 5 47 10 36 47 0 48 0 67 -39 40 -72 -3 -17 -1 -14 -5 -12 -5 -17 -6 -3 -1 -2 0 rrcurveto
          -2 204 0 197 3 197 86 108 140 104 133 0 229 0 89 -145 0 -252 0 -151 -53 -168 -69 -98 -28 -36 -23 -46 0 -36 0 -66 34 -47 86 0 rrcurveto
          53 0 173 47 78 28 47 16 33 38 0 50 0 28 -17 77 -89 0 -35 0 -28 -11 -29 -10 55 113 37 149 0 123 0 418 -194 195 -336 0 rrcurveto
          -141 0 -135 -72 -93 -82 rrcurveto
          2 51 rlineto
          3 206 4 172 0 172 0 64 -40 39 -55 0 -21 0 -31 -2 -29 -2 -27 -3 -28 -1 -27 0 -23 0 -19 8 -21 0 rrcurveto
          -52 -43 -38 -70 -80 57 -29 48 hvcurveto
          31 0 21 7 20 -2 6 -368 6 -690 0 -236 0 -52 -5 -42 -4 -35 rrcurveto
          -3 -25 -2 -26 0 -24 rrcurveto
          hintmask 00101000
          453 1513 rmoveto
          13 callsubr
          endchar
        </CharString>
        <CharString name="hungarumlaut">
          -144 1394 452 hstem
          367 931 vstem
          916 1397 rmoveto
          61 0 157 152 98 98 28 24 38 35 0 51 0 57 -38 32 -62 0 -40 0 -40 -36 -54 -61 rrcurveto
          -144 -132 rlineto
          -54 -50 -37 -40 0 -40 0 -81 55 -9 32 0 rrcurveto
          -461 -3 rmoveto
          68 callsubr
          endchar
        </CharString>
        <CharString name="hungarumlaut.cap">
          -645 1587 423 hstem
          -44 877 vstem
          479 1595 rmoveto
          50 -1 79 75 61 58 35 32 28 26 29 23 42 35 30 23 0 51 0 66 -38 27 -62 0 -40 0 -39 -36 -54 -61 rrcurveto
          -107 -98 rlineto
          -50 -47 -44 -44 0 -39 0 -81 47 -9 33 0 rrcurveto
          -439 -8 rmoveto
          66 callsubr
          endchar
        </CharString>
        <CharString name="hyphen">
          -308 610 221 hstem
          105 938 vstem
          204 616 rmoveto
          460 -5 78 -1 78 0 53 0 39 -1 33 0 rrcurveto
          60 38 46 72 91 -54 23 -50 hvcurveto
          -30 0 -22 -4 -19 -7 rrcurveto
          -621 1 rlineto
          -85 -57 -7 -82 -104 52 -22 47 hvcurveto
          endchar
        </CharString>
        <CharString name="i">
          -659 -8 -21 1032 216 hstem
          326 212 vstem
          482 1378 rmoveto
          51 22 5 25 8 43 4 21 2 28 10 23 14 33 16 58 -4 27 -2 14 -6 23 -6 14 -20 45 -45 11 -47 -8 -63 -9 -32 -44 -4 -59 rrcurveto
          -4 -54 -40 -82 8 -52 12 -74 78 -34 65 29 rrcurveto
          -171 -1303 rmoveto
          -38 callsubr
          endchar
        </CharString>
        <CharString name="iacute">
          -669 -8 -21 1032 216 194 468 hstemhm
          239 505 -418 212 hintmask 11001000
          311 75 rmoveto
          46 callsubr
          hintmask 00110000
          32 1338 rmoveto
          31 callsubr
          endchar
        </CharString>
        <CharString name="ibreve">
          -669 -8 -21 1032 216 601 -21 hstemhm
          59 696 -429 212 hintmask 11001000
          311 75 rmoveto
          46 callsubr
          hintmask 00110000
          95 1334 rmoveto
          52 callsubr
          endchar
        </CharString>
        <CharString name="icircumflex">
          -669 -8 -21 1032 216 221 432 hstemhm
          -18 805 -461 212 hintmask 11001000
          311 75 rmoveto
          46 callsubr
          hintmask 00110000
          -230 1367 rmoveto
          32 callsubr
          endchar
        </CharString>
        <CharString name="idieresis">
          -669 -8 -21 1032 216 169 327 hstemhm
          15 722 -411 212 hintmask 11001000
          311 75 rmoveto
          46 callsubr
          hintmask 00110000
          -185 1320 rmoveto
          36 callsubr
          423 -7 rmoveto
          -3 callsubr
          endchar
        </CharString>
        <CharString name="igrave">
          -669 -8 -21 1032 216 185 471 hstemhm
          30 498 -202 212 hintmask 11001000
          311 75 rmoveto
          46 callsubr
          hintmask 00110000
          100 1329 rmoveto
          -56 callsubr
          endchar
        </CharString>
        <CharString name="ij">
          103 -500 -21 513 -21 1032 214 -214 216 -1 -20 hstemhm
          326 212 624 210 hintmask 01010100
          482 1378 rmoveto
          60 callsubr
          -171 -1303 rmoveto
          -38 callsubr
          hintmask 00000000
          967 1303 rmoveto
          -37 callsubr
          hintmask 10001010
          -36 callsubr
          -398 -1682 rmoveto
          -35 callsubr
          hintmask 10100010
          -34 callsubr
          endchar
        </CharString>
        <CharString name="imacron">
          -669 -8 -21 1032 216 246 188 hstemhm
          -28 800 -446 212 hintmask 11001000
          311 75 rmoveto
          46 callsubr
          hintmask 00110000
          -205 1390 rmoveto
          50 callsubr
          endchar
        </CharString>
        <CharString name="infinity">
          366 207 206 -200 205 408 205 hstemhm
          161 226 1061 221 hintmask 10111000
          580 213 rmoveto
          130 0 126 50 96 133 78 -138 125 -51 145 0 rrcurveto
          218 171 161 248 221 -142 195 -266 hvcurveto
          -142 0 -120 -81 -92 -105 rrcurveto
          hintmask 01111000
          -63 105 -102 80 -143 0 rrcurveto
          -256 -182 -160 -252 hvcurveto
          -216 191 -190 228 vhcurveto
          4 205 rmoveto
          -122 -75 104 105 93 71 106 128 hvcurveto
          124 0 65 -144 43 -84 rrcurveto
          -54 -103 -103 -77 -77 0 rrcurveto
          432 240 rmoveto
          53 73 89 94 114 0 rrcurveto
          hintmask 10111000
          106 70 -81 -124 -133 -72 -74 -107 hvcurveto
          -127 0 -80 148 -46 97 rrcurveto
          endchar
        </CharString>
        <CharString name="integral">
          3 -283 212 1654 216 hstem
          195 218 669 231 vstem
          195 73 rmoveto
          -197 103 -159 205 vhcurveto
          189 0 141 146 8 234 14 354 12 517 11 376 5 149 30 90 81 0 rrcurveto
          56 32 -58 -94 -72 32 -56 80 46 73 33 96 192 -69 175 -244 hvcurveto
          -275 0 -59 -214 -9 -279 -8 -254 -6 -210 -3 -162 -6 -218 -1 -226 -6 -114 -6 -122 -5 -71 -106 0 rrcurveto
          -81 -16 87 102 72 -43 37 -55 -75 -45 -52 -102 hvcurveto
          endchar
        </CharString>
        <CharString name="iogonek">
          -659 -484 203 1284 216 hstem
          326 212 vstem
          474 1372 rmoveto
          54 14 9 24 15 41 7 20 6 27 14 22 19 30 11 29 0 28 0 14 -2 23 -4 15 -12 48 -44 18 -47 0 -63 0 -39 -39 -13 -57 rrcurveto
          -13 -53 -38 -49 0 -53 0 -75 72 -45 68 18 rrcurveto
          -344 -1581 rmoveto
          -188 158 -87 145 138 133 53 115 56 -48 47 -52 vhcurveto
          -66 0 -26 -68 -74 0 -30 0 -61 12 0 65 0 61 47 93 158 43 35 8 24 6 32 9 69 21 45 35 -10 63 -9 49 -14 33 -69 0 rrcurveto
          -46 0 -30 -22 -43 -3 -4 278 6 241 0 241 0 59 14 52 0 54 0 63 -27 39 -68 0 -44 0 -51 -7 -49 0 -48 0 -50 7 -51 0 rrcurveto
          -52 -44 -38 -70 -80 58 -28 47 hvcurveto
          40 0 67 2 40 3 5 -263 1 -227 0 -239 0 -127 -15 -10 0 -67 rrcurveto
          -6 vlineto
          -116 -74 -65 -108 0 -96 rrcurveto
          endchar
        </CharString>
        <CharString name="itilde">
          -669 -8 -21 1032 216 190 209 -32 209 hstemhm
          -48 862 -488 212 hintmask 11000100
          311 75 rmoveto
          46 callsubr
          hintmask 00000000
          -258 1351 rmoveto
          33 callsubr
          hintmask 00011000
          34 callsubr
          hintmask 00101000
          35 callsubr
          endchar
        </CharString>
        <CharString name="j">
          -730 -500 -21 1524 214 1 -20 hstemhm
          329 210 hintmask 10110000
          445 1378 rmoveto
          -37 callsubr
          hintmask 11010000
          -36 callsubr
          -398 -1682 rmoveto
          -35 callsubr
          hintmask 10110000
          -34 callsubr
          endchar
        </CharString>
        <CharString name="jcircumflex">
          -730 -500 -21 1524 214 1 -20 242 432 hstemhm
          -18 805 -458 210 hintmask 10100100
          47 -304 rmoveto
          61 callsubr
          hintmask 11000100
          62 callsubr
          hintmask 00011000
          34 1746 rmoveto
          32 callsubr
          endchar
        </CharString>
        <CharString name="k">
          -4 -8 -21 442 215 395 209 333 217 hstem
          222 213 628 233 vstem
          208 70 rmoveto
          -33 callsubr
          endchar
        </CharString>
        <CharString name="kcommaaccent">
          -4 -529 -21 542 -21 442 215 395 209 333 217 hstem
          222 213 273 233 122 233 vstem
          208 70 rmoveto
          -33 callsubr
          500 -286 rmoveto
          59 callsubr
          endchar
        </CharString>
        <CharString name="kgreenlandic">
          -17 -8 -21 442 215 340 217 -169 216 hstemhm
          228 210 hintmask 11011000
          214 70 rmoveto
          hintmask 11101000
          -65 23 -34 79 vhcurveto
          49 0 47 21 47 5 70 8 89 12 0 101 0 67 -38 37 -73 0 -23 0 -22 -10 -20 -5 -3 224 -1 22 0 23 rrcurveto
          -3 131 rlineto
          60 214 170 195 175 0 131 0 78 -46 0 -114 0 -143 -126 -63 -64 -27 -16 3 -12 2 -18 0 rrcurveto
          -75 -51 -39 -70 -80 51 -26 100 hvcurveto
          71 0 22 -78 26 -90 37 -128 44 -148 186 0 rrcurveto
          101 133 18 115 71 -45 42 -58 hvcurveto
          -38 0 -34 -19 -36 0 -41 0 -24 81 -15 56 -19 70 -28 64 -57 48 111 59 108 122 0 178 0 207 -137 151 -271 0 -163 0 -160 -102 -103 -122 rrcurveto
          2 25 3 22 2 27 0 64 -40 39 -55 0 -58 0 -53 -8 -52 0 -23 0 -20 8 -20 0 rrcurveto
          -52 -43 -38 -70 -80 57 -29 48 hvcurveto
          31 0 24 2 17 3 6 -368 6 -95 0 -236 rrcurveto
          0 -73 -14 -64 0 -67 rrcurveto
          endchar
        </CharString>
        <CharString name="l">
          -702 -8 -21 1594 217 hstem
          261 212 vstem
          254 103 rmoveto
          -32 callsubr
          endchar
        </CharString>
        <CharString name="lacute">
          -702 -8 -21 1334 217 82 405 hstemhm
          258 424 -421 212 hintmask 11001000
          254 103 rmoveto
          -60 35 -72 85 vhcurveto
          29 0 20 3 45 14 rrcurveto
          100 26 rlineto
          75 18 43 30 0 60 0 74 -36 36 -69 0 -24 0 -30 -8 -54 -16 rrcurveto
          1050 vlineto
          2 55 22 48 0 53 0 73 -39 35 -56 0 -82 0 -27 -8 -75 0 -51 0 -44 8 -46 0 rrcurveto
          -51 -44 -38 -70 -80 58 -29 47 hvcurveto
          56 0 53 7 52 1 8 -475 5 -310 0 -122 0 -59 -2 -65 -2 -48 rrcurveto
          -2 -46 -1 -42 0 -43 rrcurveto
          hintmask 00110000
          119 1501 rmoveto
          12 callsubr
          endchar
        </CharString>
        <CharString name="lcaron">
          -667 9 -21 1148 557 -111 217 hstemhm
          261 212 154 223 hintmask 10110000
          254 120 rmoveto
          63 callsubr
          hintmask 01001000
          414 1016 rmoveto
          57 callsubr
          endchar
        </CharString>
        <CharString name="lcommaaccent">
          -702 -529 -21 542 -21 1594 217 hstemhm
          250 233 -222 212 hintmask 01101000
          254 103 rmoveto
          63 callsubr
          hintmask 10010000
          -4 -319 rmoveto
          59 callsubr
          endchar
        </CharString>
        <CharString name="ldot">
          -702 -8 -21 758 331 505 217 hstem
          261 212 169 282 vstem
          254 103 rmoveto
          -32 callsubr
          529 626 rmoveto
          64 callsubr
          endchar
        </CharString>
        <CharString name="less">
          -308 194 810 hstem
          142 805 vstem
          193 502 rmoveto
          112 -48 358 -182 89 -47 24 -15 29 -16 39 0 70 0 33 66 0 54 0 77 -72 26 -30 4 rrcurveto
          -370 176 388 181 0 -1 rlineto
          44 19 37 15 0 68 0 57 -51 68 -50 0 -33 0 -44 -26 -19 -15 -185 -81 -162 -85 -168 -69 -62 -17 -28 -20 0 -69 0 -42 13 -62 38 -16 rrcurveto
          endchar
        </CharString>
        <CharString name="lessequal">
          -306 0 211 hstem
          86 1003 vstem
          288 307 rmoveto
          35 0 27 15 25 13 321 140 187 81 89 34 36 15 13 61 0 42 0 71 -36 12 -35 13 -9 3 -8 3 0 0 rrcurveto
          3 0 -553 214 rlineto
          -19 13 -37 24 -38 0 -48 0 -53 -69 0 -52 0 -67 37 -15 43 -19 41 -15 48 -17 341 -119 rrcurveto
          -411 -158 rlineto
          -29 -3 -73 -24 0 -78 0 -55 34 -63 69 0 rrcurveto
          -202 -208 rmoveto
          0 -50 23 -46 59 -3 rrcurveto
          778 hlineto
          109 1 34 44 0 70 0 90 -66 19 -37 0 -25 0 -22 -13 -23 0 rrcurveto
          -755 -5 rlineto
          -49 -8 -26 -50 0 -49 rrcurveto
          endchar
        </CharString>
        <CharString name="logicalnot">
          54 130 684 hstem
          1089 232 vstem
          252 592 rmoveto
          5 0 13 0 819 2 0 -162 0 -45 -2 -42 rrcurveto
          1 vlineto
          -4 -27 -4 -60 0 -27 rrcurveto
          -36 23 -66 97 75 56 35 63 vhcurveto
          0 27 -2 34 -2 25 0 5 -1 6 0 5 -2 28 -2 33 0 46 0 64 1 86 5 128 rrcurveto
          2 vlineto
          -7 64 -47 33 -55 0 -32 0 -38 -2 -21 -3 -808 -2 -16 1 -10 1 -9 1 -14 1 -9 0 rrcurveto
          -36 -69 -14 -92 -72 37 -41 59 hvcurveto
          endchar
        </CharString>
        <CharString name="lozenge">
          202 -72 1503 hstem
          191 1249 vstem
          222 612 rmoveto
          189 -221 167 -223 180 -212 29 -19 26 -9 28 0 26 0 27 8 28 19 310 397 101 137 80 115 17 22 10 19 0 25 0 26 -17 43 -25 34 rrcurveto
          -88 128 -13 17 -351 446 rrcurveto
          1 -1 rlineto
          -13 41 -53 27 -49 0 -32 0 -32 -12 -33 -28 rrcurveto
          -1 -5 0 1 -527 -644 rlineto
          -10 -21 -6 -20 0 -17 0 -22 9 -25 22 -26 rrcurveto
          234 72 rmoveto
          382 476 349 -480 -349 -476 rlineto
          endchar
        </CharString>
        <CharString name="lslash">
          -701 1274 -20 346 217 hstem
          249 225 vstem
          255 138 rmoveto
          -60 35 -72 85 vhcurveto
          29 0 20 3 45 14 rrcurveto
          100 26 rlineto
          75 18 43 30 0 60 0 74 -36 36 -69 0 -24 0 -30 -8 -54 -16 rrcurveto
          598 vlineto
          70 64 35 33 36 35 87 85 63 62 0 42 -1 89 -86 23 -19 0 -27 0 -25 -14 -14 -15 -40 -38 -39 -37 -40 -36 rrcurveto
          420 vlineto
          2 54 22 49 0 52 0 73 -39 35 -56 0 -82 0 -27 -8 -75 0 -51 0 -44 8 -46 0 rrcurveto
          -51 -44 -38 -70 -80 58 -29 47 hvcurveto
          56 0 53 7 52 1 3 -219 4 -239 2 -206 -83 -73 -82 -74 -77 -78 -17 -17 -9 -23 0 -23 0 -58 35 -68 80 0 77 0 1 50 36 36 rrcurveto
          42 36 rlineto
          1 -100 0 -75 0 -36 0 -59 -2 -65 -2 -48 -2 -46 -1 -42 0 -43 rrcurveto
          endchar
        </CharString>
        <CharString name="m">
          857 -31 266 774 217 -209 215 hstemhm
          297 208 hintmask 10110000
          282 73 rmoveto
          hintmask 11010000
          -31 callsubr
          endchar
        </CharString>
        <CharString name="macron">
          -478 1465 188 hstem
          87 800 vstem
          221 1465 rmoveto
          73 0 66 9 67 0 123 0 109 -9 108 0 rrcurveto
          34 86 16 88 99 -58 3 -65 hvcurveto
          -93 0 -87 -18 -88 0 -96 0 -87 8 -86 0 rrcurveto
          -85 -55 -31 -59 -89 65 -17 69 hvcurveto
          endchar
        </CharString>
        <CharString name="macron.cap">
          -481 1637 192 hstem
          87 800 vstem
          221 1634 rmoveto
          213 6 204 -5 129 -1 60 0 60 15 0 88 0 99 -58 8 -65 -5 -111 -9 -280 -1 -146 0 -85 0 -55 -31 0 -58 0 -90 65 -18 69 2 rrcurveto
          endchar
        </CharString>
        <CharString name="minus">
          -144 616 214 hstem
          176 977 vstem
          276 616 rmoveto
          326 0 209 -3 244 -4 rrcurveto
          60 38 46 72 91 -67 23 -38 hvcurveto
          -26 0 -21 -11 -23 0 -279 0 -148 1 -231 0 rrcurveto
          -86 -58 -7 -82 -104 53 -22 47 hvcurveto
          endchar
        </CharString>
        <CharString name="mu">
          31 -9 -21 6 206 hstemhm
          213 220 -214 215 628 216 hintmask 01101000
          219 91 rmoveto
          2 callsubr
          hintmask 01011000
          3 callsubr
          hintmask 10101000
          4 callsubr
          hintmask 01101000
          5 callsubr
          endchar
        </CharString>
        <CharString name="multiply">
          -306 250 820 hstem
          172 819 vstem
          298 250 rmoveto
          61 0 28 47 10 20 4 9 7 9 13 11 rrcurveto
          162 164 167 -170 0 1 rlineto
          8 -9 8 -10 6 -9 23 -32 15 -23 55 -5 74 -6 62 71 -11 64 -4 23 -4 20 -18 18 -54 54 -98 104 -70 69 94 95 97 99 24 28 rrcurveto
          15 16 15 26 0 28 0 69 -100 36 -19 0 -29 0 -22 -11 -17 -17 rrcurveto
          -216 -214 -220 217 rlineto
          -16 14 -24 14 -26 0 -20 0 -99 -32 0 -73 0 -50 90 -91 115 -113 rrcurveto
          43 -41 rlineto
          -85 -85 -88 -89 -56 -57 -14 -17 -11 -25 -1 -20 -4 -83 75 -44 55 0 rrcurveto
          endchar
        </CharString>
        <CharString name="n">
          130 -8 -21 1038 209 -202 216 -14 -20 28 -20 hstemhm
          297 210 701 228 hintmask 10100110
          283 74 rmoveto
          hintmask 10001110
          -30 callsubr
          hintmask 10010110
          -29 callsubr
          hintmask 10001110
          67 -38 37 -72 vhcurveto
          hintmask 11000110
          -28 callsubr
          hintmask 10100110
          -27 callsubr
          endchar
        </CharString>
        <CharString name="nacute">
          130 -8 -21 1038 209 -202 216 -14 -20 28 -20 207 468 hstemhm
          297 210 289 505 -93 228 hintmask 1010001010000000
          283 74 rmoveto
          hintmask 1000101010000000
          -30 callsubr
          hintmask 1001001010000000
          -29 callsubr
          hintmask 1000101010000000
          67 -38 37 -72 vhcurveto
          hintmask 1100001010000000
          -28 callsubr
          hintmask 1010001010000000
          -27 callsubr
          hintmask 0000010100000000
          617 1339 rmoveto
          31 callsubr
          endchar
        </CharString>
        <CharString name="nbspace">
          -645 endchar
        </CharString>
        <CharString name="ncaron">
          130 -8 -21 1038 209 -202 216 -14 -20 28 -20 225 441 hstemhm
          297 210 33 805 -137 228 hintmask 1010001010000000
          283 74 rmoveto
          hintmask 1000101010000000
          -30 callsubr
          hintmask 1001001010000000
          -29 callsubr
          hintmask 1000101010000000
          67 -38 37 -72 vhcurveto
          hintmask 1100001010000000
          -28 callsubr
          hintmask 1010001010000000
          -27 callsubr
          hintmask 0000010100000000
          662 1357 rmoveto
          56 callsubr
          endchar
        </CharString>
        <CharString name="ncommaaccent">
          130 -529 -21 542 -21 1038 209 -202 216 -14 -20 28 -20 hstemhm
          297 210 240 233 228 228 hintmask 0101001010000000
          283 74 rmoveto
          hintmask 0100011010000000
          -30 callsubr
          hintmask 0100101010000000
          -29 callsubr
          hintmask 0100011010000000
          67 -38 37 -72 vhcurveto
          hintmask 0110001010000000
          -28 callsubr
          hintmask 0101001010000000
          -27 callsubr
          hintmask 1000000100000000
          464 -290 rmoveto
          59 callsubr
          endchar
        </CharString>
        <CharString name="nine">
          26 -30 210 313 204 739 197 hstem
          125 221 783 236 vstem
          314 141 rmoveto
          -141 266 -30 115 488 182 503 452 370 -173 338 -468 -406 -193 -281 -282 -380 264 -197 318 vhcurveto
          117 0 186 35 114 129 -37 -270 -158 -207 -227 0 -118 0 -12 7 -35 20 -28 18 -29 18 -58 0 rrcurveto
          -52 -56 -29 -73 hvcurveto
          393 556 rmoveto
          -170 -191 74 321 239 200 105 182 253 148 -186 -211 hvcurveto
          -72 vlineto
          -69 -177 -203 -93 -150 0 rrcurveto
          endchar
        </CharString>
        <CharString name="notequal">
          -308 1 -21 370 219 -213 214 279 219 -213 214 hstemhm
          123 938 hintmask 11001100
          307 91 rmoveto
          -51 35 -60 86 vhcurveto
          80 4 7 43 9 37 rrcurveto
          hintmask 10101100
          22 96 26 95 26 97 rrcurveto
          240 -2 rlineto
          53 0 39 -1 33 0 rrcurveto
          60 38 46 72 91 -68 23 -36 hvcurveto
          -15 0 -13 -3 -12 -3 -11 -3 -11 -3 -9 0 rrcurveto
          -235 0 20 96 rlineto
          hintmask 11010100
          12 62 13 62 14 61 rrcurveto
          128 -1 rlineto
          53 0 39 -1 33 0 rrcurveto
          60 38 46 71 92 -68 23 -36 hvcurveto
          -15 0 -13 -3 -12 -3 -11 -3 -11 -3 -9 0 rrcurveto
          -121 hlineto
          14 49 14 48 14 45 2 6 23 57 0 34 0 66 -57 35 -50 0 -83 0 -22 -80 -21 -77 -15 -57 -16 -60 -15 -66 rrcurveto
          -288 1 rlineto
          -85 -57 -6 -82 -105 52 -21 47 hvcurveto
          281 -3 -34 -153 -30 -130 -174 1 rlineto
          -85 -57 -6 -82 hvcurveto
          hintmask 11001100
          -105 52 -21 47 vhcurveto
          167 -2 rlineto
          -14 -57 -15 -58 -15 -57 rrcurveto
          -28 -44 -10 -18 0 -29 rrcurveto
          endchar
        </CharString>
        <CharString name="ntilde">
          130 -8 -21 1038 209 -202 216 -14 -20 28 -20 203 209 -32 209 hstemhm
          297 210 3 862 -164 228 hintmask 1010000101000000
          283 74 rmoveto
          hintmask 1000100101000000
          -30 callsubr
          hintmask 1001000101000000
          -29 callsubr
          hintmask 1000100101000000
          67 -38 37 -72 vhcurveto
          hintmask 1100000101000000
          -28 callsubr
          hintmask 1010000101000000
          -27 callsubr
          hintmask 0000000000000000
          328 1352 rmoveto
          33 callsubr
          hintmask 0000001010000000
          34 callsubr
          hintmask 0000010010000000
          35 callsubr
          endchar
        </CharString>
        <CharString name="numbersign">
          59 -19 -21 353 224 283 222 hstem
          95 1358 vstem
          258 56 rmoveto
          2 -55 41 -41 83 0 70 0 18 62 11 48 19 81 18 81 18 81 rrcurveto
          292 0 -46 -178 rlineto
          -11 -24 -11 -22 0 -32 rrcurveto
          -1 vlineto
          2 -55 41 -41 82 0 72 0 13 52 13 49 17 72 14 74 20 106 rrcurveto
          216 hlineto
          60 37 47 74 90 -66 26 -37 hvcurveto
          -25 0 -22 -12 -24 0 rrcurveto
          -94 hlineto
          16 79 20 93 23 110 rrcurveto
          216 hlineto
          60 37 46 74 92 -65 24 -39 hvcurveto
          -25 0 -22 -11 -23 0 rrcurveto
          -89 hlineto
          13 61 15 65 16 70 rrcurveto
          -1 vlineto
          8 19 31 98 0 33 0 76 -62 17 -52 0 -74 0 -33 -96 -11 -69 -1 -4 -9 -84 -35 -186 -45 -1 -41 0 -32 0 -57 -1 -59 0 -60 0 rrcurveto
          15 66 16 66 16 66 9 18 31 100 0 32 0 76 -61 17 -53 0 -75 0 -31 -96 -12 -69 -1 -4 -14 -85 -41 -188 rrcurveto
          -160 hlineto
          -93 -49 -10 -81 -106 51 -23 48 hvcurveto
          36 -1 51 0 66 0 -19 -84 -23 -93 -27 -107 -99 -1 -75 -2 -20 -1 -40 -5 -53 -22 0 -63 0 -106 52 -22 47 0 28 0 51 -1 53 0 rrcurveto
          -14 -57 -16 -58 -16 -63 -11 -24 -11 -23 0 -31 rrcurveto
          330 480 rmoveto
          63 283 299 0 rlineto
          -18 -83 -21 -93 -26 -106 -96 0 -100 -1 -101 0 rrcurveto
          endchar
        </CharString>
        <CharString name="o">
          -32 -29 215 830 216 hstem
          109 231 781 230 vstem
          109 603 rmoveto
          -26 callsubr
          231 hmoveto
          -25 callsubr
          endchar
        </CharString>
        <CharString name="oacute">
          -32 -29 215 830 216 181 468 hstem
          109 231 245 505 31 230 vstem
          109 603 rmoveto
          -26 callsubr
          231 hmoveto
          -25 callsubr
          349 810 rmoveto
          31 callsubr
          endchar
        </CharString>
        <CharString name="obreve">
          -32 -29 215 830 216 588 -21 hstem
          109 231 66 696 19 230 vstem
          109 603 rmoveto
          -26 callsubr
          231 hmoveto
          -25 callsubr
          413 806 rmoveto
          52 callsubr
          endchar
        </CharString>
        <CharString name="ocircumflex">
          -32 -29 215 830 216 208 432 hstemhm
          109 231 -11 805 -13 230 hintmask 11010100
          109 603 rmoveto
          47 callsubr
          231 hmoveto
          -25 callsubr
          hintmask 00101000
          88 839 rmoveto
          32 callsubr
          endchar
        </CharString>
        <CharString name="odieresis">
          -32 -29 215 830 216 156 327 hstem
          109 231 22 722 37 230 vstem
          109 603 rmoveto
          -26 callsubr
          231 hmoveto
          -25 callsubr
          133 792 rmoveto
          36 callsubr
          423 -7 rmoveto
          -3 callsubr
          endchar
        </CharString>
        <CharString name="oe">
          885 -30 219 -216 218 823 214 -212 213 hstemhm
          119 225 hintmask 01011000
          119 600 rmoveto
          hintmask 01101000
          -380 273 -247 337 vhcurveto
          187 0 193 115 110 138 rrcurveto
          hintmask 01011000
          82 -142 149 -114 214 0 154 0 321 69 89 250 2 6 1 5 0 11 0 39 -39 66 -64 0 rrcurveto
          hintmask 10011000
          -35 0 -41 -23 -25 -39 -55 -86 -89 -79 -206 0 -131 0 -144 68 -46 219 271 58 264 29 259 57 78 19 30 37 0 55 0 32 -17 29 -18 23 rrcurveto
          -45 232 -191 181 -267 0 -217 0 -166 -100 -107 -173 -101 170 -172 104 -228 0 rrcurveto
          -344 -266 -282 -347 hvcurveto
          225 hmoveto
          225 140 191 249 242 138 -191 -225 -273 -172 -136 -208 -240 -149 155 254 vhcurveto
          hintmask 01101000
          1004 69 rmoveto
          23 226 127 119 216 0 150 0 96 -84 46 -124 rrcurveto
          -223 -51 -219 -37 -216 -49 rrcurveto
          endchar
        </CharString>
        <CharString name="ogonek">
          -307 -484 203 hstem
          316 229 vstem
          316 -212 rmoveto
          -225 162 -47 143 136 176 74 111 50 -47 53 -54 vhcurveto
          -24 0 -31 -8 -20 -19 -47 -47 -49 -11 -50 0 -30 0 -36 28 0 61 0 116 182 95 77 30 rrcurveto
          -145 108 rlineto
          -197 -71 -146 -168 0 -130 rrcurveto
          endchar
        </CharString>
        <CharString name="ograve">
          -32 -29 215 830 216 172 471 hstem
          109 231 37 498 246 230 vstem
          109 603 rmoveto
          -26 callsubr
          231 hmoveto
          -25 callsubr
          418 801 rmoveto
          -56 callsubr
          endchar
        </CharString>
        <CharString name="ohungarumlaut">
          -32 -29 215 830 216 162 452 hstemhm
          109 231 40 931 -190 230 hintmask 11010100
          109 603 rmoveto
          47 callsubr
          231 hmoveto
          -25 callsubr
          hintmask 00101000
          589 794 rmoveto
          67 callsubr
          -461 -3 rmoveto
          68 callsubr
          endchar
        </CharString>
        <CharString name="omacron">
          -32 -29 215 830 216 233 188 hstemhm
          109 231 -21 800 2 230 hintmask 11010100
          109 603 rmoveto
          47 callsubr
          231 hmoveto
          -25 callsubr
          hintmask 00101000
          113 862 rmoveto
          50 callsubr
          endchar
        </CharString>
        <CharString name="one">
          -471 1 -21 hstem
          456 217 vstem
          443 88 rmoveto
          -69 30 -39 105 94 24 49 59 vhcurveto
          0 18 -3 17 -3 18 -27 148 13 471 0 266 0 162 1 160 2 113 0 18 9 16 0 19 0 58 -38 71 -77 0 -48 0 -61 -32 -80 -49 rrcurveto
          -50 -30 -66 -39 -65 -33 -54 -27 -26 -37 0 -45 0 -65 46 -46 67 0 75 0 78 72 63 31 4 -549 0 -239 0 -261 0 -79 -13 -63 0 -64 rrcurveto
          endchar
        </CharString>
</ttFont>
